<svg width="24px" height="24px" viewBox="0 0 24 24" version="1.1" xmlns="http://www.w3.org/2000/svg" xmlns:xlink="http://www.w3.org/1999/xlink">
    <g id="Page-1" stroke="none" stroke-width="1" fill="none" fill-rule="evenodd">
        <g id="footer_icons" transform="translate(-336.000000, -117.000000)">
            <g id="apple-pink-icon" transform="translate(336.000000, 117.000000)">
                <path d="M16.1196034,12.5427692 C16.0994769,10.3114615 17.9511145,9.22592308 18.0357846,9.17538462 C16.9871248,7.65023077 15.3617368,7.44184615 14.7905607,7.42523077 C13.4254291,7.28192308 12.1012444,8.24007692 11.4058393,8.24007692 C10.6965538,8.24007692 9.62568547,7.43907692 8.47153504,7.46261538 C6.98633846,7.48546154 5.59691624,8.34323077 4.83488547,9.67523077 C3.26224274,12.3911538 4.43513162,16.3823077 5.94184274,18.5776154 C6.6955453,19.6527692 7.57625299,20.8532308 8.72901538,20.811 C9.85679316,20.7646154 10.2780615,20.0937692 11.6390291,20.0937692 C12.9875043,20.0937692 13.383094,20.811 14.558759,20.784 C15.7691248,20.7646154 16.5311556,19.704 17.2584855,18.6191538 C18.1294769,17.3868462 18.4792615,16.1732308 18.4931419,16.1109231 C18.4646872,16.1012308 16.142506,15.2171538 16.1196034,12.5427692 L16.1196034,12.5427692 Z" id="Shape" fill="#ED54A4"></path>
                <path d="M13.8987487,5.98107692 C14.5053197,5.22438462 14.9203419,4.19492308 14.805135,3.15023077 C13.9272034,3.189 12.8292684,3.756 12.1970188,4.49607692 C11.637641,5.14823077 11.1379487,6.21715385 11.2670359,7.22238462 C12.2532342,7.29576923 13.2658051,6.726 13.8987487,5.98107692 L13.8987487,5.98107692 Z" id="Shape" fill="#ED54A4"></path>
            </g>
        </g>
    </g>
</svg>