<svg width="24px" height="24px" viewBox="0 0 24 24" version="1.1" xmlns="http://www.w3.org/2000/svg" xmlns:xlink="http://www.w3.org/1999/xlink">
    <g id="Page-1" stroke="none" stroke-width="1" fill="none" fill-rule="evenodd">
        <g id="footer_icons" transform="translate(-336.000000, -57.000000)">
            <g id="apple-icon" transform="translate(336.000000, 57.000000)">
                <g id="Group" transform="translate(4.000000, 3.000000)" fill="#A4A4A4">
                    <path d="M12.1196034,9.54276923 C12.0994769,7.31146154 13.9511145,6.22592308 14.0357846,6.17538462 C12.9871248,4.65023077 11.3617368,4.44184615 10.7905607,4.42523077 C9.42542906,4.28192308 8.10124444,5.24007692 7.40583932,5.24007692 C6.69655385,5.24007692 5.62568547,4.43907692 4.47153504,4.46261538 C2.98633846,4.48546154 1.59691624,5.34323077 0.83488547,6.67523077 C-0.737757265,9.39115385 0.435131624,13.3823077 1.94184274,15.5776154 C2.6955453,16.6527692 3.57625299,17.8532308 4.72901538,17.811 C5.85679316,17.7646154 6.27806154,17.0937692 7.63902906,17.0937692 C8.98750427,17.0937692 9.38309402,17.811 10.558759,17.784 C11.7691248,17.7646154 12.5311556,16.704 13.2584855,15.6191538 C14.1294769,14.3868462 14.4792615,13.1732308 14.4931419,13.1109231 C14.4646872,13.1012308 12.142506,12.2171538 12.1196034,9.54276923 L12.1196034,9.54276923 Z" id="Shape"></path>
                    <path d="M9.89874872,2.98107692 C10.5053197,2.22438462 10.9203419,1.19492308 10.805135,0.150230769 C9.92720342,0.189 8.82926838,0.756 8.1970188,1.49607692 C7.63764103,2.14823077 7.13794872,3.21715385 7.2670359,4.22238462 C8.25323419,4.29576923 9.26580513,3.726 9.89874872,2.98107692 L9.89874872,2.98107692 Z" id="Shape"></path>
                </g>
            </g>
        </g>
    </g>
</svg>