<?xml version="1.0" encoding="UTF-8" standalone="no"?>
<svg width="59px" height="16px" viewBox="0 0 59 16" version="1.1" xmlns="http://www.w3.org/2000/svg" xmlns:xlink="http://www.w3.org/1999/xlink">
    <!-- Generator: sketchtool 3.7.1 (28215) - http://www.bohemiancoding.com/sketch -->
    <title>A254BAB2-9C18-432D-BA93-35A6F4D09ABA</title>
    <desc>Created with sketchtool.</desc>
    <defs></defs>
    <g id="Page-1" stroke="none" stroke-width="1" fill="none" fill-rule="evenodd">
        <g id="footer_icons" transform="translate(-385.000000, -184.000000)" fill="#204265">
            <g id="hs-logo-pink-icon" transform="translate(385.000000, 175.000000)">
                <path d="M1.38660648,11.3210366 C1.35812644,11.4545213 1.33880955,11.6045988 1.32939875,11.7712689 C1.3197403,11.9381867 1.31503491,12.0979226 1.31503491,12.2502289 L1.31503491,12.5360199 L1.31503491,13.1648097 C1.46734121,13.1363296 1.59612052,13.1028965 1.70112519,13.0647581 C1.95843616,12.9790703 2.177361,12.8646548 2.35864264,12.7217593 C2.53942899,12.5788638 2.69668834,12.3928768 2.83017305,12.1642935 C2.89679158,12.0025764 2.93022467,11.8356586 2.93022467,11.6640354 C2.93022467,11.5307983 2.9086789,11.3975613 2.86608267,11.2640766 C2.82323878,11.1303442 2.75884912,11.011471 2.6729137,10.9064663 C2.59663672,10.8111201 2.50624355,10.7378149 2.40148653,10.6850649 C2.29648186,10.6328103 2.20138329,10.6063114 2.11544786,10.6063114 L2.10133167,10.6063114 C2.04412394,10.6063114 1.98443968,10.6157222 1.92252655,10.6350391 C1.86036576,10.6541084 1.79151836,10.6872938 1.71524139,10.7350908 C1.58175667,10.8207785 1.47229426,11.016424 1.38660648,11.3210366 M6.56081068,20.368774 C6.62742921,20.6070157 6.76561932,20.8024135 6.97513335,20.9547198 L6.51796679,21.6266011 C6.32727435,21.4931164 6.17249152,21.3336282 6.05337066,21.1478888 C5.93400214,20.9621494 5.84113244,20.7689804 5.77476157,20.5688772 C5.72671698,20.3781848 5.69823694,20.1924454 5.68882614,20.011659 C5.67941535,19.830625 5.6744623,19.6540488 5.6744623,19.4824256 L5.6744623,19.1253106 L5.6744623,17.9818989 C5.6744623,17.6007617 5.61502569,17.250581 5.49590482,16.9311093 C5.37653631,16.6121328 5.21234268,16.3332761 5.00282865,16.0950343 C4.59296372,15.5997293 4.09270562,15.3515815 3.50205435,15.3515815 C2.90174463,15.3515815 2.39653348,15.5997293 1.9869162,16.0950343 C1.78681296,16.3238653 1.62707709,16.597769 1.50795622,16.9169931 C1.38883536,17.2362172 1.3244457,17.5769871 1.31503491,17.939055 L1.31503491,21.383654 L0.514621946,21.383654 L0.514621946,17.9818989 L0.514621946,17.939055 L0.514621946,14.0796381 C0.428934173,14.0892966 0.345475272,14.094002 0.264492896,14.094002 L0,14.094002 L0,13.2792251 L0.264492896,13.2792251 C0.345475272,13.2792251 0.428934173,13.2747674 0.514621946,13.265109 L0.514621946,12.5360199 L0.514621946,12.2502289 C0.514621946,12.0882642 0.519327344,11.9121832 0.528985792,11.7212431 C0.538396588,11.5307983 0.562171231,11.3354005 0.60030972,11.1352972 C0.648106657,10.9446048 0.724135982,10.7516835 0.829140652,10.5562856 C0.93389767,10.3611354 1.08645163,10.1969418 1.28655487,10.0632095 C1.41038113,9.96811089 1.54386584,9.90149236 1.68676134,9.86310622 C1.82965685,9.82496773 1.96784696,9.80614614 2.10133167,9.80614614 C2.3489842,9.80614614 2.57286208,9.86310622 2.77321297,9.97727403 C2.97306856,10.0919372 3.13973871,10.234585 3.27322342,10.4064559 C3.41611892,10.5775838 3.53053439,10.7705051 3.61646982,10.9854675 C3.70215759,11.1996869 3.74500148,11.4260413 3.74500148,11.6640354 C3.74500148,11.8071785 3.7281611,11.9523029 3.69497567,12.1001515 C3.66154258,12.2477524 3.60681137,12.3928768 3.53053439,12.5360199 C3.35915884,12.8696079 3.13528096,13.1412827 2.85865309,13.3505491 C2.58227287,13.5605584 2.28211801,13.7178178 1.95843616,13.8223271 C1.86308994,13.8604656 1.7605618,13.8916698 1.65085173,13.9154445 C1.54138931,13.9392191 1.42945037,13.9654703 1.31503491,13.9939503 L1.31503491,15.6088924 C1.3437626,15.5997293 1.35812644,15.5853655 1.35812644,15.5662962 C1.63425901,15.2611883 1.95348311,15.0135358 2.3155511,14.823091 C2.6776191,14.6323985 3.07336783,14.5370523 3.50205435,14.5370523 C3.92108242,14.5370523 4.31410698,14.6323985 4.68137567,14.823091 C5.04790141,15.0135358 5.36019124,15.2611883 5.61750221,15.5662962 C5.89363478,15.8805673 6.10810187,16.2451118 6.26065582,16.6596821 C6.41296212,17.0740048 6.4892391,17.5150739 6.4892391,17.9818989 L6.4892391,19.1253106 L6.4892391,19.4824256 C6.4892391,19.644638 6.4939445,19.8018973 6.50360295,19.9542036 C6.51301374,20.1070052 6.53208299,20.2451954 6.56081068,20.368774 L6.56081068,20.368774 L6.56081068,20.368774 Z M10.8058721,20.5973572 C11.1394601,20.5973572 11.4564553,20.5309864 11.7566102,20.397254 C12.056765,20.2640169 12.3185338,20.0782776 12.5426593,19.8397882 C12.7662895,19.6017941 12.9428658,19.323185 13.0713974,19.0037132 C13.2001767,18.6844891 13.2645664,18.3439669 13.2645664,17.9814036 C13.2645664,17.6099248 13.2001767,17.2649449 13.0713974,16.9454731 C12.9428658,16.626249 12.7662895,16.3476399 12.5426593,16.1093982 C12.3185338,15.8711565 12.056765,15.6854171 11.7566102,15.5519324 C11.4564553,15.4184477 11.1394601,15.3515815 10.8058721,15.3515815 C10.4722842,15.3515815 10.1580131,15.4184477 9.86256367,15.5519324 C9.56711421,15.6854171 9.30980323,15.8711565 9.09063075,16.1093982 C8.87121061,16.3476399 8.69537732,16.626249 8.56189261,16.9454731 C8.42816025,17.2649449 8.35683632,17.6099248 8.34742552,17.9814036 C8.35683632,18.3439669 8.42816025,18.6844891 8.56189261,19.0037132 C8.69537732,19.323185 8.87121061,19.6017941 9.09063075,19.8397882 C9.30980323,20.0782776 9.56711421,20.2640169 9.86256367,20.397254 C10.1580131,20.5309864 10.4722842,20.5973572 10.8058721,20.5973572 L10.8058721,20.5973572 L10.8058721,20.5973572 Z M10.8058721,14.5370523 C11.263534,14.5370523 11.689744,14.6276931 12.0852451,14.8084795 C12.4804985,14.9897611 12.8259738,15.2374137 13.1216709,15.5519324 C13.4168727,15.8662034 13.650409,16.2334721 13.8220322,16.6522525 C13.9934078,17.0720236 14.0793432,17.5150739 14.0793432,17.9814036 C14.0793432,18.4487239 13.9934078,18.8895454 13.8220322,19.3038681 C13.650409,19.7184384 13.4168727,20.082983 13.1216709,20.397254 C12.8259738,20.7120204 12.4804985,20.9596729 12.0852451,21.1404592 C11.689744,21.3219885 11.263534,21.4123817 10.8058721,21.4123817 C10.3484579,21.4123817 9.9197714,21.3219885 9.51956492,21.1404592 C9.11911079,20.9596729 8.77140665,20.7120204 8.47620484,20.397254 C8.18050772,20.082983 7.94944792,19.7184384 7.78302542,19.3038681 C7.61610762,18.8895454 7.53264872,18.4487239 7.53264872,17.9814036 C7.53264872,17.5150739 7.61610762,17.0720236 7.78302542,16.6522525 C7.94944792,16.2334721 8.18050772,15.8662034 8.47620484,15.5519324 C8.77140665,15.2374137 9.11911079,14.9897611 9.51956492,14.8084795 C9.9197714,14.6276931 10.3484579,14.5370523 10.8058721,14.5370523 L10.8058721,14.5370523 L10.8058721,14.5370523 Z M16.1944939,17.9817751 C16.1944939,18.3440908 16.2588835,18.684613 16.3874152,19.0038371 C16.5161945,19.3233088 16.6925231,19.6019179 16.916401,19.839912 C17.1400312,20.0784014 17.4022952,20.2641408 17.7024501,20.3973778 C18.002605,20.5311102 18.3193525,20.5972334 18.6531881,20.5972334 C18.9862808,20.5972334 19.3007995,20.5311102 19.596249,20.3973778 C19.8916984,20.2641408 20.1490094,20.0784014 20.3684295,19.839912 C20.5873544,19.6019179 20.7609588,19.3233088 20.8897381,19.0038371 C21.0185174,18.684613 21.0826594,18.3440908 21.0826594,17.9817751 C21.0826594,17.6100487 21.0185174,17.264821 20.8897381,16.9453493 C20.7609588,16.6261252 20.5873544,16.3475161 20.3684295,16.1092744 C20.1490094,15.8710326 19.8916984,15.6852932 19.596249,15.5518085 C19.3007995,15.4183238 18.9862808,15.3517053 18.6531881,15.3517053 C18.3193525,15.3517053 18.002605,15.4183238 17.7024501,15.5518085 C17.4022952,15.6852932 17.1400312,15.8710326 16.916401,16.1092744 C16.6925231,16.3475161 16.5161945,16.6261252 16.3874152,16.9453493 C16.2588835,17.264821 16.1944939,17.6100487 16.1944939,17.9817751 L16.1944939,17.9817751 L16.1944939,17.9817751 Z M18.6531881,14.5371761 C19.1103547,14.5371761 19.5368124,14.6275693 19.9323134,14.8083557 C20.3275669,14.989885 20.6730421,15.2375375 20.9684916,15.5518085 C21.2636934,15.8663272 21.4972297,16.2333483 21.6688529,16.6523764 C21.8402285,17.0718997 21.9264116,17.5149501 21.9264116,17.9817751 C21.9264116,18.4488478 21.8402285,18.8894216 21.6688529,19.3039919 C21.4972297,19.7185623 21.2636934,20.0828591 20.9684916,20.3973778 C20.6730421,20.7118965 20.3275669,20.9595491 19.9323134,21.1405831 C19.5368124,21.3218647 19.1103547,21.4122579 18.6531881,21.4122579 C18.1573878,21.4122579 17.6974971,21.3050243 17.2735159,21.0908049 C16.8497825,20.8763378 16.4852379,20.5833649 16.18013,20.2116384 L16.18013,25 L15.3797171,25 L15.3797171,16.752428 L15.3797171,16.4094292 C15.3797171,16.0666781 15.346284,15.7662756 15.2799131,15.5089646 C15.2130469,15.2803814 15.0795622,15.0802781 14.879459,14.9086549 L15.3368732,14.2511375 C15.5275656,14.3848698 15.6845773,14.5441104 15.8084036,14.7300975 C15.9322299,14.9158369 16.0181653,15.1040528 16.0657146,15.2944976 C16.0944423,15.3710222 16.1135115,15.4472992 16.12317,15.5233285 C16.1323331,15.5998531 16.1419916,15.6805878 16.15165,15.7662756 C16.4565103,15.3947968 16.8208071,15.0971185 17.2450359,14.8727453 C17.669017,14.6493627 18.1385662,14.5371761 18.6531881,14.5371761 L18.6531881,14.5371761 L18.6531881,14.5371761 Z M26.1999778,18.2676404 C26.3904226,18.4298528 26.5523874,18.6202976 26.6858721,18.8394701 C26.8191091,19.0586426 26.8859753,19.3062951 26.8859753,19.5826753 C26.8859753,19.820917 26.8431314,20.0591588 26.7574437,20.2974005 C26.6715082,20.4975037 26.5548639,20.6713558 26.407263,20.8189567 C26.2591668,20.9668053 26.0949732,21.0787442 25.9141868,21.1550212 C25.742316,21.2503674 25.5543477,21.3192148 25.3492914,21.3620587 C25.1442351,21.4051502 24.9466084,21.4264484 24.7561636,21.4264484 C24.2133093,21.4264484 23.7222143,21.2932113 23.284117,21.0264895 C23.0840138,20.8930048 22.9123906,20.7169239 22.7692474,20.4975037 C22.6263519,20.2783313 22.555028,20.0210203 22.555028,19.7258185 L22.555028,19.6827269 L23.3698048,19.711207 L23.3698048,19.7258185 C23.3698048,19.8593032 23.4005137,19.973471 23.4626745,20.0685696 C23.5245876,20.1639158 23.6174573,20.259262 23.7412836,20.3546082 C23.8747683,20.4308852 24.0293034,20.4952749 24.2058797,20.5475296 C24.3822083,20.5997842 24.5654712,20.6257878 24.7561636,20.6257878 C24.8990591,20.6257878 25.0419546,20.6094427 25.1848501,20.5760096 C25.3279933,20.5425765 25.4565249,20.5022091 25.5709404,20.4546599 C25.7901129,20.3211751 25.9330084,20.1688688 25.9996269,19.996998 C26.0377654,19.9212163 26.0615401,19.8496447 26.0711985,19.7827786 C26.0806093,19.71616 26.0855624,19.6492939 26.0855624,19.5826753 C26.0855624,19.4016413 26.0139908,19.2347235 25.8710953,19.0824172 C25.7945706,18.9964818 25.6947667,18.910794 25.5709404,18.8251062 C25.4471142,18.7394185 25.3136294,18.6537307 25.1707339,18.5677953 C24.8752845,18.4058305 24.5560604,18.2438658 24.2133093,18.081901 C23.8700629,17.9201839 23.5508388,17.7294915 23.2553893,17.5098237 C23.0646969,17.357765 22.9002556,17.176731 22.7623131,16.9669694 C22.624123,16.7572077 22.555028,16.5145082 22.555028,16.2378803 C22.555028,16.0380247 22.5978719,15.828263 22.6838073,15.6090906 C22.8455244,15.1992256 23.1268576,14.9134346 23.5270641,14.7514699 C23.6984397,14.6563713 23.8819502,14.5892575 24.077348,14.5513666 C24.2724982,14.5134758 24.475078,14.4941589 24.6848397,14.4941589 C24.9324922,14.4941589 25.1848501,14.5253631 25.4421611,14.5870286 C25.6994721,14.649437 25.928303,14.7467645 26.1284062,14.8800015 C26.3379203,15.0134862 26.5164778,15.1898148 26.6643263,15.4089873 C26.8121749,15.6284075 26.8859753,15.8805177 26.8859753,16.1665564 L26.8859753,16.2094003 L26.0855624,16.2094003 L26.0855624,16.1665564 C26.0759039,16.0330717 26.0399943,15.9213804 25.9783288,15.8304919 C25.916168,15.7400988 25.8282514,15.6521821 25.7138359,15.5662467 C25.5803512,15.4899697 25.4230919,15.42558 25.2423055,15.3728301 C25.0610239,15.3210707 24.8752845,15.2945719 24.6848397,15.2945719 C24.3606625,15.2945719 24.0892354,15.3567326 23.8700629,15.4803113 C23.6699596,15.5853159 23.5221111,15.7284591 23.4270125,15.9092454 C23.3886264,16.0330717 23.3698048,16.1430294 23.3698048,16.2378803 C23.3698048,16.3906819 23.4364233,16.5479413 23.569908,16.7096584 C23.7412836,16.8810339 23.9701145,17.0382933 24.2559055,17.1814364 C24.5607658,17.3434012 24.8871718,17.5080901 25.2351236,17.6745126 C25.5828277,17.8411828 25.9045284,18.0390571 26.1999778,18.2676404 L26.1999778,18.2676404 L26.1999778,18.2676404 Z M33.1462349,19.8256224 L33.5033498,20.0542057 C33.1987372,20.4546599 32.8220577,20.7810659 32.3745496,21.0334238 C31.9262986,21.286277 31.4307459,21.4123322 30.8881392,21.4123322 C30.4302297,21.4123322 30.0040197,21.321939 29.6085186,21.1406574 C29.2132652,20.9596234 28.8677899,20.7119708 28.5720928,20.3974521 C28.2766433,20.0829334 28.0455835,19.7183889 27.8789134,19.3040662 C27.7124909,18.8894959 27.6292796,18.4486744 27.6292796,17.9818494 C27.6292796,17.5150244 27.7124909,17.071974 27.8789134,16.652203 C28.0455835,16.2334226 28.2766433,15.8664015 28.5720928,15.5518828 C28.8677899,15.2376118 29.2132652,14.9899593 29.6085186,14.80843 C30.0040197,14.6276436 30.4302297,14.5370028 30.8881392,14.5370028 C31.4116766,14.5370028 31.8975709,14.6563713 32.3458219,14.8943654 C32.79333,15.1326071 33.1650565,15.4518312 33.4607536,15.8520377 L33.1316234,16.0949848 L32.8176,16.3525434 C32.5696998,16.0474355 32.2839088,15.8044884 31.9597317,15.6234544 C31.6355545,15.4426681 31.2784396,15.3517796 30.8881392,15.3517796 C30.5540559,15.3517796 30.237556,15.4183981 29.9371535,15.5518828 C29.6372463,15.6853675 29.3772111,15.8711069 29.1580386,16.1093487 C28.9391138,16.3475904 28.7655094,16.6261995 28.6364824,16.9454236 C28.5079508,17.2648953 28.4435611,17.610123 28.4435611,17.9818494 C28.4435611,18.344165 28.5079508,18.6846873 28.6364824,19.0039114 C28.7655094,19.3233831 28.9391138,19.6019922 29.1580386,19.8399863 C29.3772111,20.078228 29.6372463,20.2639674 29.9371535,20.3974521 C30.237556,20.5311845 30.5540559,20.5973077 30.8881392,20.5973077 C31.2784396,20.5973077 31.6407552,20.504438 31.9743431,20.3186986 C32.3074358,20.1329592 32.5887691,19.8877832 32.8176,19.5826753 L33.1462349,19.8256224 L33.1462349,19.8256224 L33.1462349,19.8256224 Z M37.4627193,20.5973572 C37.7963073,20.5973572 38.1130549,20.5309864 38.4134574,20.397254 C38.7136122,20.2640169 38.9751333,20.0782776 39.1995065,19.8397882 C39.4231367,19.6017941 39.599713,19.323185 39.727997,19.0037132 C39.8567763,18.6844891 39.9214136,18.3439669 39.9214136,17.9814036 C39.9214136,17.6099248 39.8567763,17.2649449 39.727997,16.9454731 C39.599713,16.626249 39.4231367,16.3476399 39.1995065,16.1093982 C38.9751333,15.8711565 38.7136122,15.6854171 38.4134574,15.5519324 C38.1130549,15.4184477 37.7963073,15.3515815 37.4627193,15.3515815 C37.1288837,15.3515815 36.8148603,15.4184477 36.5191632,15.5519324 C36.2237138,15.6854171 35.9664028,15.8711565 35.747478,16.1093982 C35.5280578,16.3476399 35.3522245,16.626249 35.2184922,16.9454731 C35.0852551,17.2649449 35.0134359,17.6099248 35.0040251,17.9814036 C35.0134359,18.3439669 35.0852551,18.6844891 35.2184922,19.0037132 C35.3522245,19.323185 35.5280578,19.6017941 35.747478,19.8397882 C35.9664028,20.0782776 36.2237138,20.2640169 36.5191632,20.397254 C36.8148603,20.5309864 37.1288837,20.5973572 37.4627193,20.5973572 L37.4627193,20.5973572 L37.4627193,20.5973572 Z M37.4627193,14.5370523 C37.9203812,14.5370523 38.3463435,14.6276931 38.7418446,14.8084795 C39.1375934,14.9897611 39.4825733,15.2374137 39.7785181,15.5519324 C40.0734723,15.8662034 40.3070086,16.2334721 40.4788794,16.6522525 C40.6500073,17.0720236 40.7361904,17.5150739 40.7361904,17.9814036 C40.7361904,18.4487239 40.6500073,18.8895454 40.4788794,19.3038681 C40.3070086,19.7184384 40.0734723,20.082983 39.7785181,20.397254 C39.4825733,20.7120204 39.1375934,20.9596729 38.7418446,21.1404592 C38.3463435,21.3219885 37.9203812,21.4123817 37.4627193,21.4123817 C37.0050575,21.4123817 36.5766186,21.3219885 36.1766598,21.1404592 C35.775958,20.9596729 35.4280062,20.7120204 35.133052,20.397254 C34.8371073,20.082983 34.6065428,19.7184384 34.4398726,19.3038681 C34.2727072,18.8895454 34.1894959,18.4487239 34.1894959,17.9814036 C34.1894959,17.5150739 34.2727072,17.0720236 34.4398726,16.6522525 C34.6065428,16.2334721 34.8371073,15.8662034 35.133052,15.5519324 C35.4280062,15.2374137 35.775958,14.9897611 36.1766598,14.8084795 C36.5766186,14.6276931 37.0050575,14.5370523 37.4627193,14.5370523 L37.4627193,14.5370523 L37.4627193,14.5370523 Z M43.2799038,13.8222281 L45.2380923,13.8222281 L45.2380923,14.622641 L43.2799038,14.622641 L43.2799038,19.211147 L43.2799038,19.5541458 C43.2799038,19.7161105 43.2848568,19.8733699 43.2947629,20.0256762 C43.3039261,20.1782301 43.3274531,20.3211256 43.3660869,20.4546103 C43.40373,20.5784366 43.4495458,20.6883943 43.5018004,20.7832452 C43.5538075,20.8785915 43.6422194,20.9645269 43.7662933,21.0403086 L43.323243,21.7268013 C43.1132336,21.5836582 42.9487924,21.4219411 42.8301668,21.2406594 C42.7105506,21.0598731 42.6228816,20.8741337 42.5651786,20.6831936 C42.517877,20.4929965 42.4893969,20.2998275 42.4799861,20.1044297 C42.4698324,19.9090318 42.4656223,19.7257689 42.4656223,19.5541458 L42.4656223,19.211147 L42.4656223,14.622641 L41.2077951,14.622641 L41.2077951,13.8222281 L42.4656223,13.8222281 L42.4656223,11.6785478 L43.2799038,11.6785478 L43.2799038,13.8222281 L43.2799038,13.8222281 L43.2799038,13.8222281 Z M50.0835873,19.8256224 L50.4407022,20.0542057 C50.135842,20.4546599 49.7594101,20.7810659 49.311902,21.0334238 C48.863651,21.286277 48.3680983,21.4123322 47.8254916,21.4123322 C47.3675821,21.4123322 46.9413721,21.321939 46.5461186,21.1406574 C46.1503699,20.9596234 45.8051423,20.7119708 45.5094452,20.3974521 C45.2142434,20.0829334 44.9829359,19.7183889 44.8162657,19.3040662 C44.6498433,18.8894959 44.566632,18.4486744 44.566632,17.9818494 C44.566632,17.5150244 44.6498433,17.071974 44.8162657,16.652203 C44.9829359,16.2334226 45.2142434,15.8664015 45.5094452,15.5518828 C45.8051423,15.2376118 46.1503699,14.9899593 46.5461186,14.80843 C46.9413721,14.6276436 47.3675821,14.5370028 47.8254916,14.5370028 C48.349029,14.5370028 48.8349233,14.6563713 49.283422,14.8943654 C49.7306824,15.1326071 50.1024089,15.4518312 50.3983537,15.8520377 L50.0689758,16.0949848 L49.7549524,16.3525434 C49.5070522,16.0474355 49.2212612,15.8044884 48.897084,15.6234544 C48.5729069,15.4426681 48.215792,15.3517796 47.8254916,15.3517796 C47.4914083,15.3517796 47.1749084,15.4183981 46.8745059,15.5518828 C46.574351,15.6853675 46.3145635,15.8711069 46.095391,16.1093487 C45.8767139,16.3475904 45.7028618,16.6261995 45.5738348,16.9454236 C45.4453032,17.2648953 45.3811612,17.610123 45.3811612,17.9818494 C45.3811612,18.344165 45.4453032,18.6846873 45.5738348,19.0039114 C45.7028618,19.3233831 45.8767139,19.6019922 46.095391,19.8399863 C46.3145635,20.078228 46.574351,20.2639674 46.8745059,20.3974521 C47.1749084,20.5311845 47.4914083,20.5973077 47.8254916,20.5973077 C48.215792,20.5973077 48.5781076,20.504438 48.9116955,20.3186986 C49.2447882,20.1329592 49.5261215,19.8877832 49.7549524,19.5826753 L50.0835873,19.8256224 L50.0835873,19.8256224 L50.0835873,19.8256224 Z M52.5562244,11.3210366 C52.5277444,11.4545213 52.5086751,11.6045988 52.4992643,11.7712689 C52.4896059,11.9381867 52.4849005,12.0979226 52.4849005,12.2502289 L52.4849005,12.5360199 L52.4849005,13.1648097 C52.6369591,13.1363296 52.7659861,13.1028965 52.8709908,13.0647581 C53.1283017,12.9790703 53.3469789,12.8646548 53.5285082,12.7217593 C53.7087992,12.5788638 53.8663062,12.3928768 53.999791,12.1642935 C54.0666571,12.0025764 54.0998426,11.8356586 54.0998426,11.6640354 C54.0998426,11.5307983 54.0785445,11.3975613 54.0359482,11.2640766 C53.9928567,11.1303442 53.9282194,11.011471 53.8425316,10.9064663 C53.7665023,10.8111201 53.6761091,10.7378149 53.5713521,10.6850649 C53.4663474,10.6328103 53.3707535,10.6063114 53.2850658,10.6063114 L53.2711972,10.6063114 C53.2134942,10.6063114 53.1540576,10.6157222 53.0921445,10.6350391 C53.0299837,10.6541084 52.9613839,10.6872938 52.8848593,10.7350908 C52.7513746,10.8207785 52.6421598,11.016424 52.5562244,11.3210366 L52.5562244,11.3210366 L52.5562244,11.3210366 Z M57.7306762,20.368774 C57.7967995,20.6070157 57.9354849,20.8024135 58.1447513,20.9547198 L57.6878324,21.6266011 C57.4966446,21.4931164 57.3418618,21.3336282 57.2232362,21.1478888 C57.10362,20.9621494 57.0107504,20.7689804 56.9446271,20.5688772 C56.8963349,20.3781848 56.8678548,20.1924454 56.8584441,20.011659 C56.8487856,19.830625 56.8443279,19.6540488 56.8443279,19.4824256 L56.8443279,19.1253106 L56.8443279,17.9818989 C56.8443279,17.6007617 56.7843959,17.250581 56.6657704,16.9311093 C56.5461542,16.6121328 56.3817129,16.3332761 56.1726942,16.0950343 C55.7625816,15.5997293 55.2625712,15.3515815 54.6716723,15.3515815 C54.0711149,15.3515815 53.5659037,15.5997293 53.1567818,16.0950343 C52.9561832,16.3238653 52.7969426,16.597769 52.6775741,16.9169931 C52.5587009,17.2362172 52.4940636,17.5769871 52.4849005,17.939055 L52.4849005,21.383654 L51.6844875,21.383654 L51.6844875,17.9818989 L51.6844875,17.939055 L51.6844875,14.0796381 C51.5987997,14.0892966 51.5150932,14.094002 51.4343585,14.094002 L51.1696179,14.094002 L51.1696179,13.2792251 L51.4343585,13.2792251 C51.5150932,13.2792251 51.5987997,13.2747674 51.6844875,13.265109 L51.6844875,12.5360199 L51.6844875,12.2502289 C51.6844875,12.0882642 51.6889453,11.9121832 51.6986037,11.7212431 C51.7077668,11.5307983 51.7320368,11.3354005 51.7699276,11.1352972 C51.8179722,10.9446048 51.8937539,10.7516835 51.9987586,10.5562856 C52.1037632,10.3611354 52.2560695,10.1969418 52.4564204,10.0632095 C52.5802467,9.96811089 52.7137314,9.90149236 52.8566269,9.86310622 C52.9992748,9.82496773 53.1374649,9.80614614 53.2711972,9.80614614 C53.5188498,9.80614614 53.74248,9.86310622 53.9428309,9.97727403 C54.1426865,10.0919372 54.3093566,10.234585 54.4428413,10.4064559 C54.5857368,10.5775838 54.7001523,10.7705051 54.7860877,10.9854675 C54.8720232,11.1996869 54.9146194,11.4260413 54.9146194,11.6640354 C54.9146194,11.8071785 54.897779,11.9523029 54.8643459,12.1001515 C54.8314081,12.2477524 54.7766769,12.3928768 54.7001523,12.5360199 C54.5290244,12.8696079 54.3048989,13.1412827 54.028271,13.3505491 C53.7518908,13.5605584 53.4517359,13.7178178 53.1283017,13.8223271 C53.0327079,13.8604656 52.9301797,13.8916698 52.8204696,13.9154445 C52.7110072,13.9392191 52.5993159,13.9654703 52.4849005,13.9939503 L52.4849005,15.6088924 C52.5131329,15.5997293 52.5277444,15.5853655 52.5277444,15.5662962 C52.8038769,15.2611883 53.1228534,15.0135358 53.4854167,14.823091 C53.8474847,14.6323985 54.2432334,14.5370523 54.6716723,14.5370523 C55.0907003,14.5370523 55.4837249,14.6323985 55.8509936,14.823091 C56.2175193,15.0135358 56.5300568,15.2611883 56.7871201,15.5662962 C57.0632527,15.8805673 57.2777198,16.2451118 57.4305214,16.6596821 C57.5828277,17.0740048 57.6591047,17.5150739 57.6591047,17.9818989 L57.6591047,19.1253106 L57.6591047,19.4824256 C57.6591047,19.644638 57.6635624,19.8018973 57.6732209,19.9542036 C57.6826317,20.1070052 57.7017009,20.2451954 57.7306762,20.368774 L57.7306762,20.368774 Z" id="hopscotch"></path>
            </g>
        </g>
    </g>
</svg>