<?xml version="1.0" encoding="UTF-8" standalone="no"?>
<svg width="24px" height="24px" viewBox="0 0 24 24" version="1.1" xmlns="http://www.w3.org/2000/svg" xmlns:xlink="http://www.w3.org/1999/xlink">
    <!-- Generator: sketchtool 3.7.1 (28215) - http://www.bohemiancoding.com/sketch -->
    <title>F4106B4D-A52E-432E-BC80-896916238566</title>
    <desc>Created with sketchtool.</desc>
    <defs></defs>
    <g id="Page-1" stroke="none" stroke-width="1" fill="none" fill-rule="evenodd">
        <g id="footer_icons" transform="translate(-204.000000, -117.000000)">
            <g id="hs-pink-icon" transform="translate(204.000000, 117.000000)">
                <rect id="Rectangle-2796" x="0" y="0" width="24" height="24"></rect>
                <rect id="bg" fill="#ED54A4" x="2" y="2" width="20" height="20" rx="2"></rect>
                <path d="M10.5773254,10.2260094 C10.5782157,10.224662 10.5801777,10.2217088 10.583191,10.2171985 C10.5883434,10.2094865 10.5945065,10.2003147 10.6016599,10.189732 C10.6222592,10.1592573 10.6465762,10.1237222 10.6744473,10.083517 C10.7543584,9.96824229 10.8465365,9.8389528 10.9496677,9.69877713 L11.0786955,9.52340273 L10.7279466,9.26534713 L10.5989189,9.44072153 C10.4932885,9.58429414 10.3987479,9.71689722 10.3165764,9.83543275 C10.2877186,9.87706119 10.2624383,9.91400407 10.2408961,9.94587363 C10.2332999,9.95711134 10.226699,9.96693469 10.2211134,9.97529519 C10.2176839,9.98042843 10.2153101,9.98400148 10.2140123,9.98596582 L10.0939904,10.1676224 L10.4573036,10.407666 L10.5773254,10.2260094 L10.5773254,10.2260094 Z M11.5512935,8.92387308 C11.6896683,8.75507524 11.8299171,8.59036438 11.971461,8.4310793 L12.1160855,8.26832757 L11.790582,7.97907869 L11.6459576,8.14183042 C11.5004494,8.3055767 11.3564678,8.47467136 11.2145348,8.64780968 L11.0765031,8.81618902 L11.4132618,9.09225243 L11.5512935,8.92387308 L11.5512935,8.92387308 Z M12.6457466,7.72655458 C12.8070027,7.57166642 12.9661872,7.42904747 13.12273,7.29985309 L13.290653,7.1612666 L13.01348,6.82542057 L12.845557,6.96400706 C12.6802315,7.1004498 12.5129549,7.25031881 12.3440997,7.41250595 L12.1870754,7.56332942 L12.4887223,7.87737805 L12.6457466,7.72655458 L12.6457466,7.72655458 Z M13.9032465,6.75943556 C14.0991194,6.65304494 14.2851748,6.57691773 14.4599125,6.53247599 L14.6709202,6.47880954 L14.5635873,6.05679406 L14.3525796,6.11046051 C14.1404706,6.16440703 13.9213484,6.25406402 13.6954065,6.37678695 L13.5040822,6.48070694 L13.7119222,6.86335555 L13.9032465,6.75943556 L13.9032465,6.75943556 Z M15.2612407,6.60210875 C15.4065255,6.68564912 15.5341474,6.81538441 15.6446123,6.99021287 L15.7609114,7.17427497 L16.1290357,6.94167665 L16.0127365,6.75761454 C15.8664588,6.52610664 15.6891341,6.34584542 15.4783035,6.22461548 L15.2895568,6.11608409 L15.0724941,6.49357736 L15.2612407,6.60210875 L15.2612407,6.60210875 Z M15.973594,7.84559835 C16.0182091,8.03872823 16.0530312,8.24730804 16.0786988,8.46869411 L16.1037741,8.68497076 L16.5363273,8.63482025 L16.5112521,8.4185436 C16.4838042,8.18180293 16.446341,7.95740276 16.397871,7.74758569 L16.3488646,7.53544721 L15.9245877,7.63345987 L15.973594,7.84559835 L15.973594,7.84559835 Z M16.1334031,9.43543585 C16.1345609,9.66202153 16.128476,9.87869008 16.1174219,10.0783967 L16.1053887,10.2957893 L16.540174,10.3198556 L16.5522071,10.102463 C16.5637246,9.89438641 16.5700532,9.66903711 16.5688483,9.43321095 L16.5677358,9.21548838 L16.1322907,9.21771328 L16.1334031,9.43543585 L16.1334031,9.43543585 Z" id="Line" stroke="#FFFFFF" stroke-width="0.2" fill="#FFFFFF"></path>
                <path d="M17.8160636,15.0080738 C17.9495253,15.2306944 18.0118075,15.4711247 18.0118075,15.7471743 C18.0118075,15.9876046 17.9673202,16.21913 17.8872432,16.4595603 C17.7982687,16.6554665 17.6914993,16.8246581 17.5402426,16.9760402 C17.3978834,17.1185174 17.2377293,17.2342801 17.0597804,17.3144235 C16.8907288,17.4034718 16.7038824,17.4747104 16.5081385,17.5103297 C16.3034971,17.5548538 16.1166507,17.5726635 15.9298042,17.5726635 C15.3959572,17.5726635 14.9154949,17.4479959 14.4884173,17.1808512 C14.2926734,17.0472788 14.1236219,16.8691823 13.9812627,16.6554665 C13.8389035,16.4417507 13.7766213,16.1835107 13.7766213,15.8896515 L13.7766213,15.8540322 L14.5684944,15.8718418 C14.5684944,16.0232239 14.6040842,16.1389866 14.6663663,16.2280349 C14.719751,16.3259879 14.8087255,16.4150362 14.9332898,16.5129893 C15.0667516,16.5931327 15.2180082,16.6554665 15.3870598,16.7088954 C15.5650088,16.7623244 15.7429578,16.7890388 15.9298042,16.7890388 C16.063266,16.7890388 16.2056252,16.7712292 16.3479844,16.7356099 C16.4814461,16.6999906 16.6149079,16.6643713 16.7216773,16.6198472 C16.9352161,16.47737 17.0775753,16.3348928 17.1398574,16.1567963 C17.1843447,16.0855576 17.2021395,16.014319 17.211037,15.9519853 C17.2199344,15.8807467 17.2288319,15.8184129 17.2288319,15.7471743 C17.2288319,15.5690778 17.1576523,15.4087909 17.0152931,15.2574089 C16.9441135,15.1683607 16.8462416,15.0882172 16.7216773,14.999169 C16.6060104,14.9101207 16.4725487,14.8299773 16.3301895,14.740929 C16.0454711,14.5806422 15.7340603,14.4203553 15.3959572,14.2600685 C15.0578541,14.0997816 14.7464434,13.9127803 14.461725,13.6990645 C14.2748785,13.5387776 14.1147244,13.3606811 13.9812627,13.1558701 C13.8389035,12.9510592 13.7766213,12.7106289 13.7766213,12.4345793 C13.7766213,12.2386732 13.8122111,12.0249573 13.9011856,11.8112415 C14.0613397,11.4016196 14.3371607,11.12557 14.7286485,10.9563783 C14.8888026,10.8673301 15.0667516,10.7960915 15.2624955,10.7604722 C15.4582394,10.7248529 15.6539833,10.7070432 15.8586246,10.7070432 C16.0988558,10.7070432 16.3479844,10.7337577 16.597113,10.7960915 C16.8462416,10.8584252 17.0686778,10.9563783 17.2644217,11.0899507 C17.4779605,11.2235231 17.647012,11.3927148 17.7893712,11.6064306 C17.9406279,11.8290512 18.0118075,12.0783863 18.0118075,12.3633407 L18.0118075,12.4078648 L17.2288319,12.4078648 L17.2288319,12.3633407 C17.2199344,12.2297683 17.1843447,12.1229104 17.1220625,12.0249573 C17.0597804,11.9448139 16.9708059,11.8557657 16.8640365,11.7667174 C16.7305747,11.6954788 16.5793181,11.6242402 16.4013691,11.5797161 C16.2234201,11.5262871 16.0454711,11.4995727 15.8586246,11.4995727 C15.5383164,11.4995727 15.2713929,11.5619064 15.0578541,11.686574 C14.8621102,11.7845271 14.719751,11.9270043 14.6307765,12.1051008 C14.5862893,12.2297683 14.5684944,12.3366262 14.5684944,12.4345793 C14.5684944,12.5859613 14.639674,12.7373434 14.7642383,12.8976302 C14.9332898,13.0757267 15.1557261,13.2271088 15.4404445,13.369586 C15.7340603,13.5298728 16.0543685,13.6901597 16.3924716,13.8593513 C16.7394722,14.0196382 17.0508829,14.2244492 17.3356013,14.4470698 C17.5224477,14.6073567 17.6826018,14.794358 17.8160636,15.0080738 Z" id="Shape" stroke="#FFFFFF" stroke-width="0.2" fill="#FFFFFF"></path>
                <path d="M12.3881464,16.3783245 C12.459326,16.6098499 12.5927878,16.8057561 12.7974291,16.9571381 L12.3525566,17.625 C12.1657102,17.4914276 12.0144535,17.3311408 11.8898892,17.1441394 C11.7742224,16.9660429 11.6852479,16.7701368 11.6229657,16.5742306 C11.5784785,16.3872293 11.5428887,16.200228 11.5428887,16.0221315 C11.5250938,15.844035 11.5250938,15.6659384 11.5250938,15.4967468 L11.5250938,15.1405538 L11.5250938,14.009641 C11.5250938,13.6356383 11.4628116,13.2794453 11.3471448,12.9677764 C11.2314779,12.6472027 11.0713238,12.3711531 10.8666825,12.1396277 C10.4662972,11.6498623 9.9769375,11.4005272 9.39860325,11.4005272 C8.81137155,11.4005272 8.31311435,11.6498623 7.91272911,12.1396277 C7.71698521,12.3711531 7.56572856,12.6382979 7.45006171,12.9499668 C7.33439486,13.2705405 7.26321526,13.6089238 7.26321526,13.9651168 L7.26321526,17.3845697 L6.48023966,17.3845697 L6.48023966,14.009641 L6.48023966,13.9651168 L6.48023966,10.1449468 C6.39126516,10.1538516 6.31118811,10.1538516 6.23111106,10.1538516 L5.97308501,10.1538516 L5.97308501,9.34351254 L6.23111106,9.34351254 C6.31118811,9.34351254 6.39126516,9.34351254 6.48023966,9.33460771 L6.48023966,8.61331687 L6.48023966,8.32836246 C6.48023966,8.16807561 6.48023966,7.9899791 6.48913711,7.80297777 C6.49803456,7.61597644 6.52472691,7.42007029 6.56031671,7.22416413 C6.60480396,7.02825798 6.68488101,6.84125665 6.78275296,6.64535049 C6.88952236,6.45834916 7.03188156,6.28915748 7.22762546,6.15558511 C7.35218976,6.06653685 7.48565151,5.99529825 7.61911326,5.95967895 C7.76147246,5.92405965 7.89493421,5.90625 8.02839596,5.90625 C8.2686271,5.90625 8.49106335,5.95967895 8.68680725,6.07544168 C8.88255115,6.19120441 9.04270525,6.32477679 9.176167,6.50287329 C9.3185262,6.67206497 9.4252956,6.8590663 9.50537265,7.0727821 C9.59434715,7.28649791 9.6388344,7.50911854 9.6388344,7.74954882 C9.6388344,7.89202603 9.6210395,8.03450323 9.5854497,8.17698043 C9.55875735,8.31945764 9.50537265,8.47083967 9.4252956,8.61331687 C9.25624405,8.9427954 9.0338078,9.20994016 8.7668843,9.41475114 C8.4999608,9.62846695 8.20634496,9.77984897 7.88603676,9.88670688 C7.79706226,9.92232618 7.69029286,9.95794548 7.58352346,9.97575513 C7.47675406,10.0024696 7.36998466,10.0291841 7.26321526,10.0558986 L7.26321526,11.6587671 C7.28990761,11.6498623 7.29880506,11.6320526 7.29880506,11.614243 C7.57462601,11.3114789 7.87713931,11.0710486 8.2330373,10.8751425 C8.5889353,10.6881411 8.9804231,10.5990929 9.39860325,10.5990929 C9.80788595,10.5990929 10.1904763,10.6881411 10.5552717,10.8751425 C10.9111697,11.0710486 11.213683,11.3114789 11.4628116,11.614243 C11.7386326,11.9259119 11.9432739,12.2910097 12.0945306,12.7006316 C12.2457872,13.1102536 12.3169668,13.54659 12.3169668,14.009641 L12.3169668,15.1405538 L12.3169668,15.4967468 C12.3169668,15.6570336 12.3258643,15.8173205 12.3347617,15.9687025 C12.3436592,16.1200845 12.3614541,16.2536569 12.3881464,16.3783245 L12.3881464,16.3783245 Z M7.32549741,7.41116546 L7.32549741,7.41116546 C7.29880506,7.53583302 7.28101016,7.68721505 7.27211271,7.85640672 C7.26321526,8.01669358 7.26321526,8.17698043 7.26321526,8.32836246 L7.26321526,8.61331687 L7.26321526,9.23665464 C7.40557446,9.20994016 7.53013876,9.17432086 7.63690816,9.13870156 C7.88603676,9.04965331 8.09957556,8.93389058 8.27752455,8.8003182 C8.45547355,8.64893617 8.6067302,8.47083967 8.74019195,8.23931421 C8.8024741,8.07902736 8.8380639,7.9187405 8.8380639,7.74954882 C8.8380639,7.61597644 8.820269,7.48240407 8.77578175,7.34883169 C8.7312945,7.21525931 8.66901235,7.09949658 8.5889353,6.99263868 C8.50885825,6.90359043 8.41988375,6.83235182 8.3220118,6.77892287 C8.22413985,6.72549392 8.12626791,6.69877945 8.03729341,6.69877945 L8.02839596,6.69877945 C7.97501126,6.69877945 7.91272911,6.70768427 7.85044696,6.72549392 C7.78816481,6.74330357 7.72588266,6.77892287 7.64580561,6.823447 C7.52124131,6.91249525 7.41447191,7.10840141 7.32549741,7.41116546 L7.32549741,7.41116546 Z" id="Shape-Copy" stroke="#FFFFFF" stroke-width="0.2" fill="#FFFFFF"></path>
            </g>
        </g>
    </g>
</svg>