<svg width="24px" height="24px" viewBox="0 0 24 24" version="1.1" xmlns="http://www.w3.org/2000/svg" xmlns:xlink="http://www.w3.org/1999/xlink">
    <g id="Page-1" stroke="none" stroke-width="1" fill="none" fill-rule="evenodd">
        <g id="footer_icons" transform="translate(-72.000000, -117.000000)">
            <g id="info-pink-icon" transform="translate(72.000000, 117.000000)">
                <path d="M12.1666667,2 C7.10416667,2 3,5.73083333 3,10.3333333 C3,14.9358333 7.10416667,18.6666667 12.1666667,18.6666667 L12.1666667,22 C12.1666667,22 21.3333333,17.5325 21.3333333,10.3333333 C21.3333333,5.73083333 17.2291667,2 12.1666667,2 L12.1666667,2 Z M13.1866667,14.605 L11.1475,14.605 L11.1475,8.79916667 L13.1866667,8.79916667 L13.1866667,14.605 L13.1866667,14.605 Z M12.1708333,7.16583333 C11.0675,7.16583333 11.0608333,6.35083333 11.0608333,6.16333333 C11.0608333,5.97166667 11.06,5.1675 12.1708333,5.1675 C13.2816667,5.1675 13.28,5.97166667 13.28,6.16333333 C13.2791667,6.35083333 13.2733333,7.16583333 12.1708333,7.16583333 L12.1708333,7.16583333 Z" id="Shape" fill="#ED54A4"></path>
            </g>
        </g>
    </g>
</svg>