<svg width="24px" height="24px" viewBox="0 0 24 24" version="1.1" xmlns="http://www.w3.org/2000/svg" xmlns:xlink="http://www.w3.org/1999/xlink">
    <g id="Page-1" stroke="none" stroke-width="1" fill="none" fill-rule="evenodd">
        <g id="footer_icons" transform="translate(-666.000000, -57.000000)">
            <g id="instagram-icon" transform="translate(666.000000, 57.000000)">
                <path d="M7.04545455,5 C5.92388423,5 5,5.92388423 5,7.04545455 L5,17.9545455 C5,19.0761159 5.92388423,20 7.04545455,20 L17.9545455,20 C19.0761159,20 20,19.0761159 20,17.9545455 L20,7.04545455 C20,5.92388423 19.0761159,5 17.9545455,5 L7.04545455,5 L7.04545455,5 Z M15.9090909,7.04545455 L17.9545455,7.04545455 L17.9545455,9.09090909 L15.9090909,9.09090909 L15.9090909,7.04545455 L15.9090909,7.04545455 Z M12.5,9.77272727 C14.0143073,9.77272727 15.2272727,10.9856927 15.2272727,12.5 C15.2272727,14.0143073 14.0143073,15.2272727 12.5,15.2272727 C10.9856927,15.2272727 9.77272727,14.0143073 9.77272727,12.5 C9.77272727,10.9856927 10.9856927,9.77272727 12.5,9.77272727 L12.5,9.77272727 Z M6.36363636,11.1363636 L8.64346591,11.1363636 C8.49245068,11.5620991 8.40909091,12.0239498 8.40909091,12.5 C8.40909091,14.7512709 10.2487291,16.5909091 12.5,16.5909091 C14.7512709,16.5909091 16.5909091,14.7512709 16.5909091,12.5 C16.5909091,12.0239498 16.5075493,11.5620991 16.3565341,11.1363636 L18.6363636,11.1363636 L18.6363636,17.9545455 C18.6363636,18.3397932 18.3397932,18.6363636 17.9545455,18.6363636 L7.04545455,18.6363636 C6.66020668,18.6363636 6.36363636,18.3397932 6.36363636,17.9545455 L6.36363636,11.1363636 L6.36363636,11.1363636 Z" id="Shape" fill="#A4A4A4"></path>
            </g>
        </g>
    </g>
</svg>