<svg width="24px" height="24px" viewBox="0 0 24 24" version="1.1" xmlns="http://www.w3.org/2000/svg" xmlns:xlink="http://www.w3.org/1999/xlink">
    <g id="Page-1" stroke="none" stroke-width="1" fill="none" fill-rule="evenodd">
        <g id="footer_icons" transform="translate(-732.000000, -57.000000)" fill="#A4A4A4">
            <g id="pinterest-icon" transform="translate(732.000000, 57.000000)">
                <path d="M11.9458711,4.5 C7.99314844,4.5 6,7.42779661 6,9.86923729 C6,11.3475182 6.54179297,12.662724 7.70374219,13.1528935 C7.89421875,13.2333414 8.06497266,13.1556901 8.12020312,12.9377361 C8.15862891,12.7869007 8.24961328,12.4063438 8.29018359,12.2479903 C8.34587109,12.0323971 8.32428516,11.9567797 8.17054687,11.7688983 C7.83550781,11.3605932 7.62137109,10.8320339 7.62137109,10.0833777 C7.62137109,7.91124697 9.19447266,5.96680387 11.7176016,5.96680387 C13.9517461,5.96680387 15.1792617,7.37713075 15.1792617,9.26062954 C15.1792617,11.738862 14.1176133,13.8305085 12.5416289,13.8305085 C11.6711953,13.8305085 11.0197148,13.0868644 11.2285078,12.1748789 C11.4786445,11.0859806 11.9630625,9.9109322 11.9630625,9.12493947 C11.9630625,8.42142857 11.5975078,7.83461259 10.8409453,7.83461259 C9.95121094,7.83461259 9.23644922,8.78553269 9.23644922,10.0593341 C9.23644922,10.8706053 9.50184375,11.4193584 9.50184375,11.4193584 C9.50184375,11.4193584 8.59136719,15.4049637 8.43172266,16.1029177 C8.11380469,17.4929782 8.383875,19.1970944 8.40683203,19.3691768 C8.42019141,19.4711985 8.54707031,19.4954237 8.60444531,19.4183535 C8.68653516,19.3076877 9.74628516,17.9561259 10.1065312,16.6057264 C10.2084844,16.2233535 10.6918125,14.2431719 10.6918125,14.2431719 C10.980832,14.8127724 11.8256367,15.3144915 12.7240195,15.3144915 C15.3985312,15.3144915 17.2130508,12.7955811 17.2130508,9.42392252 C17.2130156,6.87435835 15.1227656,4.5 11.9458711,4.5" id="icon-pinterest"></path>
            </g>
        </g>
    </g>
</svg>