<svg width="24px" height="24px" viewBox="0 0 24 24" version="1.1" xmlns="http://www.w3.org/2000/svg" xmlns:xlink="http://www.w3.org/1999/xlink">
    <g id="Page-1" stroke="none" stroke-width="1" fill="none" fill-rule="evenodd">
        <g id="footer_icons" transform="translate(-402.000000, -57.000000)">
            <g id="play-icon" transform="translate(402.000000, 57.000000)">
                <path d="M6.46710036,20 C6.18416316,19.9233721 6,19.6409318 6,19.2038683 L6,4.77704443 C6,4.37225701 6.15593364,4.09925739 6.4031186,4 L6.4031186,4 L13.4542535,12.039864 L6.46710036,20 L6.46710036,20 Z M7.43773975,19.6937648 L15.9250809,14.8571574 L13.8578683,12.5000747 L7.43773975,19.6937648 L7.43773975,19.6937648 Z M15.9835254,9.15838294 L7.61446458,4.38807047 L13.8701059,11.5661028 L15.9835254,9.15838294 L15.9835254,9.15838294 Z M16.5513594,9.48204477 L19.8298967,11.3507905 C20.4506484,11.7046152 20.4563252,12.2749766 19.8298967,12.631954 L16.4684156,14.547532 L14.275875,12.0317024 L16.5513594,9.48204477 L16.5513594,9.48204477 Z" id="Google-Play-Vector-2" fill="#A4A4A4"></path>
            </g>
        </g>
    </g>
</svg>