<?xml version="1.0" encoding="UTF-8" standalone="no"?>
<svg width="17px" height="18px" viewBox="0 0 17 18" version="1.1" xmlns="http://www.w3.org/2000/svg" xmlns:xlink="http://www.w3.org/1999/xlink">
    <!-- Generator: sketchtool 3.7.1 (28215) - http://www.bohemiancoding.com/sketch -->
    <title>C724091A-AAB5-4CF8-8F7E-7C006FDA529D</title>
    <desc>Created with sketchtool.</desc>
    <defs>
        <path d="M0,2.00727414 C0,0.898687243 0.897435897,0 1.99138341,0 L7.73321298,0 C8.83302367,0 9.72681109,0.88731863 9.72958958,2.00052348 L9.74185256,6.91368988 C9.74461022,8.01854849 8.84230976,8.91421336 7.74195587,8.91421336 L3.24153213,8.91421336 L0,12.1557455 L0,2.00727414 Z" id="path-1"></path>
        <mask id="mask-2" maskContentUnits="userSpaceOnUse" maskUnits="objectBoundingBox" x="0" y="0" width="9.74185886" height="12.1557455" fill="white">
            <use xlink:href="#path-1"></use>
        </mask>
    </defs>
    <g id="Page-1" stroke="none" stroke-width="1" fill="none" fill-rule="evenodd">
        <g id="footer_icons" transform="translate(-469.000000, -60.000000)">
            <g id="sms-icon" transform="translate(480.000000, 69.000000) scale(-1, 1) translate(-480.000000, -69.000000) translate(468.000000, 57.000000)">
                <rect id="Rectangle-2796" x="0" y="0" width="24" height="24"></rect>
                <g id="phone" transform="translate(6.000000, 6.292181)" fill="#A4A4A4">
                    <path d="M10.575539,14.4855967 L11.8518519,14.4855967 L11.8518519,1.7558299 C11.8518519,0.790123457 11.0617284,0 10.0960219,0 L1.7558299,0 C0.790123457,0 0,0.790123457 0,1.7558299 L0,14.4855967 L1.31687243,14.4855967 L1.31687243,5.69705348 C1.31687243,4.77972016 2.15456131,4.6090535 2.41909464,4.6090535 L9.47331676,4.6090535 C9.73785009,4.6090535 10.575539,4.77972016 10.575539,5.69705348 L10.575539,14.4855967 Z M2.63374486,2.30452675 C2.63374486,2.12270461 2.77126862,1.97530864 2.96931655,1.97530864 L8.8825353,1.97530864 C9.06786643,1.97530864 9.218107,2.12802212 9.218107,2.30452675 C9.218107,2.48634889 9.08058323,2.63374486 8.8825353,2.63374486 L2.96931655,2.63374486 C2.78398542,2.63374486 2.63374486,2.48103138 2.63374486,2.30452675 Z" id="Combined-Shape"></path>
                </g>
                <g id="messgae" transform="translate(13.242798, 3.000000)">
                    <use id="Rectangle-141" stroke="#FFFFFF" mask="url(#mask-2)" stroke-width="2" fill="#A4A4A4" xlink:href="#path-1"></use>
                    <rect id="Rectangle-142" fill="#FFFFFF" x="2.4311491" y="5.67268123" width="3.24153213" height="0.810383033" rx="1"></rect>
                    <rect id="Rectangle-142" fill="#FFFFFF" x="5.67268123" y="4.05191516" width="1.62076607" height="0.810383033" rx="1"></rect>
                    <rect id="Rectangle-142" fill="#FFFFFF" x="2.4311491" y="4.05191516" width="2.4311491" height="0.810383033" rx="1"></rect>
                    <rect id="Rectangle-142" fill="#FFFFFF" x="2.4311491" y="2.4311491" width="4.8622982" height="0.810383033" rx="1"></rect>
                </g>
            </g>
        </g>
    </g>
</svg>