<svg width="24px" height="24px" viewBox="0 0 24 24" version="1.1" xmlns="http://www.w3.org/2000/svg" xmlns:xlink="http://www.w3.org/1999/xlink">
    <g id="Page-1" stroke="none" stroke-width="1" fill="none" fill-rule="evenodd">
        <g id="footer_icons" transform="translate(-270.000000, -117.000000)">
            <g id="thumbsup-pink-icon" transform="translate(270.000000, 117.000000)">
                <path d="M13.8181818,3 L7.99431818,8.82386364 C7.63068182,9.1875 7.45454545,9.64772727 7.45454545,10.1022727 L7.45454545,19.3636364 C7.45454545,20.3636364 8.27272727,21.1818182 9.27272727,21.1818182 L17.1704545,21.1818182 C17.8977273,21.1818182 18.5454545,20.7386364 18.8181818,20.1022727 L21.7159091,13.5397727 C21.8977273,13.1761364 22,12.7386364 22,12.375 L22,11.1818182 C22,10.1818182 21.1818182,9.36363636 20.1818182,9.36363636 L14.4431818,9.36363636 C14.4431818,9.36363636 15.6363636,5.82386364 15.6363636,5.1875 C15.6363636,3.46022727 13.8181818,3 13.8181818,3 L13.8181818,3 Z M2,10.2727273 L2,21.1818182 L5.63636364,21.1818182 L5.63636364,10.2727273 L2,10.2727273 L2,10.2727273 Z" id="Shape" fill="#ED54A4"></path>
            </g>
        </g>
    </g>
</svg>