<?xml version="1.0" encoding="UTF-8" standalone="no"?>
<svg width="24px" height="24px" viewBox="0 0 24 24" version="1.1" xmlns="http://www.w3.org/2000/svg" xmlns:xlink="http://www.w3.org/1999/xlink">
    <!-- Generator: sketchtool 3.7.1 (28215) - http://www.bohemiancoding.com/sketch -->
    <title>A9FEF567-A87B-4913-9F07-5C66DB43B588</title>
    <desc>Created with sketchtool.</desc>
    <defs></defs>
    <g id="Page-1" stroke="none" stroke-width="1" fill="none" fill-rule="evenodd">
        <g id="footer_icons" transform="translate(-600.000000, -57.000000)">
            <g id="pinterest-icon" transform="translate(600.000000, 57.000000)">
                <rect id="container_16" x="0" y="0" width="24" height="24"></rect>
                <path d="M19.5,7.44767045 C18.9481311,7.6932711 18.3550121,7.85928166 17.7325121,7.93383117 C18.3677913,7.55173295 18.8558374,6.94671672 19.0855704,6.22573052 C18.4909223,6.57955763 17.8323422,6.83648133 17.1313471,6.97491477 C16.5700121,6.37486607 15.7702063,6 14.8850607,6 C12.8986529,6 11.4384102,7.85975649 11.8873544,9.79092127 C9.32970874,9.66220373 7.06208738,8.43299513 5.54428398,6.5651664 C4.7381432,7.95253247 5.12614078,9.76816558 6.49663835,10.6871226 C5.99224515,10.6711242 5.51759709,10.5322159 5.10276699,10.3008969 C5.06938107,11.7313271 6.09109223,13.0688718 7.57103155,13.3672159 C7.13792476,13.4854505 6.66353155,13.5125162 6.18134709,13.420069 C6.57287621,14.6466112 7.70945388,15.539233 9.05610437,15.5641071 C7.76228155,16.581319 6.13274272,17.0356656 4.5,16.8426258 C5.86186893,17.7185917 7.47950243,18.2297727 9.21739078,18.2297727 C14.9309345,18.2297727 18.1589563,13.3882183 17.9643932,9.04586445 C18.5657403,8.61058442 19.0874272,8.06682224 19.5,7.44767045" id="icon-twitter" fill="#A4A4A4"></path>
            </g>
        </g>
    </g>
</svg>