<svg xmlns="http://www.w3.org/2000/svg" width="112" height="56" viewBox="0 0 112 56">
    <g fill="none" fill-rule="evenodd">
        <path d="M0 0h112v56H0z"/>
        <g fill="#FFF" fill-rule="nonzero" stroke="#FFF" stroke-width=".2">
            <path d="M35.486 22.808l-.454-.5s.272-.227.726-.59l.41.5c-.41.363-.682.59-.682.59zM57.2 24.125c-.363 0-.59-.363-1-1.135a3.995 3.995 0 0 1-.272-.455l.545-.318c.091.182.182.318.273.455.181.363.409.772.545.817l.09-.09s.41.272.364.318c0-.046-.182.408-.545.408zm1.544-1.59l-.5-.408.228-.273c.272-.318.545-.681.818-1.045l.5.41c-.319.362-.591.726-.818 1.044l-.228.272zm-21.123-1.362l-.364-.545c.5-.364 1-.682 1.545-1l.318.545c-.5.318-1 .636-1.5 1zm17.308-.137c-.364-.5-.773-.908-1.182-1.317l.455-.454c.454.409.863.863 1.226 1.408l-.5.363zm5.95-1.272l-.5-.408c.41-.5.819-.954 1.182-1.363l.5.454c-.364.409-.773.818-1.181 1.317zm-20.215-.454l-.317-.59a27.635 27.635 0 0 1 1.68-.773l.227.59c-.5.228-1.044.455-1.59.773zm35.524-.409c-.545 0-.908-.5-1.362-1.135l.545-.364c.227.318.59.863.817.863l.091-.09.455.408a.578.578 0 0 1-.546.318zm-23.803-.227c-.5-.318-1-.545-1.59-.727l.272-.59c.59.227 1.181.5 1.681.817l-.363.5zm-8.45-.727l-.181-.636c.59-.181 1.226-.318 1.817-.408l.09.635c-.59.091-1.135.228-1.726.41zm5.224-.409a10.63 10.63 0 0 0-1.726-.136v-.636c.636 0 1.272.046 1.863.137l-.137.635zm28.71-.227l-.545-.363c.318-.454.682-1 1-1.5l.545.364c-.318.5-.682 1.045-1 1.5zm-14.536-.181l-.455-.455c.455-.454.909-.863 1.363-1.226l.409.5c-.409.363-.863.726-1.317 1.18zm10.448-.773a6.143 6.143 0 0 0-1.272-1.18l.363-.546c.5.364.909.772 1.363 1.272l-.454.454zm-7.677-1.408l-.318-.545c.59-.363 1.18-.59 1.726-.772l.182.636c-.546.136-1.045.363-1.59.681zm4.906-.59c-.5-.182-1.09-.273-1.681-.318l.045-.636c.636.045 1.272.136 1.863.363l-.227.59zm8.858-.091l-.545-.364c.318-.5.636-1 1-1.499l.544.364c-.363.5-.68.999-.999 1.499zm11.266-.818a77.419 77.419 0 0 0-.273-1.772l.636-.136c.137.545.228 1.181.318 1.817l-.681.091zm-9.267-2.18l-.5-.364c.409-.545.772-1 1.136-1.454l.5.41c-.364.454-.727.908-1.136 1.408zm8.54-1.272a13.875 13.875 0 0 0-.681-1.59l.545-.318c.272.5.545 1.044.772 1.726l-.636.182zm-6.223-1.409l-.455-.454c.5-.454 1-.863 1.454-1.136l.363.546c-.408.227-.863.59-1.362 1.044zm4.406-1.408a2.14 2.14 0 0 0-1.499-.272l-.09-.636c.68-.091 1.362 0 1.952.363l-.363.545zM91.361 16.176s0-.364-.045-.909l.636-.045c.045.59.045.954.045.954h-.636z"/>
        </g>
        <g>
            <path d="M0 0h112v56H0z"/>
            <g fill="#FFF" fill-rule="nonzero" stroke="#FFF" stroke-width=".2">
                <path d="M21.994 35.164c.09.364.318.636.636.863l-.681 1c-.273-.182-.5-.455-.682-.727a3.013 3.013 0 0 1-.409-.863 2.572 2.572 0 0 1-.136-.818V31.575c0-.59-.09-1.09-.273-1.59-.181-.454-.408-.908-.726-1.226-.59-.727-1.363-1.09-2.226-1.09-.909 0-1.636.363-2.272 1.09a4.173 4.173 0 0 0-1 2.771v5.133h-1.271V25.76h-.727v-1.226H13v-2.271c0-.273.046-.59.091-.863.091-.273.182-.59.364-.863.136-.273.363-.545.681-.727.182-.182.363-.273.59-.364.228-.045.41-.09.637-.09.363 0 .726.09.999.272.318.182.545.364.727.636.227.273.363.545.5.863.136.318.181.636.181 1 0 .227-.045.408-.09.636a2.627 2.627 0 0 1-.228.636c-.272.5-.59.908-1 1.226a4.909 4.909 0 0 1-1.362.727c-.136.045-.318.09-.454.136-.182.046-.318.091-.5.136v2.408c.046 0 .046-.045.046-.045a5.34 5.34 0 0 1 1.408-1.09 4.02 4.02 0 0 1 1.862-.455c.636 0 1.227.136 1.772.409.545.273 1 .636 1.408 1.09.409.455.727 1 .954 1.636.227.636.364 1.272.364 1.953V34.528c0 .227 0 .454.045.636m-7.723-13.537a2.75 2.75 0 0 0-.09.681v2.09c.227-.045.408-.09.59-.136a5.128 5.128 0 0 0 1-.5c.272-.227.5-.5.726-.818.091-.227.137-.5.137-.727 0-.181-.046-.408-.091-.59-.046-.182-.182-.364-.273-.545-.136-.136-.227-.273-.409-.318a.862.862 0 0 0-.409-.136c-.09 0-.181 0-.272.045-.091.045-.182.09-.318.136-.273.091-.454.364-.59.818M28.354 26.442c.681 0 1.317.136 1.908.409a5.29 5.29 0 0 1 1.544 1.09c.454.455.772 1 1.045 1.636.273.636.363 1.272.363 1.998 0 .682-.136 1.363-.363 1.954-.273.636-.59 1.18-1.045 1.635a5.29 5.29 0 0 1-1.544 1.09 4.497 4.497 0 0 1-1.908.41 4.497 4.497 0 0 1-1.908-.41c-.59-.272-1.136-.636-1.545-1.09-.454-.454-.772-1-1.045-1.635-.227-.636-.363-1.272-.363-1.954 0-.681.136-1.362.363-1.998a4.394 4.394 0 0 1 1.045-1.636 5.29 5.29 0 0 1 1.545-1.09 4.497 4.497 0 0 1 1.908-.409m0 9.04c.5 0 .954-.09 1.408-.318.454-.182.818-.454 1.181-.818.318-.363.59-.772.772-1.226.182-.454.273-1 .273-1.545 0-.545-.09-1.09-.273-1.544-.181-.454-.454-.909-.772-1.227a3.073 3.073 0 0 0-1.181-.817c-.454-.182-.909-.318-1.408-.318-.5 0-.954.09-1.408.318a2.917 2.917 0 0 0-1.136.817c-.318.364-.59.773-.772 1.227-.182.5-.318 1-.318 1.544 0 .546.136 1.045.318 1.545.181.5.454.909.772 1.226.318.364.727.636 1.136.818.454.227.908.318 1.408.318M40.074 26.442c.681 0 1.317.136 1.908.409a5.29 5.29 0 0 1 1.544 1.09c.455.455.773 1 1.045 1.636.273.636.364 1.272.364 1.998 0 .682-.137 1.363-.364 1.954-.272.636-.59 1.18-1.045 1.635a5.29 5.29 0 0 1-1.544 1.09 4.529 4.529 0 0 1-3.952-.09 5.108 5.108 0 0 1-1.636-1.318v7.132h-1.226v-12.72c0-.499-.046-.953-.136-1.362-.091-.364-.318-.636-.591-.909l.681-1c.273.183.5.455.727.728.182.272.318.545.364.863.045.136.09.227.09.363 0 .137.046.227.046.364.454-.545 1-1 1.635-1.318.59-.363 1.318-.545 2.09-.545m-3.68 5.133c0 .546.091 1.045.273 1.545.182.5.454.909.772 1.226.318.364.727.636 1.181.818.455.182.909.318 1.409.318s.953-.09 1.408-.318a2.917 2.917 0 0 0 1.135-.818c.318-.363.591-.772.773-1.226.181-.454.272-1 .272-1.545 0-.545-.09-1.09-.272-1.544-.182-.454-.455-.909-.773-1.227a3.292 3.292 0 0 0-1.135-.817c-.455-.182-.909-.318-1.408-.318-.5 0-.954.09-1.409.318-.454.181-.817.454-1.18.817-.319.364-.591.773-.773 1.227-.182.5-.273 1-.273 1.544M51.34 32.03c.272.227.545.545.727.863.181.318.318.681.318 1.09 0 .364-.046.727-.182 1.09a2.375 2.375 0 0 1-.545.773c-.227.227-.454.408-.727.5a4.844 4.844 0 0 1-.863.317c-.318.046-.59.091-.909.091-.817 0-1.544-.182-2.18-.59-.318-.182-.545-.455-.772-.773-.228-.318-.318-.727-.318-1.135v-.046l1.226.046c0 .181.046.363.136.5.091.136.228.272.41.408.181.136.408.227.68.273.273.09.546.136.818.136.227 0 .41-.045.636-.09.227-.046.41-.092.59-.183.319-.181.546-.408.637-.68a.842.842 0 0 0 .09-.319v-.318c0-.272-.09-.5-.317-.727-.137-.136-.273-.272-.455-.363-.181-.136-.363-.273-.59-.364-.454-.227-.909-.5-1.408-.726a7.3 7.3 0 0 1-1.409-.864c-.272-.227-.545-.5-.726-.817-.228-.318-.318-.682-.318-1.09 0-.318.045-.591.181-.954a2.195 2.195 0 0 1 1.272-1.272c.273-.137.545-.228.818-.318.273-.046.59-.091.909-.091.363 0 .726.045 1.135.136.364.09.727.227 1.045.454.318.182.59.455.818.773.227.318.318.726.318 1.135v.046h-1.181v-.046c0-.181-.046-.363-.182-.5a1.735 1.735 0 0 0-.409-.408c-.182-.137-.454-.227-.727-.273a2.572 2.572 0 0 0-.817-.136c-.5 0-.909.09-1.227.272-.318.137-.5.364-.681.636-.046.182-.091.364-.091.5 0 .227.09.454.318.727.272.272.59.5 1.045.727.454.227.953.5 1.453.727.545.227 1 .5 1.454.863M61.697 34.346l.545.364c-.454.59-.999 1.09-1.68 1.454a4.614 4.614 0 0 1-2.226.545 4.497 4.497 0 0 1-1.908-.41 5.29 5.29 0 0 1-1.545-1.09c-.454-.454-.772-.999-1.045-1.635-.227-.636-.363-1.272-.363-1.953 0-.682.136-1.363.363-1.999a4.394 4.394 0 0 1 1.045-1.635 5.29 5.29 0 0 1 1.545-1.09 4.497 4.497 0 0 1 1.908-.41c.772 0 1.499.182 2.18.546a5.069 5.069 0 0 1 1.68 1.408l-.499.363-.454.364a4.781 4.781 0 0 0-1.272-1.09c-.5-.273-1-.41-1.59-.41-.5 0-.954.092-1.408.319-.454.181-.818.454-1.181.817-.318.364-.59.773-.773 1.227-.227.5-.318 1-.318 1.544 0 .546.091 1.045.273 1.545.182.5.454.909.772 1.227.318.363.727.635 1.181.817.455.182.909.318 1.409.318a3.36 3.36 0 0 0 1.635-.409 4.17 4.17 0 0 0 1.272-1.09l.454.364zM68.148 26.442c.681 0 1.317.136 1.908.409a5.29 5.29 0 0 1 1.544 1.09c.455.455.773 1 1.045 1.636.273.636.364 1.272.364 1.998 0 .682-.137 1.363-.364 1.954-.272.636-.59 1.18-1.045 1.635a5.29 5.29 0 0 1-1.544 1.09 4.497 4.497 0 0 1-1.908.41 4.497 4.497 0 0 1-1.908-.41c-.59-.272-1.136-.636-1.545-1.09-.454-.454-.772-1-1.044-1.635-.228-.636-.364-1.272-.364-1.954 0-.681.136-1.362.364-1.998a4.394 4.394 0 0 1 1.044-1.636 5.29 5.29 0 0 1 1.545-1.09 4.497 4.497 0 0 1 1.908-.409m0 9.04c.5 0 .954-.09 1.408-.318.454-.182.818-.454 1.181-.818.318-.363.59-.772.772-1.226.182-.454.273-1 .273-1.545 0-.545-.09-1.09-.273-1.544-.181-.454-.454-.909-.772-1.227a3.073 3.073 0 0 0-1.18-.817c-.455-.182-.91-.318-1.41-.318-.499 0-.953.09-1.407.318a2.917 2.917 0 0 0-1.136.817c-.318.364-.59.773-.772 1.227-.182.5-.318 1-.318 1.544 0 .546.136 1.045.318 1.545.181.5.454.909.772 1.226.318.364.727.636 1.136.818.454.227.908.318 1.408.318M76.87 25.397h2.907v1.181H76.87v8.086c0 .228.045.455.09.636.046.182.137.364.182.5.091.136.228.273.41.364l-.682 1.044a2.76 2.76 0 0 1-.727-.726 3.44 3.44 0 0 1-.409-.818c-.09-.273-.09-.59-.136-.863v-8.223h-1.863v-1.18h1.863v-3.18h1.226v3.18h.046zM87 34.346l.545.364c-.454.59-1 1.09-1.68 1.454a4.614 4.614 0 0 1-2.226.545 4.497 4.497 0 0 1-1.908-.41 5.29 5.29 0 0 1-1.545-1.09c-.454-.454-.772-.999-1.045-1.635-.227-.636-.363-1.272-.363-1.953 0-.682.136-1.363.363-1.999a4.394 4.394 0 0 1 1.045-1.635 5.29 5.29 0 0 1 1.545-1.09 4.497 4.497 0 0 1 1.908-.41c.772 0 1.499.182 2.18.546a5.069 5.069 0 0 1 1.68 1.408l-.499.363-.454.364a4.781 4.781 0 0 0-1.272-1.09c-.5-.273-1-.41-1.59-.41-.5 0-.954.092-1.408.319-.455.181-.818.454-1.181.817-.318.364-.591.773-.773 1.227-.181.5-.272 1-.272 1.544 0 .546.09 1.045.272 1.545.182.5.455.909.773 1.227.318.363.726.635 1.18.817.455.182.91.318 1.409.318a3.36 3.36 0 0 0 1.635-.409 4.17 4.17 0 0 0 1.272-1.09l.41.364zM98.448 35.164c.09.364.318.636.636.863l-.682 1c-.272-.182-.5-.455-.681-.727a3.013 3.013 0 0 1-.409-.863 2.572 2.572 0 0 1-.136-.818V31.575c0-.59-.091-1.09-.273-1.59-.181-.454-.409-.908-.727-1.226-.59-.727-1.362-1.09-2.226-1.09-.908 0-1.635.363-2.27 1.09a4.173 4.173 0 0 0-1 2.771v5.133h-1.181V25.76H88.726v-1.226H89.5v-2.271c0-.273.045-.59.09-.863.091-.273.182-.59.364-.863.136-.273.363-.545.681-.727.182-.136.364-.227.59-.318.228-.046.41-.091.637-.091.363 0 .681.09 1 .273.317.181.544.363.726.636.227.272.363.545.5.863.136.318.181.636.181.999 0 .227-.045.409-.09.636a2.627 2.627 0 0 1-.228.636c-.272.5-.59.909-.999 1.227a4.909 4.909 0 0 1-1.363.726c-.136.046-.318.091-.454.137-.182.045-.318.09-.5.136v2.408c.046 0 .046-.046.046-.046a5.34 5.34 0 0 1 1.408-1.09 3.906 3.906 0 0 1 1.772-.409c.636 0 1.226.136 1.771.409.545.272 1 .636 1.409 1.09.408.454.726 1 .953 1.636.228.635.364 1.271.364 1.953V34.619c0 .136.045.363.09.545m-7.722-13.537a2.75 2.75 0 0 0-.09.681v2.09c.226-.045.408-.09.59-.136a5.128 5.128 0 0 0 1-.5c.272-.227.499-.5.68-.818.091-.227.137-.5.137-.727 0-.181-.046-.408-.09-.59-.046-.182-.183-.364-.273-.545-.137-.136-.228-.273-.41-.318a.862.862 0 0 0-.408-.136c-.091 0-.182 0-.273.045-.09.045-.181.09-.318.136-.272.091-.454.364-.545.818"/>
            </g>
        </g>
    </g>
</svg>
