<svg xmlns="http://www.w3.org/2000/svg" width="36" height="24" viewBox="0 0 36 24">
    <g fill="none" fill-rule="evenodd">
        <path d="M0 0h36v24H0z"/>
        <g fill="#016FD0">
            <path d="M26.984 3v2.867c-.792-.003-1.584.003-2.376-.014-.208-.004-.295.07-.356.259-.146.45-.315.894-.49 1.38-.181-.512-.352-.98-.512-1.454-.047-.137-.117-.183-.263-.182-.931.006-1.862.003-2.794.003-.478 0-.478 0-.478.472v1.602a45.986 45.986 0 0 1-.869-1.9c-.057-.133-.13-.178-.272-.177-.792.006-1.584.008-2.376-.001-.17-.002-.257.048-.327.207-.896 2.047-1.8 4.09-2.701 6.135-.025.057-.042.118-.074.21h2.045c.256 0 .257 0 .257.252 0 1.766 0 3.532-.002 5.298 0 .139.014.224.191.223 2.292-.004 4.585-.002 6.876-.008a.381.381 0 0 0 .244-.116c.291-.306.573-.622.855-.938.051-.057.09-.126.14-.198.373.412.703.781 1.04 1.144.048.053.127.107.193.108.683.005 1.366 0 2.05-.003V21H9V3h17.984z"/>
            <path d="M18.067 9.528l-.689-1.655-.061.007-.686 1.648h1.436zm8.917 2.11c-.362-.003-.726-.016-1.088-.004-.182.007-.22-.058-.219-.227.008-1.004.004-2.008.004-3.012 0-.069-.01-.137-.015-.206a20.786 20.786 0 0 0-.05-.01c-.02.05-.041.1-.06.151-.383 1.043-.769 2.084-1.146 3.129-.047.129-.105.18-.244.174a12.507 12.507 0 0 0-.853 0c-.117.003-.168-.041-.206-.149-.377-1.037-.76-2.074-1.14-3.11-.025-.066-.052-.13-.078-.196l-.052.006v3.43c-.092.007-.15.015-.207.015-.835.001-1.67-.002-2.504.004-.129 0-.195-.038-.241-.16a7.982 7.982 0 0 0-.307-.716c-.032-.064-.13-.133-.198-.134-.69-.01-1.379-.01-2.068 0-.065 0-.158.065-.186.125-.117.245-.209.502-.323.749-.027.057-.106.125-.162.127-.434.01-.87.005-1.336.005.026-.071.04-.125.063-.176.685-1.552 1.373-3.104 2.053-4.658.056-.128.125-.167.257-.165a47.3 47.3 0 0 0 1.397 0c.127-.002.191.037.244.157.678 1.548 1.363 3.094 2.048 4.64.025.059.059.114.114.22.018-.098.032-.142.032-.185-.001-1.542-.002-3.085-.01-4.627 0-.158.044-.208.205-.206.568.01 1.137.01 1.705 0 .16-.003.233.047.287.2.317.906.645 1.81.97 2.714.021.06.048.117.093.227.051-.113.084-.173.107-.237.329-.909.659-1.817.981-2.728.046-.129.107-.177.247-.175.628.006 1.257 0 1.886-.001v5.008zM26.984 17.407c-.532-.001-1.064-.006-1.596-.002a.358.358 0 0 1-.296-.134c-.406-.455-.823-.902-1.228-1.358-.102-.115-.16-.12-.265-.002a58.57 58.57 0 0 1-1.247 1.366.434.434 0 0 1-.277.12c-.495.012-.99.006-1.528.006l.774-.827c.485-.515.968-1.031 1.459-1.54.094-.099.089-.157-.002-.252-.695-.732-1.385-1.468-2.077-2.203l-.159-.175h.46c.344 0 .69.012 1.033-.004.19-.01.312.06.433.197.382.436.776.862 1.165 1.293.036.04.068.082.154.188.06-.098.093-.172.145-.23.39-.43.785-.854 1.172-1.287a.426.426 0 0 1 .357-.16c.508.007 1.016-.001 1.523-.004v.036c-.055.045-.117.083-.166.134-.572.597-1.143 1.196-1.713 1.795-.165.173-.327.349-.495.529.053.062.09.11.13.153.568.602 1.135 1.204 1.706 1.802.173.181.359.35.538.523v.036z"/>
            <path d="M26.984 16.282c-.411-.432-.824-.863-1.23-1.3-.03-.031-.032-.132-.005-.161.407-.436.822-.866 1.235-1.297v2.758zM16.232 12.406h.197c1.276 0 2.553.004 3.829-.004.177 0 .23.051.219.224a6.29 6.29 0 0 0 0 .707c.008.158-.056.195-.2.194-.817-.004-1.634-.002-2.45-.001-.285 0-.285 0-.286.292 0 .121.007.242-.001.363-.01.141.045.192.187.19.448-.006.896-.002 1.343-.002.381 0 .762.005 1.143-.002.136-.002.199.03.19.182a6.946 6.946 0 0 0 0 .707c.009.156-.051.197-.198.196-.792-.004-1.584-.002-2.377-.002-.286 0-.286.002-.287.29 0 .114.009.23-.001.344-.014.157.044.21.205.21.828-.007 1.657-.003 2.486-.003.242 0 .242 0 .242.25 0 .224-.009.448.003.671.009.154-.047.195-.195.194-.992-.006-1.984-.003-2.976-.003-.309 0-.617-.003-.925.001-.108.002-.165-.02-.165-.149.004-1.578.003-3.157.003-4.735 0-.03.007-.059.014-.114"/>
        </g>
    </g>
</svg>
