<?xml version="1.0" encoding="utf-8"?>
<!-- Generator: Adobe Illustrator 24.0.3, SVG Export Plug-In . SVG Version: 6.00 Build 0)  -->
<svg version="1.1" id="Layer_1" xmlns="http://www.w3.org/2000/svg" xmlns:xlink="http://www.w3.org/1999/xlink" x="0px" y="0px"
	 viewBox="0 0 36 24" style="enable-background:new 0 0 36 24;" xml:space="preserve">
<style type="text/css">
	.st0{fill:none;}
	.st1{fill:#F99500;}
	.st2{fill:#FFFFFF;}
</style>
<g>
	<path class="st0" d="M0,0h36v24H0V0z"/>
</g>
<g>
	<path class="st1" d="M30,18.7L28,6.1c0,0-0.2-3.2-4.2-2.3l-16.2,3c0,0-0.8,0.3-0.8-0.4c0,0-0.1-0.4,0.8-0.5L26,1.9
		c0,0,3.3-1.1,3.7,2.2l1.8,11.2C31.4,15.4,32,18.2,30,18.7z"/>
	<path class="st1" d="M4.5,7.9c0,0,0.3,0.7,2.3,0.3c2.1-0.4-0.2,0-0.2,0l16.7-2.6c0,0,3.2-0.7,3.6,2.6l1.6,10.7c0,0,0.9,3.1-2.4,3.2
		H9.3c0,0-2.6,0.4-3-2.4L4.5,7.9z"/>
	<g>
		<path class="st2" d="M7.3,14c0.1-0.1,0.1-0.1,0.3,0c2.8,1.6,5.8,2.4,9,2.4c2.2,0,4.3-0.4,6.4-1.2c0.1,0,0.1-0.1,0.2-0.1
			c0.1,0,0.2-0.1,0.2-0.1c0.2-0.1,0.3,0,0.4,0.1c0.1,0.1,0.1,0.3-0.1,0.4c-0.2,0.1-0.5,0.3-0.8,0.5c-0.9,0.6-2,1-3.2,1.3
			c-1.2,0.3-2.3,0.5-3.4,0.5c-1.7,0-3.3-0.3-4.9-0.9c-1.5-0.6-2.9-1.4-4.1-2.5C7.3,14.2,7.3,14.2,7.3,14C7.3,14.1,7.3,14,7.3,14z"/>
		<path class="st2" d="M22,14.3c0,0,0.1-0.1,0.1-0.1c0.3-0.2,0.5-0.3,0.8-0.4c0.4-0.1,0.8-0.2,1.2-0.2c0.1,0,0.2,0,0.3,0
			c0.5,0,0.8,0.1,0.9,0.2c0,0.1,0.1,0.2,0.1,0.3v0.1c0,0.4-0.1,0.8-0.3,1.4c-0.2,0.5-0.5,0.9-0.9,1.3c-0.1,0-0.1,0.1-0.1,0.1
			c0,0,0,0-0.1,0c-0.1,0-0.1-0.1,0-0.2c0.4-1,0.6-1.6,0.6-2c0-0.1,0-0.2-0.1-0.3c-0.1-0.1-0.4-0.2-0.9-0.2c-0.2,0-0.4,0-0.7,0
			c-0.3,0-0.5,0.1-0.8,0.1c-0.1,0-0.1,0-0.1,0C22,14.4,22,14.4,22,14.3C22,14.3,22,14.3,22,14.3z"/>
	</g>
</g>
</svg>
