<svg xmlns="http://www.w3.org/2000/svg" width="36" height="24" viewBox="0 0 36 24">
    <g fill="none" fill-rule="evenodd">
        <path d="M0 0h36v24H0z"/>
        <path fill="#004784" d="M15.792 17.24h2.01V7.402h-2.01zM25.679 15.1c-.538.325-1.038.493-1.489.493-.65 0-.94-.344-.94-1.113V9.256h2.044V7.403h-2.043V4.338l-1.974 1.058v2.007h-1.699v1.853h1.7v5.558c0 1.514.895 2.55 2.23 2.576.904.016 1.453-.252 1.78-.452l.022-.014.485-1.897-.116.072zM27.341 17.24h2.01V7.402h-2.01zM13.502 14.343l-.044.044c-.708.727-1.53 1.112-2.378 1.112-1.77 0-3.053-1.331-3.053-3.168 0-1.834 1.284-3.17 3.053-3.17.848 0 1.67.386 2.378 1.115l.044.045 1.141-1.382-.03-.035c-.946-1.125-2.084-1.67-3.477-1.67-1.402 0-2.681.47-3.607 1.323-1.001.93-1.53 2.23-1.53 3.774 0 1.541.529 2.847 1.53 3.772.926.856 2.205 1.325 3.607 1.325 1.393 0 2.531-.548 3.478-1.667l.03-.038-1.142-1.38z"/>
        <path fill="#EC1C24" d="M30.615 5.8c-1.674-2.522-4.773-4.3-8.079-4.3-3.254 0-6.349 1.728-8.08 4.3h2.31c1.578-1.63 3.621-2.516 5.77-2.518 2.113 0 4.19.888 5.769 2.518h2.31z"/>
    </g>
</svg>
