<svg xmlns="http://www.w3.org/2000/svg" xmlns:xlink="http://www.w3.org/1999/xlink" width="24" height="24" viewBox="0 0 24 24">
    <defs>
        <path id="a" d="M13.414 12l2.122-2.121a1 1 0 1 0-1.415-1.415L12 10.586 9.879 8.464A1 1 0 0 0 8.464 9.88L10.586 12l-2.122 2.121a1 1 0 0 0 1.415 1.415L12 13.414l2.121 2.122a1 1 0 0 0 1.415-1.415L13.414 12zM12 20a8 8 0 1 1 0-16 8 8 0 0 1 0 16z"/>
    </defs>
    <g fill="none" fill-rule="evenodd">
        <mask id="b" fill="#fff">
            <use xlink:href="#a"/>
        </mask>
        <use fill="#D8D8D8" xlink:href="#a"/>
        <g fill="#0D1623" mask="url(#b)" opacity=".56">
            <path d="M0 0h24v24H0z"/>
        </g>
    </g>
</svg>
