<svg xmlns="http://www.w3.org/2000/svg" xmlns:xlink="http://www.w3.org/1999/xlink" width="144" height="144" viewBox="0 0 144 144">
    <defs>
        <rect id="b" width="90.947" height="54.568" x="20.295" y="39.8" rx="2"/>
        <filter id="a" width="166%" height="210%" x="-33%" y="-33%" filterUnits="objectBoundingBox">
            <feOffset dy="12" in="SourceAlpha" result="shadowOffsetOuter1"/>
            <feGaussianBlur in="shadowOffsetOuter1" result="shadowBlurOuter1" stdDeviation="8"/>
            <feColorMatrix in="shadowBlurOuter1" values="0 0 0 0 0 0 0 0 0 0 0 0 0 0 0 0 0 0 0.24 0"/>
        </filter>
    </defs>
    <g fill="none" fill-rule="evenodd">
        <use fill="#000" filter="url(#a)" xlink:href="#b"/>
        <use fill="#DFE1E6" xlink:href="#b"/>
        <path fill="#3E4855" d="M29.906 81.287a.517.517 0 0 1-.338-.131.449.449 0 0 1-.157-.364c0-.14.048-.257.142-.35a.486.486 0 0 1 .353-.138h1.899v-.975a.11.11 0 0 0-.033-.072c-.022-.025-.045-.037-.069-.037h-1.2a.457.457 0 0 1-.186-.04.52.52 0 0 1-.27-.269.457.457 0 0 1-.04-.186c0-.145.052-.264.154-.356a.497.497 0 0 1 .342-.138h1.215c.024 0 .046-.011.065-.033a.103.103 0 0 0 .03-.07v-.952h-1.929a.5.5 0 0 1-.327-.131.549.549 0 0 1-.12-.157.46.46 0 0 1-.048-.214c0-.131.048-.245.142-.342a.473.473 0 0 1 .353-.146h2.125a.797.797 0 0 1 .793.779v1.127c0 .267-.06.478-.182.633.121.18.182.381.182.604v1.172c0 .102-.02.2-.062.294a.804.804 0 0 1-.418.426.754.754 0 0 1-.313.066h-2.103zm5.828-1.55h-1.79V76.68c0-.131.046-.246.138-.346.093-.1.209-.149.35-.149.063 0 .124.014.185.04a.527.527 0 0 1 .273.262.44.44 0 0 1 .044.193v2.066h.8v-1.542c0-.126.042-.241.127-.346a.438.438 0 0 1 .36-.156c.127 0 .242.043.346.13a.449.449 0 0 1 .156.365v1.593a.709.709 0 0 1 .215.178c.056.07.084.161.084.273a.555.555 0 0 1-.077.27.396.396 0 0 1-.222.188v1.092c0 .14-.047.258-.141.353a.479.479 0 0 1-.353.142.522.522 0 0 1-.335-.131.444.444 0 0 1-.16-.364v-1.055zm3.558 1.55a1.17 1.17 0 0 1-.473-.102l-.444-.182c-.204-.083-.306-.24-.306-.473 0-.058.013-.115.037-.171a.627.627 0 0 1 .098-.157.482.482 0 0 1 .146-.116.395.395 0 0 1 .185-.044.636.636 0 0 1 .284.066l.473.196h1.179V79.22h-1.79v-2.524l.509-.51h1.775c.063 0 .125.014.186.04a.527.527 0 0 1 .273.262c.029.06.043.123.043.186a.492.492 0 0 1-.145.349.473.473 0 0 1-.357.153H39.67v1.062h.997c.107 0 .209.023.306.07a.864.864 0 0 1 .43.43.68.68 0 0 1 .064.286V80.5c0 .102-.02.2-.062.294a.804.804 0 0 1-.418.426.771.771 0 0 1-.32.066h-1.375zm3.943 0a.457.457 0 0 1-.185-.04.556.556 0 0 1-.273-.259.417.417 0 0 1-.044-.189v-4.125c0-.141.049-.257.146-.35a.498.498 0 0 1 .356-.138h.299c.13 0 .245.05.342.15a.472.472 0 0 1 .05.625.435.435 0 0 1-.196.171v1.623h1.899c.14 0 .258.05.353.152a.49.49 0 0 1 .142.342v1.543c0 .14-.051.258-.153.353a.499.499 0 0 1-.35.142h-2.386zm1.892-1.543h-1.411v.56h1.411v-.56zm6.177-.451c0-.18.058-.32.175-.422l1.033-.873v-.822h-1.47a.475.475 0 0 1-.436.247.473.473 0 0 1-.353-.145.482.482 0 0 1-.142-.35v-.247a.5.5 0 0 1 .13-.353.47.47 0 0 1 .365-.142H53.5v2.03c0 .15-.06.28-.181.386l-1.02.887v1.296a.5.5 0 0 1-.138.338.607.607 0 0 1-.152.116.406.406 0 0 1-.197.048.527.527 0 0 1-.352-.135.443.443 0 0 1-.157-.353v-1.506zm3.856 1.994a.457.457 0 0 1-.185-.04.556.556 0 0 1-.273-.259.417.417 0 0 1-.044-.189v-4.125c0-.141.049-.257.146-.35a.498.498 0 0 1 .356-.138h.299c.13 0 .245.05.342.15a.472.472 0 0 1 .05.625.435.435 0 0 1-.196.171v1.623h1.9c.14 0 .257.05.352.152a.49.49 0 0 1 .142.342v1.543c0 .14-.051.258-.153.353a.499.499 0 0 1-.35.142H55.16zm1.892-1.543h-1.411v.56h1.411v-.56zm3.187 1.543a1.17 1.17 0 0 1-.473-.102l-.444-.182c-.204-.083-.306-.24-.306-.473 0-.058.013-.115.037-.171a.627.627 0 0 1 .098-.157.482.482 0 0 1 .146-.116.395.395 0 0 1 .185-.044.636.636 0 0 1 .284.066l.473.196h1.178V79.22h-1.79v-2.524l.51-.51h1.775c.063 0 .125.014.186.04a.527.527 0 0 1 .273.262c.029.06.043.123.043.186a.492.492 0 0 1-.145.349.473.473 0 0 1-.357.153h-1.295v1.062h.997c.107 0 .209.023.306.07a.864.864 0 0 1 .43.43.68.68 0 0 1 .064.286V80.5c0 .102-.02.2-.062.294a.804.804 0 0 1-.418.426.771.771 0 0 1-.32.066h-1.375zm5.1-1.55h-1.79V76.68c0-.131.046-.246.139-.346.092-.1.208-.149.349-.149.063 0 .125.014.185.04a.527.527 0 0 1 .273.262.44.44 0 0 1 .044.193v2.066h.8v-1.542c0-.126.043-.241.127-.346a.438.438 0 0 1 .36-.156c.127 0 .242.043.346.13a.449.449 0 0 1 .157.365v1.593a.709.709 0 0 1 .214.178c.056.07.084.161.084.273a.555.555 0 0 1-.076.27.396.396 0 0 1-.222.188v1.092c0 .14-.048.258-.142.353a.479.479 0 0 1-.353.142.522.522 0 0 1-.335-.131.444.444 0 0 1-.16-.364v-1.055zm2.947 1.55a.517.517 0 0 1-.338-.131.449.449 0 0 1-.157-.364c0-.14.047-.257.142-.35a.486.486 0 0 1 .353-.138h1.899v-.975a.11.11 0 0 0-.033-.072c-.022-.025-.045-.037-.069-.037h-1.2a.457.457 0 0 1-.186-.04.52.52 0 0 1-.27-.269.457.457 0 0 1-.04-.186c0-.145.052-.264.153-.356a.497.497 0 0 1 .342-.138h1.216c.024 0 .046-.011.065-.033a.103.103 0 0 0 .03-.07v-.952h-1.929a.5.5 0 0 1-.327-.131.549.549 0 0 1-.12-.157.46.46 0 0 1-.048-.214c0-.131.048-.245.142-.342a.473.473 0 0 1 .353-.146h2.125a.797.797 0 0 1 .793.779v1.127c0 .267-.061.478-.182.633.121.18.182.381.182.604v1.172c0 .102-.021.2-.062.294a.804.804 0 0 1-.418.426.754.754 0 0 1-.313.066h-2.103zm4.183 0v-2.263c0-.112.022-.216.066-.313a.804.804 0 0 1 .426-.418.73.73 0 0 1 .294-.062h1.615v-1.055h-1.928a.5.5 0 0 1-.327-.131.549.549 0 0 1-.12-.157.46.46 0 0 1-.047-.214c0-.141.047-.257.141-.35a.486.486 0 0 1 .353-.138h2.132c.107 0 .208.02.302.062a.809.809 0 0 1 .422.422.73.73 0 0 1 .062.295v1.455a.79.79 0 0 1-.786.8h-1.622v1.084h1.92c.059 0 .116.012.171.037a.627.627 0 0 1 .157.098c.048.041.087.09.116.15.03.057.044.123.044.196 0 .15-.049.271-.146.363a.48.48 0 0 1-.342.139H72.47zm8.193 0a.491.491 0 0 1-.495-.502c0-.146.051-.262.153-.35a.512.512 0 0 1 .342-.13h.72v-3.13h-.705a.494.494 0 0 1-.448-.287.46.46 0 0 1-.047-.214.48.48 0 0 1 .138-.342.461.461 0 0 1 .35-.146h1.694v4.118h.204v-1.047c0-.122.048-.234.142-.339a.457.457 0 0 1 .353-.156c.063 0 .125.013.186.04.06.027.115.063.163.109a.504.504 0 0 1 .113.156c.027.059.04.12.04.182v1.543a.48.48 0 0 1-.146.345.479.479 0 0 1-.356.15h-2.401zm4.831 0a.77.77 0 0 1-.564-.211.75.75 0 0 1-.214-.56v-3.559c0-.106.021-.207.065-.301a.772.772 0 0 1 .175-.244.896.896 0 0 1 .247-.164.705.705 0 0 1 .291-.062h1.863c.106 0 .206.022.298.066a.784.784 0 0 1 .24.174.834.834 0 0 1 .16.248.725.725 0 0 1 .058.283v3.558a.783.783 0 0 1-.226.546.783.783 0 0 1-.538.226h-1.855zm1.637-4.104h-1.419v3.121h1.42v-3.121zm4.65 4.104a.495.495 0 0 1-.328-.131.453.453 0 0 1-.153-.364c0-.097.024-.187.073-.27a.395.395 0 0 1 .218-.174v-1.637h-1.906a.497.497 0 0 1-.342-.138.45.45 0 0 1-.153-.35v-1.55c0-.125.044-.24.131-.341a.453.453 0 0 1 .364-.153h2.394a.47.47 0 0 1 .349.15.48.48 0 0 1 .145.345v4.118a.49.49 0 0 1-.138.349.47.47 0 0 1-.356.146h-.299zm-.175-4.111h-1.419v.53h1.419v-.53zm2.976 4.11a.791.791 0 0 1-.739-.487.773.773 0 0 1-.062-.306v-1.47c0-.087.016-.171.048-.254a.81.81 0 0 1 .316-.4.704.704 0 0 1 .24-.102v-1.593c0-.131.047-.245.142-.342a.456.456 0 0 1 .338-.146h1.23c.13 0 .245.049.342.146a.468.468 0 0 1 .145.342v1.593c.17.039.312.13.426.273a.756.756 0 0 1 .171.484V80.5c0 .106-.02.207-.062.302a.809.809 0 0 1-.422.422.747.747 0 0 1-.302.062h-1.811zm1.01-4.11h-.225v1.062h.226v-1.062zm.605 2.044h-1.412v1.084h1.412V79.22zm3.23.073c0-.18.058-.32.175-.422l1.033-.873v-.822h-1.47a.475.475 0 0 1-.436.247.473.473 0 0 1-.353-.145.482.482 0 0 1-.142-.35v-.247a.5.5 0 0 1 .131-.353.47.47 0 0 1 .364-.142h2.896v2.03c0 .15-.061.28-.182.386l-1.019.887v1.296a.5.5 0 0 1-.138.338.607.607 0 0 1-.153.116.406.406 0 0 1-.196.048.527.527 0 0 1-.353-.135.443.443 0 0 1-.157-.353v-1.506z" opacity=".8"/>
        <circle cx="92" cy="66.5" r="32" fill="#21ECCA" opacity=".12"/>
        <circle cx="92" cy="66.5" r="24" fill="#21ECCA" opacity=".36"/>
        <circle cx="92" cy="66.5" r="16" fill="#21ECCA" opacity=".8"/>
        <path fill="#000" d="M83.43 69.849v-5.075l-1.115.835-.63-.98 2.017-1.446h1.058v6.666h-1.33zm4.935-1.203h2.436v1.203h-4.347l-.02-.864 2.077-2.193c.533-.572.892-1.028.892-1.562 0-.514-.368-.902-.892-.902-.466 0-.864.233-1.155.718l-.95-.68c.387-.708 1.096-1.26 2.211-1.26 1.107 0 2.116.737 2.116 1.979 0 .756-.243 1.348-1.107 2.241l-1.26 1.3v.02zm7.186-2.242c.64.301 1.057.854 1.057 1.63 0 1.155-.96 1.892-2.25 1.892-1.185 0-2.068-.62-2.388-1.465l1.145-.475c.175.475.544.757 1.145.757.534 0 .99-.33.99-.893 0-.476-.369-.883-1.097-.883h-.485V65.89h.592c.592 0 .864-.35.864-.786 0-.485-.388-.805-.883-.805-.485 0-.777.213-.97.553l-1.058-.563c.31-.689 1.077-1.184 2.057-1.184 1.184 0 2.144.64 2.144 1.786a1.7 1.7 0 0 1-.863 1.494v.02zm5.09 3.445v-1.087h-2.824v-.844l3.056-4.735h1.067v4.444h.893v1.135h-.893v1.087h-1.3zm-1.388-2.154h1.484v-2.387l-1.484 2.387z"/>
        <g fill="#016FD0">
            <path d="M47.563 48.895v2.897c-.8-.003-1.6.003-2.4-.014-.212-.004-.299.07-.361.262-.148.455-.318.903-.494 1.395-.184-.518-.357-.992-.519-1.47-.047-.14-.118-.186-.265-.185-.941.007-1.882.004-2.823.004-.484 0-.484 0-.484.477v1.618a46.47 46.47 0 0 1-.878-1.92c-.058-.134-.13-.18-.274-.178-.801.006-1.602.008-2.402-.001-.171-.002-.26.049-.33.209-.906 2.068-1.82 4.134-2.73 6.2-.025.057-.042.119-.075.211h2.067c.26 0 .26 0 .26.255 0 1.785 0 3.57-.002 5.354 0 .14.013.226.193.226 2.316-.005 4.633-.002 6.949-.008a.385.385 0 0 0 .246-.117c.294-.31.579-.63.864-.949.051-.057.09-.127.141-.2.377.416.71.79 1.051 1.157.049.052.129.108.195.108.69.006 1.38 0 2.071-.002v2.86H29.39v-18.19h18.174z"/>
            <path d="M38.552 55.491l-.696-1.672-.062.007-.694 1.665h1.452zm9.011 2.132c-.366-.003-.733-.016-1.1-.003-.184.006-.222-.06-.22-.23.007-1.014.003-2.029.003-3.043 0-.07-.01-.14-.015-.209a21.014 21.014 0 0 0-.051-.01l-.06.153c-.388 1.054-.777 2.106-1.158 3.161-.047.13-.106.182-.247.177a12.639 12.639 0 0 0-.862 0c-.118.003-.17-.042-.208-.15-.381-1.05-.767-2.096-1.152-3.144-.025-.066-.053-.132-.079-.198l-.052.006V57.6c-.093.007-.151.015-.21.015-.843 0-1.687-.002-2.53.003-.13.001-.197-.038-.244-.16a8.066 8.066 0 0 0-.31-.724c-.032-.065-.13-.135-.2-.136a76.36 76.36 0 0 0-2.09 0c-.065 0-.16.066-.188.126-.118.248-.21.508-.326.757-.027.058-.107.127-.163.128-.44.01-.88.006-1.35.006.025-.072.04-.127.063-.178.692-1.57 1.387-3.137 2.075-4.708.056-.129.126-.168.26-.166.47.007.94.007 1.411 0 .128-.002.193.038.246.159.686 1.564 1.378 3.126 2.07 4.689.026.059.06.115.116.222.017-.1.032-.143.032-.187-.001-1.559-.002-3.117-.01-4.676-.001-.16.044-.21.207-.208.574.01 1.149.01 1.723 0 .161-.003.235.048.29.201.32.917.651 1.83.98 2.743.021.06.048.119.094.23.052-.114.084-.175.108-.24.332-.918.665-1.836.992-2.757.046-.13.108-.178.248-.176.636.006 1.272 0 1.907-.001v5.06zM47.563 63.454c-.537-.002-1.075-.007-1.613-.002a.362.362 0 0 1-.3-.136c-.41-.46-.83-.911-1.24-1.373-.103-.115-.162-.12-.268-.001-.413.466-.832.927-1.26 1.38a.438.438 0 0 1-.28.122c-.5.012-1 .005-1.544.005.278-.297.53-.567.783-.835.49-.52.978-1.042 1.473-1.557.096-.1.09-.158-.001-.254-.703-.74-1.4-1.484-2.1-2.227l-.16-.176h.464c.348 0 .697.012 1.045-.005.192-.009.315.06.437.2.387.44.785.87 1.178 1.306.036.04.068.084.155.19.061-.099.095-.174.147-.231.393-.435.793-.864 1.183-1.302a.43.43 0 0 1 .362-.162c.513.008 1.026 0 1.54-.003v.037c-.057.044-.12.083-.169.134-.578.604-1.155 1.209-1.731 1.814-.167.175-.33.353-.5.535.053.063.09.11.131.155.574.607 1.147 1.216 1.724 1.821.175.183.363.352.544.528v.037z"/>
            <path d="M47.563 62.317c-.416-.437-.833-.873-1.244-1.315-.029-.03-.032-.133-.005-.162.413-.44.832-.875 1.25-1.31v2.787zM36.698 58.4h.199c1.29 0 2.579.004 3.869-.004.179-.001.232.052.221.226a6.357 6.357 0 0 0 0 .715c.008.16-.057.197-.202.196-.826-.005-1.65-.002-2.476-.002-.288 0-.288 0-.288.296 0 .122.006.245-.002.366-.01.143.046.195.19.193.452-.006.904-.002 1.357-.002.385 0 .77.004 1.155-.002.137-.003.2.03.192.183a7.019 7.019 0 0 0 0 .715c.008.157-.052.2-.2.198-.8-.005-1.601-.002-2.402-.002-.29 0-.29.002-.29.292 0 .116.008.233-.002.348-.014.16.045.214.207.212.838-.006 1.675-.003 2.512-.003.245 0 .245 0 .245.253 0 .226-.008.453.004.678.008.155-.048.197-.198.196-1.002-.005-2.005-.003-3.007-.003-.312 0-.624-.002-.935.002-.11 0-.167-.02-.167-.15.004-1.596.003-3.191.004-4.786 0-.03.007-.06.014-.115"/>
        </g>
    </g>
</svg>
