<svg xmlns="http://www.w3.org/2000/svg" width="36" height="24" viewBox="0 0 36 24">
    <g fill="none" fill-rule="evenodd">
        <path d="M0 0h36v24H0z"/>
        <path fill="#2183CB" d="M19.41 21h-3.203c-4.845-.078-8.752-4.07-8.752-8.921C7.298 7.227 11.049 3.158 15.816 3h3.595c5-.078 9.064 3.991 9.142 9v.078C28.397 17.009 24.412 21 19.411 21zM16.442 4.566c-4.063 0-7.423 3.365-7.423 7.435 0 4.069 3.36 7.434 7.423 7.434 4.064 0 7.424-3.365 7.424-7.434 0-4.07-3.36-7.435-7.424-7.435zm1.172 12.443V7.07c2.735.705 4.455 3.444 3.751 6.183a5.092 5.092 0 0 1-3.75 3.756zm-2.344 0c-2.735-.704-4.376-3.522-3.673-6.26A5.143 5.143 0 0 1 15.27 7.07v9.939z"/>
    </g>
</svg>
