<svg xmlns="http://www.w3.org/2000/svg" width="36" height="24" viewBox="0 0 36 24">
    <g fill="none" fill-rule="evenodd">
        <path d="M0 0h36v24H0z"/>
        <path fill="#1A1919" d="M5.345 13.464c-.303.26-.688.373-1.305.373h-.256v-3.092h.256c.617 0 .988.106 1.305.378a1.571 1.571 0 0 1 0 2.342zM4.231 9.953h-1.4v4.676h1.391c.741 0 1.276-.169 1.744-.541a2.31 2.31 0 0 0 .887-1.796c0-1.38-1.077-2.339-2.622-2.339zM7.293 9.953h.95v4.676h-.95V9.953zm3.281 1.792c1.084.38 1.408.717 1.408 1.46 0 .903-.697 1.537-1.687 1.537-.725 0-1.251-.275-1.69-.891l.614-.57c.22.408.586.625 1.04.625.425 0 .74-.28.74-.66a.552.552 0 0 0-.285-.481c-.097-.058-.287-.143-.66-.267-.894-.312-1.2-.64-1.2-1.286 0-.761.658-1.337 1.523-1.337.534 0 1.025.175 1.434.52l-.495.622c-.25-.267-.486-.376-.771-.376-.412 0-.711.223-.711.516 0 .253.167.387.74.588zm1.707.547c0-1.358 1.156-2.445 2.6-2.445.412 0 .755.084 1.173.286v1.073c-.396-.372-.741-.525-1.193-.525-.896 0-1.597.709-1.597 1.605 0 .947.68 1.612 1.639 1.612.433 0 .769-.145 1.15-.512v1.074c-.432.195-.783.273-1.192.273-1.452 0-2.58-1.066-2.58-2.44zm11.493.8l1.321-3.139h1.03l-2.11 4.794h-.512l-2.071-4.794h1.039l1.303 3.14zm2.784 1.537V9.953h2.703v.792h-1.75v1.037h1.683v.792h-1.682v1.263h1.749v.792h-2.703zM31.122 12.103h-.277V10.69h.292c.596 0 .915.239.915.694 0 .468-.32.72-.93.72zm1.91-.77c0-.876-.627-1.38-1.727-1.38H29.89v4.676h.955v-1.88h.124l1.316 1.88h1.173l-1.538-1.97c.719-.141 1.113-.61 1.113-1.326z"/>
        <path fill="#E6772F" d="M21.566 12.303c0 1.346-1.14 2.437-2.547 2.437-1.407 0-2.547-1.09-2.547-2.437 0-1.346 1.14-2.438 2.547-2.438 1.407 0 2.547 1.092 2.547 2.438"/>
    </g>
</svg>
