<svg width="16" height="16" viewBox="0 0 16 16" xmlns="http://www.w3.org/2000/svg"><g id="Desktop-Final" stroke="none" stroke-width="1" fill="none" fill-rule="evenodd"><g id="pdp_size_picker_states" transform="translate(-331 -935)"><g id="Size-Picker-2" transform="translate(50 815)"><g id="Picker" transform="translate(1 47)"><g id="2" transform="translate(0 57)"><g id="edd" transform="translate(274 14)"><g id="delivery-slow" transform="translate(6 2)"><path id="Fill-1" d="M0 0h16v16H0z"/><path d="M12.083 12.1a1.168 1.168 0 0 1 0-2.333 1.168 1.168 0 0 1 0 2.333zm-2.255-1.734c-.027-.004-.05-.016-.078-.016V5.683h1.75c.27 0 .573.29.748.597l.895 1.502c.107.168.107.301.107.457v.686a2.304 2.304 0 0 0-1.167-.325c-1.09 0-2 .754-2.255 1.766zM6.25 10.35c-.027 0-.051.012-.078.016A2.331 2.331 0 0 0 3.917 8.6c-.426 0-.821.123-1.165.324L2.75 2.767h5.833v7.583H6.25zM3.917 12.1a1.167 1.167 0 0 1-1.166-1.153l-.001-.009v-.03c0-.632.53-1.141 1.166-1.141a1.167 1.167 0 0 1 .001 2.333zm10.208-4.947-.875-1.47c-.321-.57-.959-1.166-1.75-1.166H9.75v-1.75c0-.646-.583-1.167-1.167-1.167H2.75c-.583 0-1.167.52-1.167 1.162l.003 8.146-.003.025a2.336 2.336 0 0 0 2.334 2.334c1.09 0 2-.755 2.255-1.766.027.003.05.016.078.016h3.5c.027 0 .051-.013.078-.016.255 1.011 1.166 1.711 2.255 1.711 1.25 0 2.265-1.112 2.323-2.279h.01V8.24c0-.222 0-.63-.291-1.086z" id="Page-1" fill="#333"/></g></g></g></g></g></g></g></svg>