<svg xmlns="http://www.w3.org/2000/svg" width="240" height="180" viewBox="0 0 240 180">
    <g fill="none" fill-rule="evenodd">
        <path d="M0 0h240v180H0z" opacity=".199"/>
        <path fill="#EFF1F4" d="M123.268 122.873c-8.395.634-15.595-4.046-16.085-10.483-.389-5.083 3.514-9.72 9.288-11.765a19.285 19.285 0 0 1 4.997-1.05c1.93-.145 3.801-.015 5.53.373 5.817 1.238 10.181 5.155 10.555 10.11.504 6.421-5.904 12.167-14.285 12.815zm33.466-16.273c.202 0 .389 0 .576-.043-3.5 16.732-18.331 29.29-36.115 29.29-16.188 0-29.94-10.43-34.912-24.939a5.402 5.402 0 0 1-2.683.732c-3.575 0-6.472-3.61-6.472-8.063 0-4.454 2.897-8.064 6.472-8.064.287 0 .569.031.846.077 1.695-18.807 17.503-33.558 36.749-33.558 15.94 0 29.52 10.109 34.675 24.264a6.91 6.91 0 0 0-1.34.259c-4.175-14.054-18.086-23.544-33.407-21.873-17.194 1.886-29.635 17.136-27.778 34.085 1.858 16.948 17.295 29.16 34.489 27.273 12.096-1.328 24.484-8.945 28.607-19.424-.024-.002-.021-.004.002-.008.034-.084.077-.164.109-.248.375.149.295.214.148.24h.034z"/>
        <path fill="#FFF" d="M127.262 102.483c.126 2.138-1.406 4.004-3.412 4.141l-4.282.288c-2.006.135-3.744-1.527-3.87-3.665l-.11-2.156a19.88 19.88 0 0 1 5.481-1.238c2.117-.17 4.171-.017 6.067.441l.126 2.19z"/>
        <path fill="#9E9EA7" d="M114.253 103.165c-.783.466-1.509.996-2.167 1.586-2.358 2.113-3.545 4.74-3.34 7.392.432 5.628 6.955 9.733 14.536 9.151 3.743-.288 7.162-1.664 9.626-3.873 2.36-2.113 3.546-4.739 3.342-7.392-.204-2.652-1.778-5.066-4.432-6.794a14.19 14.19 0 0 0-3.158-1.526l.04.691c.172 2.933-1.96 5.471-4.753 5.66l-4.282.288a4.91 4.91 0 0 1-3.584-1.239 5.483 5.483 0 0 1-1.82-3.778l-.008-.166zm-.01-41.3c-1.946-2.688-5.738-7.612-9.189-10.287a1.44 1.44 0 0 1 1.765-2.277c3.296 2.556 6.743 6.814 8.914 9.722.475-1.862 1.436-4.19 3.35-6.62a1.441 1.441 0 0 1 2.263 1.782c-2.303 2.925-2.956 5.593-3.126 7.154 16.56-1.318 31.96 8.155 38.283 23.046 2.514-.097 4.95.677 6.953 2.228a10.478 10.478 0 0 1 4.014 7.053 10.476 10.476 0 0 1-2.19 7.814 10.603 10.603 0 0 1-6.263 3.857c-2.698 16.409-16.072 29.552-33.169 31.651a38.725 38.725 0 0 1-4.714.29c-15.36 0-29.278-9.206-35.21-23.17-5.13-.189-9.516-4.06-10.158-9.281-.64-5.223 2.68-10.04 7.611-11.465 2.499-15.749 14.825-28.528 30.866-31.498zm2.648 2.503c-17.687 2.191-31.053 17.15-31.098 34.808a1.44 1.44 0 0 1-1.44 1.437h-.003a1.44 1.44 0 0 1-1.437-1.443c.002-.872.035-1.739.096-2.598-2.937 1.39-4.797 4.532-4.384 7.905.414 3.37 2.986 5.967 6.166 6.607a37.808 37.808 0 0 1-.717-2.477 1.44 1.44 0 1 1 2.792-.706c4.327 17.126 20.94 28.406 38.63 26.228 17.7-2.173 31.085-17.134 31.138-34.8.002-.796.664-1.454 1.444-1.436.796.003 1.438.65 1.436 1.445a37.799 37.799 0 0 1-.121 2.922 7.74 7.74 0 0 0 3.625-2.562 7.617 7.617 0 0 0 1.593-5.68 7.62 7.62 0 0 0-2.92-5.129 7.739 7.739 0 0 0-4.095-1.604c.285.863.54 1.741.765 2.634a1.44 1.44 0 0 1-2.793.703c-4.312-17.132-20.9-28.42-38.597-26.264a1.432 1.432 0 0 1-.08.01zM69.567 81.232c1.06.316 2.649-.056 3.744-.39-1.077-1.29-2.127-2.161-2.9-2.39a2.14 2.14 0 0 0-1.467.003 1.269 1.269 0 0 0-.696.839c-.397 1.348 1.027 1.85 1.319 1.938zm.96 2.28c-.537 0-1.064-.06-1.551-.204a4.18 4.18 0 0 1-2.546-1.902 3.53 3.53 0 0 1-.272-2.726 3.408 3.408 0 0 1 1.953-2.243 4.295 4.295 0 0 1 2.91-.108c1.43.429 3.052 1.828 4.82 4.159l.842 1.205-1.086.59c-.055.028-2.661 1.23-5.07 1.23zm51.344 40.716c-8.456 0-15.477-5.085-15.998-11.864-.274-3.567 1.25-7.032 4.291-9.757 2.934-2.63 6.958-4.264 11.328-4.6 4.37-.33 8.597.664 11.9 2.815 3.42 2.228 5.456 5.42 5.73 8.987.273 3.567-1.25 7.031-4.29 9.757-2.935 2.63-6.959 4.263-11.329 4.6-.549.041-1.094.062-1.632.062zm-18.904-29.853a1.46 1.46 0 0 1-1.462-1.418c-.06-2.117.772-6.2 4.35-6.506 3.551-.307 5.075 3.062 5.383 4.884a1.462 1.462 0 1 1-2.882.49c-.018-.1-.506-2.643-2.25-2.46-1.704.145-1.677 3.48-1.677 3.513a1.463 1.463 0 0 1-1.425 1.496l-.038.001zm25.596-3.28l-.065-.001a1.441 1.441 0 0 1-1.375-1.503c.094-2.11 1.271-6.11 5.045-6.14h.05c3.691 0 5.032 3.424 5.225 5.243.083.79-.49 1.5-1.28 1.585a1.445 1.445 0 0 1-1.585-1.281c-.03-.266-.373-2.667-2.366-2.667h-.02c-1.986.016-2.19 3.354-2.192 3.388a1.44 1.44 0 0 1-1.437 1.376zm-11.483 11.002l.056 1.076c.04.685.35 1.335.848 1.775.43.376.962.566 1.488.527l4.281-.288c1.202-.08 2.151-1.28 2.072-2.619v-.002l-.063-1.087a18.257 18.257 0 0 0-4.578-.19c-1.378.108-2.754.38-4.104.808zM77.834 65.31c.721.782 2.225 1.287 3.417 1.551-.187-1.13-.567-2.771-1.273-3.549-.2-.216-1.278-1.273-2.3-.329-1.018.943-.049 2.103.156 2.327zm5.851 4.136l-1.297-.162c-.015 0-4.234-.419-6.152-2.501a4.168 4.168 0 0 1-1.187-2.933 3.538 3.538 0 0 1 1.16-2.477 3.48 3.48 0 0 1 2.498-.964c1.038.035 2.06.541 2.88 1.425 1.8 1.946 2.018 6.338 2.017 6.378l.081 1.234zm81.503 3.714c1.139.11 2.77.159 3.747-.36.266-.142 1.565-.916.918-2.142a1.3 1.3 0 0 0-.896-.711 2.093 2.093 0 0 0-1.368.278c-.738.392-1.6 1.457-2.401 2.935zm1.37 2.243c-1.742 0-3.27-.362-3.295-.368l-1.212-.374.584-1.345c1.274-2.641 2.589-4.336 3.909-5.037a4.259 4.259 0 0 1 2.846-.472 3.44 3.44 0 0 1 2.394 1.843 3.49 3.49 0 0 1 .268 2.669 4.203 4.203 0 0 1-2.16 2.414c-.96.513-2.193.67-3.334.67zm-9.915-19.106c-.154 0-.308.031-.463.093-.376.15-.742.483-1.006.915-.413.693-.607 2.05-.544 3.726 1.118-.496 2.494-1.289 3.045-2.2.156-.259.877-1.589-.308-2.309a1.375 1.375 0 0 0-.724-.225zm-3.884 7.746l-.178-1.295v.001s-.66-4.304.73-6.58c.625-1.029 1.526-1.728 2.537-1.968.905-.218 1.823-.057 2.654.46a3.499 3.499 0 0 1 1.606 2.162 4.145 4.145 0 0 1-.589 3.158c-1.376 2.268-5.175 3.538-5.522 3.65l-1.238.412z"/>
    </g>
</svg>
