<svg xmlns="http://www.w3.org/2000/svg" width="24" height="24" viewBox="0 0 24 24">
    <g fill="none" fill-rule="evenodd" opacity=".8">
        <path d="M0 0h24v24H0z"/>
        <path fill="#000" fill-rule="nonzero" d="M8.024 13.605H3.72a.86.86 0 0 1 0-1.72h4.303a.86.86 0 0 1 0 1.72zm2.581-3.442H4.582a.86.86 0 0 1 0-1.72h6.023a.86.86 0 1 1 0 1.72zM18.35 20.49c.95 0 1.721-.772 1.721-1.722 0-.949-.772-1.72-1.72-1.72-.95 0-1.722.771-1.722 1.72 0 .95.772 1.722 1.721 1.722zm-3.327-2.559a3.44 3.44 0 0 1 3.327-2.605c.69 0 1.331.209 1.87.56l.059-1.177a1.991 1.991 0 0 0-.158-.673l-1.345-2.383c-.166-.294-.736-.63-1.07-.63h-2.368c-.035 0-.069-.008-.104-.01-.166 2.484-.458 6.382-.496 6.895h.17c.04 0 .076.018.115.023zm-8.72 2.559c.949 0 1.72-.772 1.72-1.722 0-.949-.771-1.72-1.72-1.72-.95 0-1.721.771-1.721 1.72 0 .95.771 1.722 1.72 1.722zm15.695-5.696l-.206 4.135-.014-.013a3.439 3.439 0 0 1-3.428 3.295 3.44 3.44 0 0 1-3.327-2.605c-.04.005-.075.023-.115.023H9.745c-.04 0-.076-.018-.116-.023a3.44 3.44 0 0 1-3.326 2.605 3.446 3.446 0 0 1-3.442-3.443c0-.63.182-1.212.478-1.72h-.478a.86.86 0 0 1 0-1.722h3.442a3.44 3.44 0 0 1 3.326 2.605c.04-.005.075-.023.116-.023h3.28c0-.022-.01-.042-.008-.065.006-.068.517-6.892.601-8.584 0-.01.007-.02.008-.03.001-.032-.004-.065 0-.098.07-.708.164-2.01.192-2.41H5.442a.86.86 0 0 1-.86-.86c0-.442.337-.793.765-.842L5.325 5H13.945c.946 0 1.662.768 1.598 1.72 0 0-.119 1.722-.205 2.583h2.37c.948 0 2.092.663 2.566 1.504l1.346 2.384c.232.41.401 1.136.378 1.603z"/>
        <path fill="#00A84F" d="M12.5 0h7a4 4 0 1 1 0 8h-7a4 4 0 1 1 0-8z"/>
        <path fill="#FFF" d="M11.1 5.562V2.5h2.07v.643h-1.358v.69h1.12v.638h-1.12v1.09H11.1zm4.956 0h-.845l-.63-.988h-.25v.988h-.711V2.5h1.194c.755 0 1.096.448 1.096 1.057 0 .465-.216.771-.57.918v.009l.716 1.078zm-1.725-2.428v.81h.332c.307 0 .496-.155.496-.405 0-.228-.164-.405-.483-.405h-.345zm2.115 2.428V2.5h1.996v.643h-1.29v.586h1.019v.634h-1.018v.556h1.38v.643h-2.087zm2.567 0V2.5h1.996v.643H19.72v.586h1.018v.634H19.72v.556h1.38v.643h-2.087z"/>
    </g>
</svg>
