<svg xmlns="http://www.w3.org/2000/svg" xmlns:xlink="http://www.w3.org/1999/xlink" width="24" height="24" viewBox="0 0 24 24">
    <defs>
        <path id="a" d="M9.414 8l2.122-2.121a1 1 0 1 0-1.415-1.415L8 6.586 5.879 4.464A1 1 0 0 0 4.464 5.88L6.586 8l-2.122 2.121a1 1 0 0 0 1.415 1.415L8 9.414l2.121 2.122a1 1 0 0 0 1.415-1.415L9.414 8zM8 16A8 8 0 1 1 8 0a8 8 0 0 1 0 16z"/>
    </defs>
    <use fill="#000" fill-opacity=".8" fill-rule="evenodd" transform="translate(4 4)" xlink:href="#a"/>
</svg>
