<svg xmlns="http://www.w3.org/2000/svg" width="72" height="72" viewBox="0 0 72 72">
    <path fill="#FFF" fill-rule="evenodd" d="M41.09 21.766a1.27 1.27 0 0 1-.328-2.493c.56-.15 1.14-.242 1.723-.271a1.268 1.268 0 0 1 .127 2.534c-.403.02-.804.083-1.192.187-.11.03-.221.043-.33.043m6.271 2.529c-.468 0-.918-.26-1.139-.71a4.206 4.206 0 0 0-.624-.944 1.268 1.268 0 0 1 1.895-1.686c.39.437.727.946 1.006 1.512a1.268 1.268 0 0 1-1.138 1.828m-10.976.88a1.269 1.269 0 0 1-1.007-2.039c.34-.444.699-.86 1.068-1.237a1.269 1.269 0 0 1 1.812 1.775c-.297.303-.587.64-.864 1.002-.25.327-.627.499-1.009.499m11.778 4.914a1.268 1.268 0 0 1-1.265-1.372c.037-.45.055-.892.055-1.31v-.065a1.268 1.268 0 0 1 2.537 0v.064c0 .488-.021.999-.064 1.518a1.268 1.268 0 0 1-1.263 1.165m-14.492.318a1.268 1.268 0 0 1-1.195-1.693c.177-.498.366-.986.562-1.45a1.268 1.268 0 1 1 2.336.99c-.177.417-.348.858-.508 1.309-.185.52-.673.844-1.195.844zm12.88 21.89c-4.616 0-6.767-2.88-6.857-3.004a1.268 1.268 0 0 1 2.051-1.493c.054.07 1.53 1.96 4.806 1.96 4.49 0 4.874-2.788 4.878-2.816.006-.053.006-.066.02-.118.002-.015.144-.847-.456-1.587-.706-.87-2.208-1.365-4.343-1.428-2.796-.084-4.813-.868-5.996-2.331a4.783 4.783 0 0 1-1.017-3.625c.037-.3.225-1.374 1.113-2.424.86-1.017 2.575-2.23 5.869-2.23 3.574 0 5.642 2.124 5.728 2.215a1.269 1.269 0 0 1-1.829 1.758c-.073-.074-1.462-1.436-3.9-1.436-4.216 0-4.458 2.37-4.46 2.394-.004.055-.005.072-.016.126-.003.018-.126.895.509 1.655.694.833 2.103 1.303 4.074 1.362 2.98.089 5.097.906 6.289 2.43a4.64 4.64 0 0 1 .927 3.588c-.235 1.76-2.065 5.005-7.39 5.005zm-24.887-.21h-.001c-.7-.001-1.268-.57-1.267-1.27v-.001l.002-2.599c.004-3.83.01-11.15.007-16.819a13.047 13.047 0 0 1-1.246-.033 1.268 1.268 0 0 1 .217-2.527c.253.02.609.034 1.028.026-.002-1.734-.004-3.176-.008-4.112-.01-2.097.85-3.802 2.358-4.678a4.159 4.159 0 0 1 4.154-.014c1.504.866 2.366 2.574 2.366 4.686 0 1.807-.625 3.297-1.86 4.429-1.25 1.147-2.944 1.713-4.472 1.986v4.765c1.488-1.928 3.434-2.936 5.713-2.936 2.863 0 7.666 1.2 7.666 9.231v4.846c.006.491.189 1.93.951 2.564a1.268 1.268 0 1 1-1.62 1.951c-1.805-1.498-1.867-4.206-1.868-4.51v-4.85c0-4.568-1.63-6.695-5.129-6.695-3.381 0-5.714 4.351-5.714 6.798l-.006 5.895-.002 2.6c-.001.7-.569 1.266-1.269 1.266zm3.181-30.043c-.28 0-.56.075-.817.223-.701.408-1.1 1.31-1.095 2.474.003.886.006 2.225.007 3.835 1.034-.23 2.055-.622 2.764-1.275.696-.64 1.034-1.475 1.034-2.555 0-1.18-.4-2.087-1.095-2.487a1.593 1.593 0 0 0-.798-.215z"/>
</svg>
