<?xml version="1.0" encoding="UTF-8"?>
<svg width="96px" height="40px" viewBox="0 0 96 40" version="1.1" xmlns="http://www.w3.org/2000/svg" xmlns:xlink="http://www.w3.org/1999/xlink">
    <!-- Generator: Sketch 53.2 (72643) - https://sketchapp.com -->
    <title>ic_hopscotch_pink</title>
    <desc>Created with Sketch.</desc>
    <g id="Final" stroke="none" stroke-width="1" fill="none" fill-rule="evenodd">
        <g id="nps_v2_10a_h" transform="translate(-20.000000, -234.000000)" fill="#ED54A4" fill-rule="nonzero">
            <g id="1" transform="translate(20.000000, 234.000000)">
                <g id="hs_icon">
                    <path d="M25.9254252,17.1547492 L26.0052072,17.0905141 L26.2419008,17.1158993 L26.8182028,17.8296491 L26.7931115,18.0664071 L26.7138759,18.1305307 C26.3787148,18.4012981 26.1214788,18.6217862 25.9659119,18.7620514 L25.8908662,18.8297556 L25.6575704,18.8224264 L25.5830169,18.7460055 L25.0332257,18.1431928 L25.0437373,17.9056255 L25.1231049,17.8328626 C25.2663152,17.7023187 25.5385361,17.4674615 25.9254252,17.1547492 Z M49.9910475,18.9200887 L50.0571203,18.9690315 C50.5341317,19.3223576 50.5713628,19.3549821 50.5777144,19.490752 C50.5771979,19.5282375 50.5771979,19.5282375 50.5747184,19.5459063 L50.567377,19.6054534 L50.5218275,19.6643524 L50.5307869,19.6689055 C50.3627968,19.9994665 50.0914723,20.2598456 49.695013,20.2598456 C49.1942565,20.2598456 48.9844364,20.0071064 48.3411907,18.8684621 L48.3080862,18.8100182 C48.2059779,18.6294073 48.1388776,18.5116874 48.0646213,18.3836473 L48.0136392,18.2955502 L48.0748455,18.0655125 L48.8685353,17.6046341 L49.0986203,17.6654268 L49.1503649,17.7541349 C49.2394794,17.9083852 49.3244128,18.0576872 49.4329606,18.2502063 C49.5195774,18.4034446 49.5644977,18.4824402 49.6183812,18.5754916 C49.6358163,18.6055568 49.6358163,18.6055568 49.6532775,18.6354743 C49.7224699,18.7538179 49.7820743,18.85196 49.8307519,18.927168 L49.9910475,18.9200887 Z M54.3616939,13.0544122 L54.42983,12.9789744 L54.6681976,12.9672924 L55.3472795,13.5851958 L55.3582804,13.8233933 L55.2896465,13.8985243 C54.8739531,14.3559475 54.4536156,14.8414598 54.0022233,15.3850231 L53.937374,15.4633316 L53.700209,15.485635 L52.9933928,14.9003601 L52.9708727,14.6634447 L53.0364673,14.5839126 C53.4989185,14.0267671 53.932987,13.5258255 54.3616939,13.0544122 Z M48.0177428,16.0224172 L48.0789213,16.1035807 L48.0457753,16.3395029 L47.3128562,16.8917413 L47.0769778,16.8586014 L47.015777,16.7774083 C46.618849,16.2505766 46.2087064,15.792246 45.762293,15.3759658 L45.6876552,15.307038 L45.6786394,15.0685223 L46.3042921,14.3963739 L46.5425937,14.3880662 L46.6171533,14.4577366 C47.1111007,14.9181188 47.5825509,15.4447763 48.0177428,16.0224172 Z M51.7749247,16.1545254 L51.8380776,16.0741475 L52.0742238,16.045472 L52.7973543,16.610354 L52.8266218,16.8465136 L52.7635585,16.9275942 C52.4891799,17.2785918 52.2459304,17.5939642 51.8700982,18.0839979 L51.5805197,18.4955257 L51.3399797,18.5320424 L50.6123628,17.9716468 L50.5779686,17.740438 L50.9081316,17.2773125 C51.253191,16.8269807 51.5056117,16.4996267 51.7749247,16.1545254 Z M57.3873566,10.16206 L57.6241684,10.1877556 L58.1992468,10.902729 L58.1728899,11.1400978 L58.0937508,11.203082 C57.6266737,11.5795079 57.1397502,12.0126232 56.6466863,12.4907679 L56.5732721,12.5613271 L56.3356194,12.5571404 L55.6969153,11.8984513 L55.7007713,11.6600815 L55.7740155,11.5892789 C56.2965509,11.0827396 56.8127341,10.623979 57.3082562,10.2256665 L57.3873566,10.16206 Z M44.9328026,13.1785198 L45.020084,13.2315412 L45.076492,13.463125 L44.5992992,14.2466183 L44.3679826,14.3029612 L44.2805418,14.2498428 C43.7563275,13.9305995 43.1918657,13.6629311 42.602941,13.4540607 L42.5066868,13.4202086 L42.4038261,13.2049728 L42.7109424,12.3395002 L42.9263858,12.2372156 L43.0220437,12.2714082 C43.6918759,12.5090518 44.3349824,12.8144305 44.9328026,13.1785198 Z M32.9566058,12.8913204 L33.1775081,12.9816396 L33.5311201,13.8287586 L33.4403176,14.0491934 L33.3464094,14.0882199 C32.7712828,14.3285652 32.1813326,14.6060151 31.5919702,14.913438 L31.5018338,14.9603416 L31.274774,14.8889026 L30.8501949,14.0760435 L30.9212138,13.8489097 L31.0117089,13.8014106 C31.6313685,13.4780565 32.254431,13.1850879 32.8633122,12.9306669 L32.9566058,12.8913204 Z M38.9031161,11.6052419 C39.6204129,11.6052419 40.3200493,11.657556 40.9821316,11.7606574 L41.0828723,11.7765638 L41.223029,11.9689378 L41.0815026,12.8751961 L40.8894616,13.015692 L40.7883677,13.0001388 C40.1913575,12.9069939 39.5573123,12.8598101 38.9031161,12.8598101 L38.8011519,12.8598101 L38.6327069,12.6913652 L38.6327069,11.7736868 L38.8011519,11.6052419 L38.9031161,11.6052419 Z M29.240998,14.8091452 L29.3280361,14.7556146 L29.5597068,14.8107636 L30.0409781,15.5922176 L29.9860968,15.8238441 L29.8994029,15.8774142 C29.3529244,16.2138957 28.8044926,16.5765207 28.2699951,16.9547679 L28.1863844,17.0139072 L27.95152,16.9735549 L27.4221216,16.2239136 L27.4621269,15.9894486 L27.5456632,15.9300729 C28.1004778,15.5377426 28.6706708,15.1608127 29.240998,14.8091452 Z M36.82028,11.7678919 L36.9213745,11.7519293 L37.1139946,11.8918228 L37.2583759,12.798489 L37.1182981,12.9913628 L37.0176895,13.0072483 C36.4184824,13.1023478 35.7927546,13.246723 35.1584421,13.4363705 L35.0605564,13.4653283 L34.8514061,13.3521231 L34.5883384,12.473599 L34.7019196,12.2637542 L34.7992499,12.2349617 C35.4820791,12.030401 36.1623144,11.873216 36.82028,11.7678919 Z M82.5445586,0.0421514581 C83.3925016,-0.0844199775 84.1998282,0.0752576631 84.8773346,0.504990335 L84.9633924,0.559643177 L85.0153384,0.792052744 L84.5238707,1.56698109 L84.2918003,1.61926375 L84.2053017,1.56473998 C83.7815481,1.2957977 83.2864238,1.20051213 82.728652,1.2828059 L82.6279114,1.29789661 L82.436324,1.15594957 L82.302139,0.248467688 L82.443818,0.0572421681 L82.5445586,0.0421514581 Z M77.3935159,3.65964067 L77.4597689,3.58193615 L77.6970077,3.56285242 L78.3964825,4.15710011 L78.4156002,4.39476144 L78.3496433,4.4721181 C77.9615662,4.92825046 77.5662825,5.42974923 77.1411688,6.00535608 L77.080806,6.08733535 L76.8451181,6.12297538 L76.106489,5.57767054 L76.0709784,5.34216512 L76.1318852,5.25959372 C76.5748757,4.66073628 76.9874792,4.13745156 77.3935159,3.65964067 Z M80.4693464,0.849381679 L80.5567139,0.795647432 L80.7881553,0.850425094 L81.2714658,1.63065558 L81.2173015,1.86235099 L81.1304265,1.91644213 C80.6645755,2.20465501 80.1717375,2.5925695 79.6667831,3.06902476 L79.5925532,3.13917617 L79.3542817,3.13229135 L78.7245504,2.46422154 L78.731446,2.22623905 L78.80538,2.15638988 C79.3710525,1.62294706 79.9309135,1.18309358 80.4693464,0.849381679 Z M74.9674076,6.9129819 L75.0243538,6.82837577 L75.2585127,6.78293685 L76.0183503,7.29724456 L76.0634606,7.53110684 L76.0063927,7.61548583 C75.6809246,8.09706632 75.3367881,8.62079478 74.9188232,9.2702232 L74.8641703,9.35628103 L74.630972,9.40772366 L73.8584907,8.91176952 L73.8081102,8.67846002 L73.8632804,8.59327242 C74.2799817,7.94520607 74.6312429,7.41066957 74.9674076,6.9129819 Z M87.2933562,4.21797146 L87.1866426,4.43109914 L86.3158678,4.72026977 L86.1029797,4.61367603 L86.0707107,4.51686875 C85.8504899,3.8542007 85.5991157,3.28160379 85.3242929,2.81532233 L85.2724951,2.72722521 L85.3322501,2.49668808 L86.1234927,2.03091536 L86.3542707,2.09090834 L86.4055304,2.17837569 C86.7265775,2.72428059 87.0143162,3.37795698 87.2611977,4.12149609 L87.2933562,4.21797146 Z M88.1243218,8.13361097 L88.1373748,8.23477173 L87.9917237,8.42340677 L87.0813868,8.54005388 L86.892929,8.39461692 L86.8798542,8.29369494 C86.7931493,7.61869276 86.6857964,6.97243279 86.5609271,6.37362244 L86.5405342,6.27410532 L86.6711054,6.07540498 L87.5692066,5.88779075 L87.7684258,6.01770381 L87.789766,6.11825491 C87.9196839,6.74202447 88.0322228,7.42025502 88.1243218,8.13361097 Z M70.6411392,13.2250223 L70.7061887,13.183405 L70.9102961,13.2006793 L71.5632752,13.7945191 L71.5687307,14.0385663 L71.4931908,14.1136993 C71.2076617,14.3992283 71.0079839,14.5235813 70.6688974,14.5235813 C70.0467581,14.5235813 69.6392649,14.1551762 68.9368801,13.1655276 L68.8777409,13.0823248 L68.9176482,12.8472992 L69.6664737,12.3166772 L69.9014768,12.3569753 L69.9598893,12.4397279 C70.0833683,12.613446 70.1577918,12.7153355 70.253477,12.837438 C70.2992211,12.8958113 70.3431562,12.9497511 70.3851045,12.9988004 C70.4810558,13.1109942 70.5653066,13.194185 70.6214924,13.2375749 C70.6275584,13.2336904 70.6340837,13.2295221 70.6411392,13.2250223 Z M72.7882044,10.2788577 L72.8436699,10.1925749 L73.0758058,10.1415584 L73.8499185,10.6342497 L73.9013634,10.8671359 L73.8464786,10.9529182 C73.3767156,11.6902878 73.0484487,12.1937502 72.7401632,12.6420038 L72.6826553,12.7260223 L72.448205,12.7696726 L71.6920381,12.2496548 L71.6485826,12.0155758 L71.7066608,11.9309129 C72.0053367,11.4971052 72.3302166,10.9983169 72.7882044,10.2788577 Z M67.1867827,9.32779416 C67.7334645,9.72666775 68.2412765,10.2081358 68.7386592,10.7984421 L68.8047321,10.8763428 L68.7848048,11.1141175 L68.0828829,11.7055102 L67.8452774,11.684924 L67.7799246,11.6069866 C67.3470664,11.0937918 66.9114651,10.6803098 66.447735,10.3416749 L66.3653478,10.2817199 L66.3283711,10.0462602 L66.8691895,9.30477612 L67.1043955,9.26783918 L67.1867827,9.32779416 Z M63.147154,7.92165917 C63.8928969,7.96459441 64.6044299,8.0998098 65.2614829,8.32382491 L65.358145,8.35645347 L65.4637104,8.57039486 L65.1676062,9.43913032 L64.9534856,9.54410873 L64.8577178,9.51123844 C64.3054502,9.32357082 63.7061967,9.21030952 63.0754416,9.17484578 L62.9734774,9.16872792 L62.8153936,8.99100545 L62.8675993,8.07455071 L63.0451898,7.91594917 L63.147154,7.92165917 Z M61.0653083,8.129593 L61.2745794,8.24320364 L61.5356079,9.12295125 L61.4214677,9.33251969 L61.3245791,9.36089591 C60.7944955,9.51825208 60.2314687,9.7711872 59.6522598,10.1125548 L59.5645706,10.1647605 L59.3332596,10.1055075 L58.8674869,9.3146727 L58.9274606,9.08386193 L59.0146377,9.03277332 C59.6816289,8.63871757 60.3382342,8.34463708 60.9674341,8.15854745 L61.0653083,8.129593 Z M88.3682801,11.3241031 L88.2023259,11.4952248 L87.2842397,11.508684 L87.1133376,11.3422623 L87.1121021,11.2374772 C87.1121021,11.1310621 87.096607,10.7104452 87.0680368,10.255411 L87.0611033,10.1538546 L87.2183747,9.9742816 L88.1340137,9.91555018 L88.3128971,10.0728912 L88.3194195,10.1748038 C88.350201,10.6534559 88.3665504,11.0962245 88.3666696,11.2234451 L88.3682801,11.3241031 Z M2.36964932,20.1801911 C2.56256569,20.1398133 2.73019493,20.0941333 2.86886632,20.043559 C3.28080191,19.9065191 3.63482181,19.7221677 3.92317673,19.4945835 C4.20949236,19.2686307 4.46236372,18.9688558 4.67485723,18.6054552 C4.77315077,18.3648195 4.82576433,18.1005282 4.82576433,17.8325661 C4.82576433,17.6253747 4.7919122,17.4145127 4.72502364,17.2048741 C4.65854295,16.9984985 4.55780226,16.8117 4.42524873,16.6497807 C4.30941733,16.5049915 4.17033809,16.3916072 4.01127385,16.3116673 C3.71639322,16.164023 3.49492685,16.1746273 3.29833977,16.235398 C3.20575622,16.2635401 3.09889768,16.315338 2.981027,16.3891601 C2.78566349,16.5151879 2.61803425,16.8190414 2.484665,17.2921555 C2.43898501,17.5083198 2.40798788,17.7514026 2.39330503,18.0148782 C2.37780646,18.2848795 2.36964932,18.5479473 2.36964932,18.7979637 L2.36964932,20.1801911 Z M11.005614,32.1430456 C11.1088018,32.509709 11.3253739,32.8151939 11.6492124,33.0513432 L11.7291523,33.1092589 L10.8624562,34.3829964 L10.7780298,34.3238571 C10.4545991,34.0970886 10.1878606,33.8221929 9.98556356,33.5065116 C9.78530576,33.1949088 9.62705724,32.8661761 9.51571227,32.529694 C9.433733,32.2058555 9.38519802,31.8905821 9.36929159,31.585505 C9.35338517,31.2824672 9.34522803,30.9871788 9.34522803,30.7086124 L9.34522803,28.2378145 C9.34522803,27.6248054 9.24856592,27.0542135 9.05768883,26.5427607 C8.86558817,26.0304923 8.59884967,25.5773632 8.26481477,25.1976483 C7.6106121,24.4072214 6.80509447,24.0079293 5.86947046,24.0079293 C4.91753216,24.0079293 4.10426525,24.4072214 3.45291758,25.1952011 C3.13071053,25.563496 2.87172132,26.008468 2.68125209,26.519105 C2.48955928,27.0321892 2.38474003,27.5872826 2.36964932,28.1697024 L2.36964932,33.941695 L0.847526899,33.941695 L0.847526899,21.9229642 C0.742299787,21.9323449 0.638296245,21.9368314 0.53755556,21.9368314 L7.1942452e-14,21.9368314 L7.1942452e-14,20.3910532 L0.53755556,20.3910532 C0.639519816,20.3910532 0.743523358,20.3861589 0.847526899,20.3767782 L0.847526899,18.7979637 C0.847526899,18.5283702 0.85568404,18.2338974 0.871590464,17.9218868 C0.887089031,17.6037583 0.927059019,17.2742098 0.990684715,16.9430299 C1.07225612,16.6155207 1.20236251,16.286788 1.37774103,15.9600945 C1.55679027,15.6260596 1.82148948,15.3405597 2.16449724,15.111344 C2.37250432,14.9514641 2.60661425,14.834817 2.85377561,14.7683363 C3.5438697,14.583577 4.19032308,14.6651484 4.7197215,14.9665548 C5.05987426,15.1611026 5.34700561,15.4078561 5.5729584,15.699066 C5.81237047,15.9857895 6.00814185,16.315338 6.15252323,16.6771072 C6.29772033,17.0405078 6.37154246,17.4291955 6.37154246,17.8325661 C6.37154246,18.0736096 6.34299246,18.3224024 6.28670819,18.5736423 C6.23001607,18.8240665 6.13580109,19.073675 6.00651042,19.3167578 C5.71856336,19.8763377 5.33640132,20.3396632 4.87144432,20.6916439 C4.40934231,21.0424009 3.90033674,21.3095472 3.35870261,21.4841101 C3.20208551,21.5473279 3.02589127,21.6003493 2.84235561,21.6399114 C2.6877778,21.6737636 2.53034499,21.7104707 2.36964932,21.749625 L2.36964932,24.0764493 C2.80605634,23.6192416 3.30935191,23.2391188 3.86811603,22.9446461 C4.47623086,22.6248862 5.14960281,22.4625591 5.86947046,22.4625591 C6.57261597,22.4625591 7.24190935,22.6244783 7.85858917,22.9446461 C8.472414,23.2639981 9.00140456,23.683683 9.43128586,24.1935043 C9.89094073,24.7167848 10.2539335,25.3334647 10.5084363,26.0247823 C10.7625312,26.7156921 10.8910062,27.4608469 10.8910062,28.2378145 L10.8910062,30.7086124 C10.8910062,30.9745352 10.8991633,31.2339323 10.9146619,31.4794622 C10.9297526,31.7245843 10.9603419,31.9476821 11.005614,32.1430456 Z M21.8453933,28.236958 C21.8453933,27.6418946 21.7409819,27.0802755 21.5346062,26.5688228 C21.3290463,26.0581858 21.0431385,25.6058724 20.6842243,25.2233025 C20.325718,24.8427719 19.9011389,24.5417734 19.4223147,24.328872 C18.9434906,24.1159707 18.4304064,24.0078885 17.898153,24.0078885 C17.3663074,24.0078885 16.8577097,24.1159707 16.3866349,24.3284642 C15.9143364,24.5417734 15.4979144,24.8427719 15.1483809,25.2224868 C14.7980317,25.6034252 14.5113083,26.0561465 14.2963676,26.5700464 C14.0822427,27.0814991 13.9664113,27.6431182 13.9513206,28.2394052 C13.9664113,28.816115 14.0822427,29.3699849 14.2963676,29.8810297 C14.5113083,30.3949296 14.7980317,30.8480587 15.1483809,31.2281815 C15.4979144,31.6091199 15.9143364,31.9097106 16.3866349,32.1226119 C17.3267453,32.5471911 18.4683371,32.547599 19.4223147,32.1222041 C19.9011389,31.9097106 20.325718,31.6091199 20.6842243,31.2277736 C21.0431385,30.8456116 21.3290463,30.3932981 21.5346062,29.8822533 C21.7409819,29.3712084 21.8453933,28.8177464 21.8453933,28.236958 Z M21.786254,24.1661371 C22.2781296,24.6894176 22.6729352,25.3093603 22.9596587,26.009243 C23.2459743,26.7103492 23.3911714,27.4599904 23.3911714,28.236958 C23.3911714,29.0151493 23.2459743,29.7611198 22.9596587,30.4540688 C22.6733431,31.1445708 22.2785375,31.7608427 21.786254,32.2853469 C21.292747,32.8106667 20.7074722,33.2299438 20.0475595,33.5321658 C19.3864233,33.8356114 18.6632928,33.9893735 17.898153,33.9893735 C17.1330132,33.9893735 16.406212,33.8356114 15.7377343,33.5321658 C15.0692567,33.2303516 14.4799033,32.8110746 13.987212,32.2853469 C13.493705,31.7608427 13.1025701,31.1441629 12.8252273,30.4528453 C12.546661,29.7611198 12.4055424,29.0155571 12.4055424,28.236958 C12.4055424,27.4591747 12.546661,26.7103492 12.8248195,26.0100587 C13.102978,25.3097682 13.4941128,24.6894176 13.987212,24.1661371 C14.4799033,23.6408172 15.0688488,23.2211323 15.7377343,22.9185024 C16.4070277,22.6158725 17.1338289,22.4625183 17.898153,22.4625183 C18.6624771,22.4625183 19.3856076,22.6158725 20.0475595,22.9185024 C20.7078801,23.2215402 21.2931549,23.6412251 21.786254,24.1661371 Z M34.720991,28.2373251 C34.720991,27.6410381 34.6165796,27.0798269 34.4106118,26.568782 C34.2038282,26.0561057 33.9215912,25.6033844 33.5716499,25.222446 C33.2213007,24.8427311 32.8048786,24.5413247 32.3329881,24.3284234 C31.8619132,24.1159299 31.3537234,24.0078478 30.8218778,24.0078478 C30.2892165,24.0078478 29.7765402,24.1159299 29.2973082,24.3288312 C28.8168527,24.5425483 28.3922735,24.8435468 28.0358064,25.2232617 C27.6773001,25.604608 27.3913923,26.0573293 27.1846088,26.568782 C26.9790489,27.0806426 26.8746375,27.6422617 26.8746375,28.2373251 C26.8746375,28.8172978 26.9790489,29.3703519 27.1846088,29.8822125 C27.3913923,30.3940731 27.6773001,30.8467944 28.0358064,31.2277328 C28.3922735,31.6082634 28.8168527,31.9088541 29.2973082,32.1221633 C30.2516937,32.5471503 31.3928776,32.5471503 32.3329881,32.1225711 C32.8048786,31.9100776 33.2213007,31.6090791 33.5716499,31.2285485 C33.9215912,30.8480179 34.2038282,30.3952966 34.4106118,29.8822125 C34.6165796,29.3715755 34.720991,28.8185214 34.720991,28.2373251 Z M34.7091631,24.1660963 C35.2014465,24.6901926 35.5962521,25.3101352 35.8825678,26.0092022 C36.1692913,26.7111241 36.3144884,27.4607653 36.3144884,28.2373251 C36.3144884,29.0147006 36.1688834,29.7602633 35.8825678,30.4540281 C35.5962521,31.14453 35.2018544,31.760802 34.7091631,32.2853061 C34.216064,32.8102181 33.631197,33.229903 32.9708765,33.532125 C32.3097402,33.8355707 31.5866097,33.9893328 30.8218778,33.9893328 C29.9935202,33.9893328 29.2136975,33.8070207 28.5036185,33.4481065 C27.8779658,33.1320173 27.3232802,32.7074381 26.8509818,32.1845654 L26.8509818,39.8975496 L25.3288594,39.8975496 L25.3288594,25.6478409 C25.3288594,25.0947867 25.2746144,24.6045426 25.1677558,24.1901599 C25.064568,23.8381792 24.8532981,23.5216822 24.5404717,23.2533123 L24.4703203,23.1937651 L25.3349772,21.9514326 L25.4185879,22.0097562 C25.7416107,22.2361168 26.011612,22.5106046 26.2216584,22.8254702 C26.4317048,23.1407437 26.5789412,23.4641743 26.659289,23.7871971 C26.7053768,23.9075149 26.739229,24.0421078 26.756359,24.1758849 C26.7628847,24.2309456 26.7694104,24.286822 26.776344,24.3443298 C27.2539445,23.8063664 27.8176029,23.3638415 28.4550835,23.0273595 C29.1659783,22.6525389 29.962523,22.4624775 30.8218778,22.4624775 C31.585794,22.4624775 32.3089245,22.6158317 32.9708765,22.9184616 C33.6316048,23.2219073 34.2164718,23.6411843 34.7091631,24.1660963 Z M43.189204,23.0443263 C43.5424082,23.2694634 43.8495245,23.5720933 44.0995409,23.9432432 C44.3536358,24.3196952 44.4821108,24.7585494 44.4821108,25.24757 L44.4821108,25.4200935 L42.9599884,25.4200935 L42.9599884,25.24757 C42.9461212,25.0558772 42.8922841,24.8862087 42.8009241,24.7520237 C42.7054856,24.6129444 42.5668142,24.4742731 42.3889885,24.3409038 C42.1883229,24.2271117 41.934228,24.123516 41.6446495,24.0386818 C41.3558867,23.9558868 41.0565196,23.9138775 40.7551133,23.9138775 C40.242437,23.9138775 39.8080693,24.012171 39.4634301,24.2067188 C39.1514195,24.3706774 38.9201645,24.5937752 38.7741517,24.8715258 C38.7215382,25.0464965 38.6913567,25.2182043 38.6913567,25.3650328 C38.6913567,25.5913934 38.7945446,25.8312134 38.9976574,26.077559 C39.2635802,26.3430739 39.63473,26.5979846 40.0943849,26.8280159 C40.6005355,27.0976094 41.1417618,27.3696501 41.7054202,27.6392436 C42.28213,27.9157706 42.8229484,28.248582 43.3127847,28.6274811 L43.3164554,28.6303361 C43.6374389,28.9036004 43.9135581,29.2290703 44.1378795,29.5965494 C44.3662794,29.9730015 44.4821108,30.4024749 44.4821108,30.8735498 C44.4821108,31.2765125 44.4091044,31.6843696 44.264723,32.0857009 C44.1158552,32.4319715 43.9147817,32.7313385 43.6639496,32.9817628 C43.4123018,33.2330027 43.1284333,33.4267348 42.8196856,33.557249 C42.5386721,33.7138661 42.2160572,33.8321447 41.8706023,33.9043353 C41.5288181,33.9761182 41.1927439,34.0124175 40.8725761,34.0124175 C39.963055,34.0124175 39.1293952,33.785649 38.3956604,33.3386377 C38.0518369,33.1098299 37.7569563,32.8067921 37.5150971,32.4360501 C37.269975,32.0600059 37.1455786,31.6142181 37.1455786,31.1092911 L37.1455786,30.9330969 L38.6913567,30.9873419 L38.6913567,31.0856354 C38.6913567,31.3115882 38.736221,31.4779939 38.8279888,31.6182967 C38.9230195,31.7651252 39.0694402,31.9152166 39.2635802,32.0640844 C39.4646537,32.1782844 39.71467,32.2818801 39.9952757,32.3654908 C40.4855198,32.5106879 41.0304168,32.53312 41.5557366,32.4107629 C41.7849523,32.3569258 41.9933672,32.2916687 42.1752715,32.2158073 C42.5011492,32.0159573 42.7246549,31.7794002 42.8253956,31.5191875 C42.8865741,31.3968304 42.9232812,31.2883404 42.9375562,31.1888233 C42.9526469,31.0827804 42.9599884,30.9763298 42.9599884,30.8735498 C42.9599884,30.6035484 42.8506827,30.3502692 42.6345185,30.11983 C42.5117535,29.9819743 42.3514657,29.8449344 42.15651,29.7103416 C41.9550287,29.5704466 41.7347859,29.4289202 41.5027152,29.289841 C41.0287854,29.030036 40.4997948,28.7616661 39.9349128,28.4941119 C39.366768,28.2265577 38.8300281,27.9059821 38.3401918,27.5417657 C38.0163534,27.2840001 37.7357477,26.9752523 37.5040849,26.6220482 C37.2663043,26.2615025 37.1455786,25.8385548 37.1455786,25.3650328 C37.1455786,25.0244722 37.2194007,24.6639266 37.3645978,24.2927767 C37.640717,23.5937097 38.1268826,23.099387 38.810451,22.82286 C39.0906488,22.6662429 39.4059223,22.5520429 39.7354707,22.4880093 C40.4516677,22.3477065 41.2298589,22.3562715 42.0259958,22.5471486 C42.4607714,22.6527836 42.8519063,22.8195971 43.189204,23.0443263 Z M54.1282557,30.7314932 L54.7481984,31.1899245 L55.4268725,31.6238844 L55.359984,31.7119815 C54.8517941,32.3796434 54.215945,32.931474 53.4695666,33.3519746 C52.7195176,33.7749223 51.8789242,33.9890473 50.9714424,33.9890473 C50.2063026,33.9890473 49.4827642,33.8352852 48.821628,33.5322474 C48.1613075,33.2300253 47.5764405,32.8107483 47.0829335,32.2854285 C46.5898343,31.7605165 46.1991073,31.1442445 45.9209488,30.452519 C45.6431982,29.7616092 45.5024875,29.0160465 45.5024875,28.2374475 C45.5024875,27.4592563 45.6431982,26.7100229 45.9209488,26.0105481 C46.1991073,25.3106655 46.5902422,24.6899071 47.0829335,24.1658108 C47.5760326,23.6413067 48.1608996,23.2216218 48.821628,22.918584 C49.4835799,22.6159541 50.2067104,22.4625998 50.9714424,22.4625998 C51.8458878,22.4625998 52.669759,22.6644891 53.4202159,23.0625575 C54.16741,23.460626 54.7967334,24.0010365 55.2906483,24.6695142 L55.3510111,24.7514935 L54.7269899,25.2123719 L54.1343736,25.6977218 L54.0695243,25.6181897 C53.6714559,25.1283534 53.2056831,24.7327321 52.6864812,24.4427457 C52.1697263,24.1539829 51.5926086,24.0079701 50.9714424,24.0079701 C50.4387811,24.0079701 49.9256969,24.1156444 49.4464649,24.3289536 C48.9668251,24.5422628 48.5467323,24.8428534 48.1971989,25.2225683 C47.8468497,25.6043225 47.5646126,26.0570438 47.3578291,26.5689044 C47.1522692,27.0807649 47.0474499,27.6423841 47.0474499,28.2374475 C47.0474499,28.8174202 47.1522692,29.3708821 47.3578291,29.8823349 C47.5646126,30.3946033 47.8468497,30.8473246 48.1971989,31.2286709 C48.5467323,31.6083858 48.9668251,31.9093843 49.4464649,32.1222856 C49.9244734,32.335187 50.4371497,32.4428613 50.9714424,32.4428613 C51.5938322,32.4428613 52.179107,32.2927699 52.7101369,31.9970735 C53.2448374,31.6989301 53.7016373,31.3008616 54.067485,30.8122489 L54.1282557,30.7314932 Z M65.7461855,28.236958 C65.7461855,27.6423025 65.6413662,27.0810912 65.4353984,26.5688228 C65.2298385,26.0581858 64.9439307,25.6058724 64.5846087,25.2233025 C64.2265102,24.8431797 63.801931,24.5417734 63.3235147,24.328872 C62.8442827,24.1159707 62.3311986,24.0078885 61.7989452,24.0078885 C61.2670996,24.0078885 60.7585019,24.1159707 60.2870192,24.3284642 C59.8151286,24.5417734 59.3987066,24.8427719 59.049581,25.2224868 C58.6984161,25.6038331 58.4121004,26.0569622 58.1971598,26.5700464 C57.9834427,27.0823148 57.8672035,27.6439339 57.8521127,28.2394052 C57.8672035,28.8152993 57.9834427,29.3691691 58.1971598,29.8810297 C58.4121004,30.3945217 58.6984161,30.8476509 59.0491731,31.2281815 C59.3987066,31.6091199 59.8151286,31.9097106 60.2870192,32.1226119 C61.2279453,32.547599 62.3683136,32.547599 63.3235147,32.1222041 C63.801931,31.9097106 64.2265102,31.6087121 64.5846087,31.2277736 C64.9439307,30.8456116 65.2298385,30.3932981 65.4349906,29.8826611 C65.6413662,29.3703927 65.7461855,28.8169307 65.7461855,28.236958 Z M65.6866383,24.1661371 C66.1793296,24.6898255 66.5737274,25.3097682 66.8604509,26.009243 C67.1471744,26.7107571 67.2919636,27.4603983 67.2919636,28.236958 C67.2919636,29.0147414 67.1467665,29.760304 66.8604509,30.4540688 C66.5741352,31.1441629 66.1793296,31.7604349 65.6870462,32.2853469 C65.1931313,32.8110746 64.6078565,33.2307595 63.9479438,33.5321658 C63.2872155,33.8356114 62.564085,33.9893735 61.7989452,33.9893735 C61.0338054,33.9893735 60.307412,33.8356114 59.6385265,33.5321658 C58.969641,33.2299438 58.3802876,32.8106667 57.8875963,32.2853469 C57.3953129,31.7620663 57.004178,31.1453865 56.7260195,30.4528453 C56.4474531,29.7623433 56.3063346,29.0167807 56.3063346,28.236958 C56.3063346,27.458359 56.4474531,26.7091256 56.7260195,26.0100587 C57.0045858,25.3089525 57.3957207,24.6886019 57.8880042,24.1661371 C58.3798797,23.6412251 58.9692331,23.2215402 59.6385265,22.9185024 C60.3078199,22.6158725 61.0346211,22.4625183 61.7989452,22.4625183 C62.5632692,22.4625183 63.2863998,22.6158725 63.9483517,22.9185024 C64.6078565,23.2211323 65.1931313,23.6404094 65.6866383,24.1661371 Z M71.8341857,32.801857 C71.9108628,32.9429756 72.0454557,33.0726741 72.2334778,33.1876898 L72.3223906,33.2423426 L71.479758,34.5478929 L71.3932923,34.4891615 C71.0368252,34.2460787 70.7541803,33.9671045 70.5531068,33.6599882 C70.3532569,33.3577661 70.2023498,33.0400455 70.1048719,32.7157992 C70.0241162,32.3919607 69.9755813,32.0644515 69.9596748,31.7381659 C69.9441763,31.4294181 69.936427,31.1227096 69.936427,30.8266054 L69.936427,22.8073206 L67.8649212,22.8073206 L67.8649212,21.2851982 L69.936427,21.2851982 L69.936427,17.7543799 L71.4813894,17.7543799 L71.4813894,21.2851982 L74.7063149,21.2851982 L74.7063149,22.8073206 L71.4813894,22.8073206 L71.4813894,30.8266054 C71.4813894,31.0860025 71.4891387,31.3453996 71.5050451,31.5970474 C71.519728,31.840538 71.5580665,32.0705694 71.6192451,32.2818393 C71.6779765,32.4743478 71.750575,32.6501342 71.8341857,32.801857 Z M82.0222503,30.7314932 L82.642193,31.1899245 L83.3208671,31.6238844 L83.2539785,31.7119815 C82.7449729,32.3800513 82.1091238,32.9318818 81.3635612,33.3519746 C80.6135121,33.7749223 79.7729188,33.9890473 78.8654369,33.9890473 C78.1002971,33.9890473 77.3767588,33.8352852 76.7156225,33.5322474 C76.055302,33.2304332 75.470435,32.8107483 74.976928,32.2854285 C74.4838289,31.7601086 74.0931019,31.1438366 73.8149434,30.452519 C73.5371927,29.7616092 73.3964821,29.0160465 73.3964821,28.2374475 C73.3964821,27.4592563 73.5371927,26.7100229 73.8149434,26.0105481 C74.0931019,25.3110733 74.4842368,24.6903149 74.976928,24.1658108 C75.470435,23.6408988 76.055302,23.2216218 76.7156225,22.918584 C77.3775745,22.6159541 78.100705,22.4625998 78.8654369,22.4625998 C79.7398824,22.4625998 80.5637536,22.6644891 81.3142105,23.0625575 C82.0614046,23.460626 82.690728,24.0010365 83.1846428,24.6695142 L83.2450057,24.7514935 L82.6209844,25.2123719 L82.0283682,25.6977218 L81.9635189,25.6181897 C81.5654504,25.1283534 81.0996777,24.7327321 80.5804757,24.4427457 C80.0637209,24.1539829 79.4866032,24.0079701 78.8654369,24.0079701 C78.3327756,24.0079701 77.8196915,24.1156444 77.3404595,24.3289536 C76.8612275,24.541855 76.4407269,24.8428534 76.0911934,25.2225683 C75.7408442,25.6043225 75.4581993,26.0570438 75.2514158,26.5689044 C75.0462637,27.0807649 74.9418523,27.6419762 74.9418523,28.2374475 C74.9418523,28.817828 75.0462637,29.3708821 75.2514158,29.8823349 C75.4581993,30.3946033 75.7408442,30.8473246 76.0911934,31.2286709 C76.4407269,31.6083858 76.8612275,31.9093843 77.3404595,32.1222856 C77.8184679,32.335187 78.3311442,32.4428613 78.8654369,32.4428613 C79.4878267,32.4428613 80.0731016,32.2927699 80.6041314,31.9970735 C81.138832,31.6989301 81.5956319,31.3008616 81.9614796,30.8122489 L82.0222503,30.7314932 Z M86.6409048,20.1801911 C86.8342291,20.1398133 87.0014504,20.0941333 87.139714,20.043559 C87.5516496,19.9065191 87.9060773,19.7221677 88.1948401,19.4945835 C88.4807479,19.2682228 88.7336192,18.9684479 88.9457049,18.6054552 C89.0439984,18.3652274 89.096612,18.1005282 89.096612,17.8325661 C89.096612,17.6253747 89.0627598,17.4145127 88.9958713,17.2048741 C88.9297985,16.9993142 88.8286499,16.8125157 88.6960964,16.6497807 C88.580265,16.5049915 88.4415936,16.3916072 88.2821215,16.3116673 C87.9872409,16.1644309 87.7665902,16.1746273 87.5687796,16.235398 C87.4770117,16.2635401 87.3701532,16.315338 87.2514668,16.3891601 C87.056919,16.5147801 86.8888819,16.8190414 86.7555127,17.2925634 C86.7098327,17.5062805 86.6792434,17.7493633 86.6645605,18.0148782 C86.649062,18.2824324 86.6409048,18.5455002 86.6409048,18.7979637 L86.6409048,20.1801911 Z M95.9204679,33.0513432 L96,33.1092589 L95.1337117,34.3825885 L95.0488774,34.3238571 C94.7250389,34.0974964 94.4583004,33.8221929 94.2564112,33.5065116 C94.0561534,33.1949088 93.8979049,32.8661761 93.7869678,32.529694 C93.7041728,32.2054477 93.6556378,31.8901742 93.6397314,31.585505 C93.6242328,31.2922558 93.6164835,30.9969673 93.6164835,30.7086124 L93.6164835,28.2378145 C93.6164835,27.6264369 93.5194136,27.0558449 93.3285365,26.5427607 C93.1372515,26.0317159 92.8701052,25.5785867 92.5356624,25.1976483 C91.8818676,24.4072214 91.07635,24.0079293 90.1403181,24.0079293 C89.187972,24.0079293 88.3751129,24.4072214 87.7237652,25.1952011 C87.4023739,25.5622725 87.1429768,26.0068366 86.9520997,26.5195129 C86.7604069,27.0334127 86.6555877,27.5885062 86.6409048,28.1692946 L86.6409048,33.941695 L85.1187824,33.941695 L85.1187824,21.9229642 C85.0135553,21.9323449 84.9095518,21.9368314 84.8088111,21.9368314 L84.2708477,21.9368314 L84.2708477,20.3910532 L84.8088111,20.3910532 C84.9107753,20.3910532 85.0147789,20.3861589 85.1187824,20.3767782 L85.1187824,18.7979637 C85.1187824,18.525923 85.1265317,18.2314503 85.1420303,17.9218868 C85.157121,17.6094683 85.1974988,17.2803277 85.2611245,16.9430299 C85.3435116,16.614705 85.473618,16.2859723 85.6481808,15.9600945 C85.8284536,15.6256517 86.0931528,15.3401518 86.4353449,15.111344 C86.6437598,14.9514641 86.8774619,14.834817 87.1250311,14.7683363 C87.8130859,14.583577 88.4611707,14.6647406 88.9905692,14.9665548 C89.3307219,15.1611026 89.6178533,15.4078561 89.8442139,15.699066 C90.0828103,15.9849738 90.2785816,16.3149301 90.4233709,16.6771072 C90.568568,17.039692 90.6423901,17.4283798 90.6423901,17.8325661 C90.6423901,18.0744253 90.6134323,18.323626 90.5575558,18.5736423 C90.5008637,18.8244744 90.4066487,19.0744907 90.2773581,19.3171657 C89.9906346,19.8755219 89.6080647,20.3388475 89.1426998,20.6916439 C88.68019,21.0424009 88.1711844,21.3095472 87.6299581,21.4841101 C87.4729332,21.5473279 87.2967389,21.5999415 87.1132033,21.6399114 C86.9586255,21.6737636 86.8016005,21.7104707 86.6409048,21.749625 L86.6409048,24.0756336 C87.0777197,23.6184259 87.5814231,23.2383031 88.1393715,22.9446461 C88.7474864,22.6248862 89.4204505,22.4625591 90.1403181,22.4625591 C90.8438715,22.4625591 91.512757,22.6244783 92.1294368,22.9446461 C92.7436695,23.2639981 93.2730679,23.6840909 93.7021335,24.1935043 C94.1613805,24.7159691 94.5243733,25.3330568 94.7792839,26.0243745 C95.0333788,26.7152843 95.1622617,27.4600312 95.1622617,28.2378145 L95.1622617,30.7086124 C95.1622617,30.9769823 95.170011,31.2359715 95.1851017,31.4794622 C95.2001924,31.7237685 95.2311895,31.9468663 95.2768695,32.1434534 C95.3792416,32.5093012 95.5958137,32.8151939 95.9204679,33.0513432 Z" id="hopscotch"></path>
                </g>
            </g>
        </g>
    </g>
</svg>