<svg xmlns="http://www.w3.org/2000/svg" width="36" height="24" viewBox="0 0 36 24">
    <g fill="none" fill-rule="evenodd">
        <path d="M0 0h36v24H0z"/>
        <path fill="#F29C1F" d="M26.278 3.75c-2.191-3.077-7.685-1.914-12.23 2.59-4.544 4.503-6.462 10.687-4.27 13.764.72 1.013 1.8 1.563 3.085 1.69.888.027 1.608-.964 2.198-2.293.112-.255.214-.506.31-.755-1.457.035-2.697-.454-3.492-1.513-1.96-2.696-.306-8.088 3.676-12.009.49-.49 1.011-.918 1.502-1.285 3.736-2.39 7.473-2.574 9.22-.185.766 1.134 1.01 2.635.827 4.32-.613 2.297-2.083 4.779-4.258 6.891-1.477 1.455-3.067 2.507-4.59 3.128-.095 1.22.153 1.97 1.05 1.643a18.406 18.406 0 0 0 2.7-2.222C26.552 13.01 28.47 6.827 26.279 3.75"/>
        <path fill="#AB2324" d="M19.895 4.484c.92-.918 2.103-1.2 2.616-.687.53.53.208 1.689-.695 2.6-.91.902-2.094 1.224-2.608.703-.546-.521-.223-1.697.687-2.616m-3.336 7.65c-.364-.48-1.191-.357-2.127.182-.447.247-1.043.082-.34-.77.713-.862 3.544-2.931 4.562-3.254 1.117-.323 2.392.116 1.962 1.341-.212.619-2.15 5.722-2.36 8.46 1.523-.621 3.113-1.673 4.59-3.128 2.175-2.112 3.645-4.594 4.258-6.892.184-1.684-.061-3.185-.828-4.319-1.746-2.389-5.483-2.205-9.22.185-.49.367-1.01.796-1.501 1.285-3.982 3.921-5.636 9.313-3.676 12.009.795 1.06 2.035 1.548 3.493 1.513.424-1.09.712-2.116.947-3.086.423-1.888.456-3.237.24-3.527"/>
    </g>
</svg>
