<svg xmlns="http://www.w3.org/2000/svg" width="36" height="24" viewBox="0 0 36 24">
    <g fill="none" fill-rule="evenodd">
        <path d="M0 0h36v24H0z"/>
        <path fill="#5D9759" d="M23.585 12.345h1.64a.736.736 0 0 1 .773.748.735.735 0 0 1-.773.746h-1.64v-1.494zM25.033 3.5h4.156v14.194a2.834 2.834 0 0 1-2.833 2.806H22.2v-5.776h4.394c1.03 0 1.803-.554 1.803-1.417 0-.797-.704-1.303-1.624-1.367v-.032c.833-.122 1.29-.665 1.29-1.301 0-.81-.669-1.275-1.576-1.32-.071-.005-.185-.01-.278-.01H22.2V6.332A2.833 2.833 0 0 1 25.033 3.5zm-1.448 6.622h1.487c.054 0 .132.007.161.012.308.052.57.303.57.677a.672.672 0 0 1-.57.677 1.238 1.238 0 0 1-.161.013h-1.487v-1.38z"/>
        <path fill="#BB4F40" d="M17.572 3.5a2.833 2.833 0 0 0-2.833 2.833v3.71c.718-.616 1.96-1 3.976-.91 1.08.048 2.225.337 2.225.337v1.2c-.573-.29-1.26-.56-2.146-.626-1.53-.116-2.452.632-2.452 1.956 0 1.324.921 2.072 2.452 1.956.886-.067 1.582-.343 2.146-.626v1.199s-1.145.29-2.225.339c-2.017.09-3.258-.294-3.976-.91V20.5h4.155a2.833 2.833 0 0 0 2.834-2.833V3.5h-4.156z"/>
        <path fill="#335692" d="M9.733 3.5A2.833 2.833 0 0 0 6.9 6.333v6.997c.795.385 1.616.636 2.451.636.98 0 1.518-.598 1.518-1.403V9.276h2.437v3.287c0 1.286-.79 2.317-3.498 2.317-1.63 0-2.908-.351-2.908-.351V20.5h4.156a2.834 2.834 0 0 0 2.833-2.833V3.5H9.733z"/>
    </g>
</svg>
