<?xml version="1.0" encoding="utf-8"?>
<!-- Generator: Adobe Illustrator 24.0.3, SVG Export Plug-In . SVG Version: 6.00 Build 0)  -->
<svg version="1.1" id="Layer_1" xmlns="http://www.w3.org/2000/svg" xmlns:xlink="http://www.w3.org/1999/xlink" x="0px" y="0px"
	 viewBox="0 0 36 24" style="enable-background:new 0 0 36 24;" xml:space="preserve">
<style type="text/css">
	.st0{fill:none;}
	.st1{fill:#0454A7;}
</style>
<g>
	<path class="st0" d="M0,0h36v24H0V0z"/>
</g>
<g transform="translate(0.000000,250.000000) scale(0.100000,-0.100000)">
	<path class="st1" d="M170.7,2486.5c-31.8-3-62.1-20.9-79.2-46.6c-33.2-49.8-20-116.3,29.4-149.1c19.6-13.1,45.8-19.9,67.6-17.7
		c29.8,3,55.3,16.1,73.2,37.6c30.7,37,33.7,88.6,7.3,128.3c-18,27.1-46.6,43.9-80.1,47.3c-5.1,0.5-9.7,0.9-10.3,0.9
		C177.9,2487.2,174.4,2486.9,170.7,2486.5z M200.8,2443.5c20.8-1.1,32.4-2.7,36.6-5.3c1.6-1,3.9-3.5,5.1-5.6
		c2.2-3.8,2.2-4.5,2.5-24.7c0.2-12.4-0.1-24.1-0.7-28.6c-1.3-9.9-5.2-20.6-10.9-29.9c-4.8-7.9-19.9-24.4-21.9-23.9
		c-1.2,0.3-35,32.1-35.2,33.1c-0.1,0.3,1.4,1,3.3,1.5c7.3,2.3,15.1,10.1,17.7,17.8c1.2,3.3,1.3,3.4,6.3,3.9c5.7,0.5,8.5,2.9,8.5,7
		c0,3.9-3.2,6.5-8.4,6.5H199l-2.4,5.4l-2.3,5.4h6.8c5.7,0,7.1,0.3,8.9,2c2.5,2.3,2.7,6,0.4,8.9l-1.7,2.2h-30.2h-30.2l-2.2-2.6
		c-2.5-3-2.2-6.3,0.8-8.8c1.5-1.3,3.7-1.6,13.6-1.6c9.4,0,12.5-0.4,15.3-1.7c3.5-1.5,8.5-6.5,8.5-8.2c0-0.4-7.5-0.8-17.7-0.8
		c-16.7,0-17.9-0.1-19.7-1.8c-2.9-2.7-2.7-7.3,0.4-9.8c2.2-1.8,3.6-1.9,19.7-1.9c12.5,0,17.4-0.3,17.4-1.1c0-0.5-1.5-2.5-3.5-4.3
		c-4-3.9-9-5.4-17.7-5.4c-7.3,0-9.3-1.3-9.3-6.3c0-3.1,1.1-4.3,23.3-25.5c12.8-12.3,23.3-22.5,23.3-22.9c0-0.5-2.6-2.2-10.8-6.7
		c-7.2-3.9-13.8-3.8-21.6,0.5c-14.1,8-29,20.6-37.7,32.1c-5.9,7.7-12.9,22.2-14.6,30c-1.6,7.7-2,54.3-0.4,58.4
		c1.3,3.5,6,8.2,9.2,9.1c4.7,1.5,17.3,3,31.9,3.6C177,2444.5,181.1,2444.5,200.8,2443.5z"/>
</g>
</svg>
