<svg xmlns="http://www.w3.org/2000/svg" width="36" height="24" viewBox="0 0 36 24">
    <g fill="none" fill-rule="evenodd">
        <path d="M0 0h36v24H0z"/>
        <path fill="#1E3A6D" d="M16.751 10.477c-.772-.472-1.674-.722-2.655-.82l-.018-.002c-1.069-.101-2.597.315-3.163 1.31-.932 1.635.32 3.532 2.476 3.22 1.325-.19 2.472-1.442 3.354-2.645l.022-3.034-.016 1.971z"/>
        <path fill="#1E3A6D" d="M19.439 15.263l.028 3.657-2.786.947.028-3.653c-2.306 1.977-5.722 1.406-6.883-2.366-.613-3.539-.02-6.195 3.232-6.91.733-.135 1.486-.01 2.259.376.568.282.966.697 1.451 1.11l.024-3.158 2.564-.836.028 3.73c.98-.828 2.066-1.255 3.26-1.278 2.382.21 3.617 1.742 4.068 4.18h-1.17c-1.92-2.404-4.3-.324-6.121 1.852l.004.554c2.466 1.355 5.126 1.703 6.06-.456l1.283.056c-.669 4.675-4.646 5.543-7.33 2.195M18.116 2.13c-6.327 0-11.487 4.44-11.487 9.883 0 5.443 5.16 9.882 11.487 9.882s11.488-4.44 11.488-9.882c0-5.443-5.161-9.883-11.488-9.883"/>
        <path fill="#DF1F26" d="M19.421 12.914c-.876 1.046-1.624 2.115-2.127 2.718-.185.214-.38.407-.585.582l-.028 3.653 2.786-.947-.028-3.657-.014-1.795-.004-.554zM16.768 8.507l-.024 3.033c.31-.423.588-.84.829-1.202.556-.905 1.16-1.63 1.811-2.179l-.028-3.729-2.564.836-.024 3.157v.084z"/>
    </g>
</svg>
