<svg xmlns="http://www.w3.org/2000/svg" width="36" height="24" viewBox="0 0 36 24">
    <g fill="none" fill-rule="evenodd">
        <path d="M0 0h36v24H0z"/>
        <path fill="#313C93" d="M9.474 20.995h17.045V3H9.474z"/>
        <path fill="#CF4895" d="M9.45 3.855v.087l16.57.38.507-.855-17.077.388zm.253.974l.04.063 15.7.396.522-.855-16.262.396zm.578.974l.04.055 14.543.396.515-.847-15.098.396zm.61.965l.04.064 13.363.396.5-.855-13.903.395zm.578.966l.04.064 12.215.396.507-.856-12.762.396zm.602.974l.04.056 11.028.395.506-.847-11.574.396zm.617.966l.04.063 9.833.396.506-.855-10.379.396zm.578.966l.04.063 8.677.396.514-.855-9.231.396zm.578.974l.04.055 7.52.396.523-.855-8.083.404zm.61.966l.04.055 6.34.404.515-.855-6.895.396zm.601.965l.04.064 5.162.396.514-.855-5.716.395zm.602.966l.04.064 3.982.396.514-.856-4.536.396zm.586.974l.04.056 2.826.396.506-.848-3.372.396zm.578.966l.04.063 1.662.396.522-.855-2.224.396zm.53.966l.008.032H9.45h7.91l.007.031.554.46.29-.491h8.316-8.317l.234-.396-1.093.364z"/>
        <path fill="#FFF" d="M22.275 18.493v1.877h.531v-1.528h.11c.238 0 .365.095.365.269 0 .182-.15.3-.388.3-.023 0-.04 0-.08-.007l.642.966h.586l-.53-.776c.23-.135.324-.285.324-.515 0-.395-.277-.586-.839-.586h-.72zm-3.792.095a1.326 1.326 0 0 0-.57-.134c-.403 0-.68.222-.68.538 0 .198.087.333.316.483l.27.182c.126.088.174.15.174.246 0 .119-.111.19-.278.19-.142 0-.23-.04-.388-.166l-.142.332c.237.127.356.158.562.158.467 0 .76-.23.76-.585 0-.206-.095-.341-.332-.507l-.278-.198c-.118-.08-.15-.119-.15-.182 0-.103.08-.166.214-.166.118 0 .221.04.38.142l.142-.333zm-5.937-.213h-.53v1.995h1.282l.15-.356c-.203.01-.406.015-.61.015h-.293v-1.654zm2.953 1.37h-.452l.222-.539.23.538zm-.65-1.252l.135.199-.72 1.678h.522l.119-.285h.744l.119.285h.546l-.823-1.876h-.642zm4.87 0v1.877h1.274l.158-.356c-.23.008-.395.015-.633.015h-.27v-.467h.032c.135 0 .285.008.444.016l.158-.364c-.08.008-.095.008-.206.008-.198.008-.245.008-.427.008v-.388h.063c.158 0 .364.008.641.015l.15-.364h-1.385z"/>
    </g>
</svg>
