<svg xmlns="http://www.w3.org/2000/svg" xmlns:xlink="http://www.w3.org/1999/xlink" width="36" height="24" viewBox="0 0 36 24">
    <defs>
        <path id="a" d="M0 .009h12.925v15.977H0z"/>
        <path id="c" d="M.001.009h12.926v15.977H0z"/>
    </defs>
    <g fill="none" fill-rule="evenodd">
        <path d="M0 0h36v24H0z"/>
        <path fill="#FF5F00" d="M21.49 18.282H14.5V5.721h6.99z"/>
        <g transform="translate(5.07 4.004)">
            <mask id="b" fill="#fff">
                <use xlink:href="#a"/>
            </mask>
            <path fill="#EB001B" d="M9.874 7.997a7.976 7.976 0 0 1 3.05-6.28A7.988 7.988 0 0 0 0 7.997a7.988 7.988 0 0 0 12.926 6.281 7.976 7.976 0 0 1-3.051-6.28" mask="url(#b)"/>
        </g>
        <g transform="translate(17.994 4.004)">
            <mask id="d" fill="#fff">
                <use xlink:href="#c"/>
            </mask>
            <path fill="#F79E1B" d="M12.927 7.997A7.988 7.988 0 0 1 0 14.278a7.974 7.974 0 0 0 3.052-6.28A7.974 7.974 0 0 0 0 1.716a7.988 7.988 0 0 1 12.925 6.28" mask="url(#d)"/>
        </g>
    </g>
</svg>
