<svg xmlns="http://www.w3.org/2000/svg" width="113" height="32" viewBox="0 0 113 32">
    <g fill="none" fill-rule="evenodd">
        <path fill="#FFF" stroke="#000" stroke-opacity=".08" d="M7.128 6.668c-1.55 0-2.187.123-2.846.475A3.135 3.135 0 0 0 2.975 8.45c-.352.659-.475 1.296-.475 2.846V25.04c0 1.55.123 2.187.475 2.846a3.135 3.135 0 0 0 1.307 1.307c.659.352 1.296.475 2.846.475h98.744c1.55 0 2.187-.123 2.846-.475a3.135 3.135 0 0 0 1.307-1.307c.352-.659.475-1.296.475-2.846V11.296c0-1.55-.123-2.187-.475-2.846a3.135 3.135 0 0 0-1.307-1.307c-.659-.352-1.296-.475-2.846-.475h-6.08L96.46 3.335c-.521-.522-.757-.681-1.07-.776a1.317 1.317 0 0 0-.779 0c-.312.095-.548.254-1.07.776l-3.333 3.333H7.127z"/>
        <path fill="#000" d="M11.08 22v-8.52h5.22v.96h-4.164v2.844h3.42v.96h-3.42v2.796h4.416V22H11.08zm11.152 0l-1.584-2.124h-.024L19.052 22h-1.104l2.124-2.952-2.124-2.892h1.14l1.536 2.136h.024l1.524-2.136h1.14L21.2 19.048 23.336 22h-1.104zm4.444.072c-1.044 0-1.524-.636-1.524-1.812v-3.264h-.744v-.84h.744v-1.992l.972-.108v2.1h1.944v.84h-1.944v3.12c0 .696.168 1.044.72 1.044.348 0 .708-.144.984-.3l.264.852c-.324.18-.732.36-1.416.36zm6.004-5.988c.096 0 .18 0 .24.012v1.08a5.047 5.047 0 0 0-.384-.024c-1.104 0-1.776.852-1.776 2.028V22h-.972v-5.844h.972v1.032h.012c.432-.696 1.116-1.104 1.908-1.104zm6.748 2.904c0 .156-.024.36-.024.396h-4.5c.132 1.092.9 1.8 1.956 1.8.732 0 1.284-.336 1.644-.792l.684.588c-.504.648-1.296 1.092-2.364 1.092-1.656 0-2.904-1.212-2.904-2.988 0-1.764 1.212-3 2.796-3 1.632 0 2.712 1.224 2.712 2.904zm-2.664-2.004c-.912 0-1.644.6-1.824 1.596h3.528c-.156-.96-.768-1.596-1.704-1.596zm11.488-.9c1.332 0 2.052.768 2.052 2.496V22h-.972v-3.156c0-1.32-.444-1.86-1.368-1.86-.9 0-1.632.804-1.632 2.112V22h-.972v-3.168c0-1.296-.48-1.848-1.392-1.848-.948 0-1.692.804-1.692 2.112V22h-.96v-5.844h.96v1.008h.012c.48-.696 1.212-1.08 1.968-1.08.9 0 1.548.372 1.86 1.152h.012c.468-.744 1.236-1.152 2.124-1.152zm9.328 2.904c0 .156-.024.36-.024.396h-4.5c.132 1.092.9 1.8 1.956 1.8.732 0 1.284-.336 1.644-.792l.684.588c-.504.648-1.296 1.092-2.364 1.092-1.656 0-2.904-1.212-2.904-2.988 0-1.764 1.212-3 2.796-3 1.632 0 2.712 1.224 2.712 2.904zm-2.664-2.004c-.912 0-1.644.6-1.824 1.596h3.528c-.156-.96-.768-1.596-1.704-1.596zM59.54 22v-8.832h.972V22h-.972zm7.276-5.844h1.032l-3.3 8.22h-1.032l1.044-2.616-2.472-5.604h1.044l1.896 4.452h.024l1.764-4.452zM73.256 22v-8.832h.972V22h-.972zm3.892-6.924a.679.679 0 0 1-.696-.684c0-.372.3-.684.696-.684.384 0 .696.312.696.684a.686.686 0 0 1-.696.684zM76.656 22v-5.844h.972V22h-.972zm5.536-2.676h-.024l-1.224 1.356V22h-.96v-8.832h.96v6.18h.024l2.868-3.192h1.188L82.84 18.58 85.036 22H83.92l-1.728-2.676zm9.292-.336c0 .156-.024.36-.024.396h-4.5c.132 1.092.9 1.8 1.956 1.8.732 0 1.284-.336 1.644-.792l.684.588c-.504.648-1.296 1.092-2.364 1.092-1.656 0-2.904-1.212-2.904-2.988 0-1.764 1.212-3 2.796-3 1.632 0 2.712 1.224 2.712 2.904zm-2.664-2.004c-.912 0-1.644.6-1.824 1.596h3.528c-.156-.96-.768-1.596-1.704-1.596zM93.444 22v-8.832h.972V22h-.972zm7.276-5.844h1.032l-3.3 8.22H97.42l1.044-2.616-2.472-5.604h1.044l1.896 4.452h.024l1.764-4.452z" opacity=".56"/>
    </g>
</svg>
