<svg xmlns="http://www.w3.org/2000/svg" width="76" height="32" viewBox="0 0 76 32">
    <g fill="none" fill-rule="evenodd">
        <path fill="#FFF" stroke="#000" stroke-opacity=".08" d="M7.128 6.668c-1.55 0-2.187.123-2.846.475A3.135 3.135 0 0 0 2.975 8.45c-.352.659-.475 1.296-.475 2.846V25.04c0 1.55.123 2.187.475 2.846a3.135 3.135 0 0 0 1.307 1.307c.659.352 1.296.475 2.846.475h61.744c1.55 0 2.187-.123 2.846-.475a3.135 3.135 0 0 0 1.307-1.307c.352-.659.475-1.296.475-2.846V11.296c0-1.55-.123-2.187-.475-2.846a3.135 3.135 0 0 0-1.307-1.307c-.659-.352-1.296-.475-2.846-.475h-46.08L19.46 3.335c-.521-.522-.757-.681-1.07-.776a1.317 1.317 0 0 0-.779 0c-.312.095-.548.254-1.07.776l-3.333 3.333h-6.08z"/>
        <path fill="#000" d="M16.948 13.48h1.044V22h-1.068l-4.776-6.72h-.024V22H11.08v-8.52h1.032l4.812 6.792h.024V13.48zm6.112 8.592c-1.824 0-3.024-1.308-3.024-2.988s1.2-3 3.024-3c1.716 0 3 1.224 3 3s-1.284 2.988-3 2.988zm0-.888c1.128 0 2.016-.864 2.016-2.1 0-1.248-.888-2.1-2.016-2.1-1.224 0-2.04.936-2.04 2.1 0 1.164.828 2.1 2.04 2.1zm6.496.888c-1.044 0-1.524-.636-1.524-1.812v-3.264h-.744v-.84h.744v-1.992l.972-.108v2.1h1.944v.84h-1.944v3.12c0 .696.168 1.044.72 1.044.348 0 .708-.144.984-.3l.264.852c-.324.18-.732.36-1.416.36zM36.452 22v-8.832h.972V22h-.972zm3.892-6.924a.679.679 0 0 1-.696-.684c0-.372.3-.684.696-.684.384 0 .696.312.696.684a.686.686 0 0 1-.696.684zM39.852 22v-5.844h.972V22h-.972zm5.536-2.676h-.024L44.14 20.68V22h-.96v-8.832h.96v6.18h.024l2.868-3.192h1.188l-2.184 2.424L48.232 22h-1.116l-1.728-2.676zm9.292-.336c0 .156-.024.36-.024.396h-4.5c.132 1.092.9 1.8 1.956 1.8.732 0 1.284-.336 1.644-.792l.684.588c-.504.648-1.296 1.092-2.364 1.092-1.656 0-2.904-1.212-2.904-2.988 0-1.764 1.212-3 2.796-3 1.632 0 2.712 1.224 2.712 2.904zm-2.664-2.004c-.912 0-1.644.6-1.824 1.596h3.528c-.156-.96-.768-1.596-1.704-1.596zM56.64 22v-8.832h.972V22h-.972zm7.276-5.844h1.032l-3.3 8.22h-1.032l1.044-2.616-2.472-5.604h1.044l1.896 4.452h.024l1.764-4.452z" opacity=".56"/>
    </g>
</svg>
