<?xml version="1.0" encoding="UTF-8"?>
<svg width="25px" height="24px" viewBox="0 0 25 24" version="1.1" xmlns="http://www.w3.org/2000/svg" xmlns:xlink="http://www.w3.org/1999/xlink">
    <!-- Generator: sketchtool 51 (57462) - http://www.bohemiancoding.com/sketch -->
    <title>13935AAE-9822-4B9B-BDC9-9F0B5FBCAC95</title>
    <desc>Created with sketchtool.</desc>
    <defs></defs>
    <g id="Icons-&amp;-illustrations" stroke="none" stroke-width="1" fill="none" fill-rule="evenodd">
        <g id="Design-Language-Icons" transform="translate(-191.000000, -1030.000000)">
            <rect fill="#FFFFFF" x="0" y="0" width="1376" height="1180"></rect>
            <g id="ic_overflow" transform="translate(204.000000, 1042.000000) rotate(-270.000000) translate(-204.000000, -1042.000000) translate(192.000000, 1030.000000)" fill="#000000">
                <path d="M12,8 C10.8954305,8 10,7.1045695 10,6 C10,4.8954305 10.8954305,4 12,4 C13.1045695,4 14,4.8954305 14,6 C14,7.1045695 13.1045695,8 12,8 Z M12,14 C10.8954305,14 10,13.1045695 10,12 C10,10.8954305 10.8954305,10 12,10 C13.1045695,10 14,10.8954305 14,12 C14,13.1045695 13.1045695,14 12,14 Z M12,20 C10.8954305,20 10,19.1045695 10,18 C10,16.8954305 10.8954305,16 12,16 C13.1045695,16 14,16.8954305 14,18 C14,19.1045695 13.1045695,20 12,20 Z" id="more"></path>
            </g>
        </g>
    </g>
</svg>
