<svg xmlns="http://www.w3.org/2000/svg" width="24" height="24" viewBox="0 0 24 24"><g fill="none"><path fill="#F45D53" d="m12.745.831 1.713 1.912 2.506-.783a1 1 0 0 1 1.274.736l.561 2.505 2.51.562a1 1 0 0 1 .736 1.27l-.772 2.51 1.903 1.714a1 1 0 0 1 0 1.486l-1.903 1.715.772 2.508a1 1 0 0 1-.737 1.27L18.8 18.8l-.561 2.505a1 1 0 0 1-1.274.736l-2.506-.783-1.713 1.912a1 1 0 0 1-1.49 0l-1.713-1.912-2.506.783a1 1 0 0 1-1.274-.736L5.201 18.8l-2.51-.562a1 1 0 0 1-.736-1.27l.772-2.51-1.903-1.714a1 1 0 0 1 0-1.486l1.903-1.715-.772-2.508a1 1 0 0 1 .737-1.27L5.2 5.2l.561-2.505a1 1 0 0 1 1.274-.736l2.506.783L11.255.831a1 1 0 0 1 1.49 0z"/><path d="m9.818 16.528-.927-.546 5.29-8.51.928.546zm-.545-9.983c-.983 0-2.182.602-2.182 2.182v.546c0 .982.601 2.182 2.182 2.182 1.146 0 2.182-.763 2.182-2.182v-.546c0-1.363-.927-2.182-2.182-2.182zm.982 2.728c0 .71-.381 1.09-.982 1.09-.49 0-.983-.328-.983-1.09v-.546c0-.762.492-1.146.983-1.146.762 0 .982.71.982 1.146v.546zm4.472 8.182c.983 0 2.182-.602 2.182-2.182v-.546c0-.982-.601-2.182-2.182-2.182-1.146 0-2.182.763-2.182 2.182v.546c0 1.363.927 2.182 2.182 2.182zm-.982-2.728c0-.71.381-1.09.982-1.09.49 0 .983.328.983 1.09v.546c0 .762-.492 1.146-.983 1.146-.762 0-.982-.71-.982-1.146v-.546z" fill="#FFF"/></g></svg>