<?xml version="1.0" encoding="utf-8"?>
<!-- Generator: Adobe Illustrator 24.0.3, SVG Export Plug-In . SVG Version: 6.00 Build 0)  -->
<svg version="1.1" id="Layer_1" xmlns="http://www.w3.org/2000/svg" xmlns:xlink="http://www.w3.org/1999/xlink" x="0px" y="0px"
	 viewBox="0 0 36 24" style="enable-background:new 0 0 36 24;" xml:space="preserve">
<style type="text/css">
	.st0{fill:none;}
	.st1{fill:#02B9EF;}
	.st2{fill:#06306F;}
</style>
<g>
	<path class="st0" d="M0,0h36v24H0V0z"/>
</g>
<g>
	<path class="st1" d="M27.1,9c0.1-0.1,0.2-0.2,0.3-0.2C28.3,8,29.5,8.1,30.3,9c0.1,0.1,0.1,0.1,0.2,0c0.1-0.1,0.1-0.1,0.2-0.2
		c0.6-0.6,1.4-0.8,2.2-0.4c0.8,0.4,1.2,1,1.2,1.9c0,1.9,0,3.8,0,5.7c0,0.7-0.4,1.1-1.1,1.1c-0.3,0-0.5,0-0.8,0
		c-0.3,0-0.4-0.1-0.4-0.3c0-1.9,0-3.7,0-5.6c0-0.1,0-0.2,0-0.2c0-0.4-0.2-0.6-0.6-0.6c-0.4,0-0.6,0.2-0.7,0.6c0,0.1,0,0.2,0,0.3
		c0,1.6,0,3.2,0,4.8c0,0.7-0.4,1.1-1.1,1.1c-0.4,0-0.8,0.2-1.1-0.1c-0.2-0.2-0.1-0.7-0.1-1c0-1.7,0-3.3,0-5c0-0.6-0.4-0.9-0.9-0.7
		c-0.3,0.1-0.4,0.4-0.4,0.7c0,1.6,0,3.1,0,4.6c0,0.1,0,0.2,0,0.4c0,0.6-0.4,1.1-1.1,1.1c-0.3,0-0.5,0-0.8,0c-0.3,0-0.4-0.1-0.4-0.4
		c0-2.6,0-5.3,0-7.9c0-0.1,0-0.2,0-0.3c0-0.1,0-0.2,0.2-0.2c0.6,0,1.2,0,1.8,0c0.2,0,0.2,0,0.2,0.2C27.1,8.7,27.1,8.8,27.1,9z"/>
	<path class="st2" d="M13,12.6c0,0.9,0,1.8,0,2.7c0,1.2-0.6,1.8-1.8,1.8c-0.5,0-1,0-1.6,0c-1.1,0-1.8-0.7-1.9-1.8c0-0.8,0-1.5,0-2.3
		c0.1-1.1,0.9-1.8,2-1.9c0.3,0,0.6,0,0.9,0c0.3,0,0.4-0.2,0.4-0.4c0-0.3-0.1-0.4-0.4-0.4c-0.3,0-0.6,0-0.9,0c-0.7,0-1.1-0.4-1.1-1.1
		c0-0.3-0.1-0.7,0.1-0.9c0.2-0.1,0.5-0.1,0.8-0.1c0.7,0,1.5,0,2.2,0c0.8,0,1.3,0.5,1.3,1.3C13,10.7,13,11.7,13,12.6z M10.9,14.1
		c0-0.1,0-0.2,0-0.3c0-0.7,0-0.7-0.7-0.7c-0.3,0-0.5,0.2-0.5,0.5c0,0.3,0,0.6,0,0.8c0,0.5,0.2,0.6,0.9,0.6c0.5,0,0.3-0.3,0.3-0.5
		C11,14.5,10.9,14.3,10.9,14.1z"/>
	<path class="st2" d="M18.9,11.9c0,1,0,2.1,0,3.1c0,0.8-0.2,1.5-1,1.9c-0.3,0.2-0.6,0.3-1,0.3c-0.8,0-1.5,0-2.3,0
		c-0.2,0-0.2-0.1-0.2-0.2c0-0.3,0-0.6,0-0.8c0-0.5,0.4-0.9,1-1c0.3,0,0.7,0,1,0c0.3,0,0.4-0.1,0.4-0.4c0-0.3-0.1-0.4-0.4-0.4
		c-0.5,0-0.9,0.1-1.4-0.1c-0.8-0.2-1.4-0.9-1.4-1.7c0-1.3,0-2.6,0-3.9c0-0.1,0-0.2,0.2-0.2c0.5,0,1.1,0,1.6,0c0.2,0,0.2,0.1,0.2,0.3
		c0,1,0,2,0,2.9c0,0.4,0.2,0.7,0.6,0.7c0.4,0,0.6-0.2,0.6-0.6c0-1,0-2,0-3c0-0.2,0.1-0.3,0.3-0.3c0.5,0,1,0,1.5,0
		c0.3,0,0.3,0.1,0.3,0.3C18.9,9.8,18.9,10.8,18.9,11.9z"/>
	<path class="st2" d="M1.9,13.4c0-1.1,0-2.2,0-3.3c0-1.1,0.7-1.7,1.7-1.7c0.7,0,1.4-0.1,2.1,0.1c0.9,0.2,1.5,0.9,1.5,1.8
		c0,1,0,1.9,0,2.9c0,1.2-0.7,2-1.9,2c-0.4,0-0.7,0-1.1,0c-0.2,0-0.2,0-0.2,0.2c0,0.3,0,0.5,0,0.8c0,0.6-0.4,1-1,1
		c-0.3,0-0.8,0.1-1-0.1c-0.2-0.2-0.1-0.6-0.1-0.9C1.9,15.3,1.9,14.3,1.9,13.4z M3.9,11.8c0,0.2,0,0.4,0,0.6c0,0.8,0,0.8,0.8,0.7
		c0.3,0,0.5-0.2,0.5-0.5c0-0.4,0-0.8,0-1.1c0-1.1-0.2-1-1-1c-0.2,0-0.2,0-0.2,0.2C3.9,11,3.9,11.4,3.9,11.8z"/>
	<path class="st1" d="M20.8,13.4c0-0.9,0-1.8,0-2.7c0-0.2,0-0.3-0.3-0.3c-0.3,0-0.7,0.1-0.9,0c-0.2-0.2,0-0.6-0.1-0.9c0,0,0,0,0-0.1
		c0-0.3-0.1-0.7,0-0.9c0.1-0.2,0.5-0.1,0.8-0.2c0.6-0.1,1-0.5,1.3-0.9c0.2-0.3,0.5-0.5,0.9-0.6c0.2,0,0.3,0,0.3,0.3
		c0,0.4,0,0.8,0,1.1c0,0.2,0.1,0.2,0.2,0.2c0.3,0,0.5,0,0.8,0c0.2,0,0.2,0.1,0.2,0.2c0,0.5,0,1.1,0,1.6c0,0.2,0,0.2-0.2,0.2
		c0,0-0.1,0-0.1,0c-0.3,0-0.7-0.1-0.9,0.1c-0.1,0.2-0.1,0.6-0.1,0.9c0,1.8,0,3.6,0,5.4c0,0.3-0.1,0.3-0.3,0.3c-0.2,0-0.5,0-0.7,0
		c-0.7,0-1.2-0.5-1.2-1.2C20.8,15.1,20.8,14.3,20.8,13.4z"/>
</g>
</svg>
