<?xml version="1.0" encoding="utf-8"?>
<!-- Generator: Adobe Illustrator 24.0.3, SVG Export Plug-In . SVG Version: 6.00 Build 0)  -->
<svg version="1.1" id="Layer_1" xmlns="http://www.w3.org/2000/svg" xmlns:xlink="http://www.w3.org/1999/xlink" x="0px" y="0px"
	 viewBox="0 0 36 24" style="enable-background:new 0 0 36 24;" xml:space="preserve">
<style type="text/css">
	.st0{fill:none;}
	.st1{fill:#673AB7;}
	.st2{fill:#FFFFFF;}
</style>
<g>
	<path class="st0" d="M0,0h36v24H0V0z"/>
</g>
<g>
	<g>
		<path class="st1" d="M18,1.6C12.2,1.6,7.6,6.2,7.6,12c0,5.8,4.7,10.4,10.4,10.4S28.4,17.8,28.4,12C28.4,6.2,23.8,1.6,18,1.6z"/>
	</g>
	<g>
		<path class="st2" d="M22.8,9.2v0.4c0,0.1,0,0.2-0.1,0.2s-0.1,0.1-0.2,0.1h-0.5h-0.5c-0.1,0-0.1,0-0.1,0c0,0,0,0.1,0,0.1v4.2v4.2
			c0,0.1,0,0.2-0.1,0.2c-0.1,0.1-0.1,0.1-0.2,0.1h-0.4H20c-0.1,0-0.2,0-0.2-0.1c-0.1-0.1-0.1-0.1-0.1-0.2V17v-1.5h0h0
			c-0.1,0.2-0.3,0.4-0.6,0.5c-0.3,0.1-0.6,0.2-0.9,0.2h-0.2h-0.2c-0.4,0-0.7-0.1-1-0.2c-0.3-0.1-0.6-0.3-0.8-0.5
			c-0.2-0.2-0.4-0.5-0.5-0.8c-0.1-0.3-0.2-0.7-0.2-1v-1.8V10c0-0.1,0-0.1,0-0.1c0,0-0.1-0.1-0.1-0.1h-0.5H14c-0.1,0-0.2,0-0.2-0.1
			c-0.1-0.1-0.1-0.1-0.1-0.2V9.2V8.8c0-0.1,0-0.2,0.1-0.2c0.1,0,0.1-0.1,0.2-0.1h2.4h2.4c-0.4-0.4-0.7-0.8-1-1.2
			c-0.3-0.4-0.6-0.8-1-1.3l-0.5-0.7l-0.5-0.7c0,0,0-0.1,0-0.1c0,0,0-0.1,0-0.1c0-0.1,0-0.1,0.1-0.2c0,0,0.1-0.1,0.2-0.1h0.5h0.5
			c0.1,0,0.2,0,0.3,0.1c0.1,0,0.1,0.1,0.2,0.2l1.2,1.9l1.2,1.9c0.1,0.1,0.1,0.2,0.2,0.2c0.1,0,0.1,0.1,0.2,0.1h0h0h1h1
			c0.1,0,0.2,0,0.2,0.1c0.1,0,0.1,0.1,0.1,0.2L22.8,9.2L22.8,9.2z"/>
	</g>
	<g>
		<path class="st1" d="M19.5,9.8h-1.4h-1.4c-0.1,0-0.1,0-0.1,0s0,0.1,0,0.1v1.7v1.7c0,0.4,0.1,0.8,0.3,1c0.2,0.2,0.5,0.3,0.9,0.3
			h0.2h0.2c0.2,0,0.4,0,0.6-0.1c0.2-0.1,0.3-0.1,0.4-0.3c0.1-0.1,0.2-0.3,0.3-0.4c0.1-0.2,0.1-0.3,0.1-0.5v-1.7V10
			c0-0.1,0-0.1,0-0.1C19.6,9.9,19.5,9.8,19.5,9.8z"/>
	</g>
</g>
</svg>
