<svg xmlns="http://www.w3.org/2000/svg" xmlns:xlink="http://www.w3.org/1999/xlink" width="36" height="24" viewBox="0 0 36 24">
    <defs>
        <path id="a" d="M0 .064h6.408V6.12H0z"/>
        <path id="c" d="M.048.015h5.81V6.23H.048z"/>
        <path id="e" d="M.038.048h3.59V6.72H.038z"/>
    </defs>
    <g fill="none" fill-rule="evenodd">
        <path d="M0 0h36v24H0z"/>
        <path fill="#2A2A89" d="M18.028 11.062c-.233.65-.874.573-.874.573h-.876l.346-1.286s.554.003.92.003c.448 0 .61.356.484.71m1.838-.6c.143-1.127-.715-1.596-1.786-1.596h-2.815l-1.66 6.054h1.787l.503-1.866 1.425.008s2.206.094 2.546-2.6M9.65 10.521h1.632l-.672 2.585s-.168.576.371.62c.426.036.743-.472.847-.817.137-.452.667-2.388.667-2.388h1.68l-1.279 4.4H11.43l.18-.63s-.748.913-1.86.804c-.989-.097-1.074-.814-.903-1.709.084-.439.805-2.865.805-2.865"/>
        <path fill="#2A2A89" d="M21.37 14.024c-.28.071-.618.11-.686-.144-.184-.696 1.445-.9 1.445-.9.01.634-.545.99-.76 1.044m2.465-1.273c.215-.732.486-1.425.267-1.809-.334-.588-.94-.64-1.825-.64-.978 0-2.185.187-2.579 1.487h1.628s.149-.49.76-.459c.541.027.511.4.312.605-.35.361-1.315.161-2.385.532-.934.324-1.261 1.553-1.058 2.043.197.476.563.537 1.057.585.794.078 1.403-.365 1.686-.624 0 .288.008.45.008.45h1.713l-.004-.162s-.153-.04-.136-.255c.013-.157.309-.913.556-1.753"/>
        <g transform="translate(2.85 8.801)">
            <mask id="b" fill="#fff">
                <use xlink:href="#a"/>
            </mask>
            <path fill="#2A2A89" d="M4.498 2.247c-.232.536-.948.475-.948.475l-.835-.004.305-1.134 1.113.003c.392 0 .514.315.365.66m1.897-.773C6.537.35 5.546.064 4.475.064H1.661L0 6.12h1.788l.559-2.056 1.003.009s.414-.024.422.364c.009.415-.307 1.177-.287 1.683h1.837l-.004-.161s-.153-.04-.136-.255c.007-.09.106-.372.235-.753.078-.168.195-.566.184-.89-.013-.405-.267-.593-.634-.725 1.142-.267 1.428-1.86 1.428-1.86" mask="url(#b)"/>
        </g>
        <g transform="translate(23.375 10.506)">
            <mask id="d" fill="#fff">
                <use xlink:href="#c"/>
            </mask>
            <path fill="#2A2A89" d="M1.235.015h1.661v2.64L4.333.015h1.525L2.784 5.351s-.285.448-.64.685c-.29.194-.647.186-.757.194-.607-.006-1.34-.007-1.34-.007L.402 4.95l.572-.001s.261-.027.362-.156a.636.636 0 0 0 .146-.426c0-.27-.246-4.353-.246-4.353" mask="url(#d)"/>
        </g>
        <g transform="translate(29.407 9.457)">
            <mask id="f" fill="#fff">
                <use xlink:href="#e"/>
            </mask>
            <path fill="#0F8047" d="M1.956.048L.038 6.72l3.59-3.336z" mask="url(#f)"/>
        </g>
        <path fill="#F0721D" d="M30.134 9.505l-1.918 6.672 3.59-3.336z"/>
    </g>
</svg>
