<svg xmlns="http://www.w3.org/2000/svg" xmlns:xlink="http://www.w3.org/1999/xlink" width="240" height="180" viewBox="0 0 240 180">
    <defs>
        <path id="a" d="M54.636 87.924l24.712 9.085c.867.318 1.793.46 2.72.414 3.675-.18 6.502-3.192 6.315-6.726l-1.285-24.204a3.077 3.077 0 0 1 .725-2.144l15.833-18.855a6.321 6.321 0 0 0 1.25-2.359c.957-3.417-1.147-6.933-4.701-7.854l-24.334-6.305a3.278 3.278 0 0 1-1.896-1.325L60.22 7.344a6.542 6.542 0 0 0-1.947-1.872c-3.084-1.931-7.212-1.093-9.22 1.872L35.297 27.651a3.278 3.278 0 0 1-1.897 1.325L9.067 35.281a6.766 6.766 0 0 0-2.453 1.202c-2.863 2.223-3.31 6.258-.998 9.011L21.45 64.35c.508.605.766 1.368.725 2.144l-1.285 24.204c-.047.89.1 1.781.431 2.614 1.314 3.306 5.166 4.962 8.604 3.698l24.712-9.085z"/>
    </defs>
    <g fill="none" fill-rule="evenodd">
        <path fill="#E8EAEE" d="M122.59 145.403c-22.192.12-41.224-.763-42.52-1.976-1.028-.959 9.29-1.833 24.553-2.218 4.11-.103 8.527-.174 13.209-.198 5.099-.027 10.047-.003 14.615.07 15.38.234 26.915.972 27.904 1.906 1.332 1.21-15.607 2.294-37.761 2.416"/>
        <path fill="#F5A453" fill-rule="nonzero" d="M120.768 130.668l24.834 9.378c.871.33 1.802.475 2.733.428 3.693-.186 6.535-3.295 6.346-6.944l-1.29-24.984a3.232 3.232 0 0 1 .728-2.213L170.03 86.87a6.585 6.585 0 0 0 1.256-2.435c.962-3.527-1.153-7.157-4.724-8.108l-24.454-6.508a3.296 3.296 0 0 1-1.906-1.367l-13.823-20.963a6.656 6.656 0 0 0-1.956-1.932c-3.1-1.994-7.248-1.129-9.267 1.932l-13.823 20.963a3.296 3.296 0 0 1-1.905 1.367l-24.455 6.508c-.9.24-1.74.662-2.465 1.24a6.56 6.56 0 0 0-1.003 9.303l15.912 19.463c.51.624.769 1.412.728 2.213l-1.291 24.984c-.048.92.1 1.84.433 2.7 1.32 3.412 5.191 5.12 8.646 3.816l24.835-9.378z" style="mix-blend-mode:multiply"/>
        <g fill-rule="nonzero" transform="translate(66.095 38.018)">
            <use fill="#FFF" xlink:href="#a"/>
            <use fill="#F5BB53" xlink:href="#a"/>
        </g>
        <path fill="#987336" fill-rule="nonzero" d="M96.971 142.707a9.3 9.3 0 0 1-12.609-9.161l1.292-25.306a.7.7 0 0 0-.155-.476L69.58 88.051a9.3 9.3 0 0 1 4.817-14.823l24.467-6.592a.7.7 0 0 0 .404-.294l13.83-21.232a9.3 9.3 0 0 1 15.585 0l13.83 21.232a.7.7 0 0 0 .404.294l24.467 6.592a9.3 9.3 0 0 1 4.816 14.823l-15.92 19.713a.7.7 0 0 0-.154.476l1.292 25.306a9.3 9.3 0 0 1-12.61 9.16l-23.917-9.143-23.919 9.144zm23.957-12.462l24.713 9.378a6.708 6.708 0 0 0 2.719.427c3.675-.186 6.503-3.294 6.315-6.943l-1.284-24.984a3.242 3.242 0 0 1 .724-2.213l15.833-19.463a6.597 6.597 0 0 0 1.25-2.435c.957-3.528-1.147-7.158-4.7-8.108l-24.335-6.508a3.28 3.28 0 0 1-1.896-1.368l-13.755-20.962a6.64 6.64 0 0 0-1.947-1.932c-3.083-1.994-7.212-1.13-9.22 1.932L101.59 68.028a3.28 3.28 0 0 1-1.896 1.368L75.36 75.904a6.682 6.682 0 0 0-2.453 1.24 6.582 6.582 0 0 0-.998 9.303l15.833 19.463c.507.624.765 1.412.724 2.213l-1.284 24.984c-.048.92.1 1.84.43 2.7 1.315 3.412 5.167 5.12 8.604 3.816l24.712-9.378z"/>
        <path fill="#F5A453" fill-rule="nonzero" d="M150.17 68.483l17.298 4.66a9.3 9.3 0 0 1 4.816 14.823l-.182.225a16.592 16.592 0 0 1-7.166.944c-9.189-.804-15.982-8.929-15.176-18.145.075-.858.213-1.695.41-2.507z" opacity=".5" style="mix-blend-mode:multiply"/>
        <path fill="#9E9EA7" fill-rule="nonzero" d="M110.292 99.214a3.405 3.405 0 0 1 1.133-.248h.026l19.102-.229c.123-.003.304 0 .528.021.616.057 1.228.21 1.791.513 1.518.814 2.12 2.434 1.433 4.549-1.429 4.397-5.8 7.548-11.97 8.131-5.498.52-10.914-2.87-12.445-6.041-2.178-3.405-1.82-5.812.402-6.696z" style="mix-blend-mode:multiply"/>
        <path fill="#FFF" fill-rule="nonzero" d="M111.225 101.499c-.155.062-.201.111-.22.246-.068.474.229 1.369 1.087 2.694l.09.163c.317.687 1.557 1.968 3.065 2.922 2.04 1.29 4.36 1.94 6.816 1.707 5.185-.49 8.65-2.988 9.742-6.346.307-.945.194-1.25-.19-1.455-.212-.114-.502-.187-.801-.214a2.002 2.002 0 0 0-.231-.01l-19.107.227a1.05 1.05 0 0 0-.25.066z"/>
        <path fill="#E8EAEE" fill-rule="nonzero" d="M130.787 104.908a.519.519 0 0 0-.248-.327c-.173-.113-.418-.185-.674-.212a1.51 1.51 0 0 0-.2-.01l-16.575.193a.887.887 0 0 0-.223.064c-.14.06-.185.11-.215.241-.025.113-.034.251-.024.413a3.36 3.36 0 0 1-.446-.668l-.09-.163c-.858-1.325-1.155-2.22-1.088-2.694.02-.135.066-.184.221-.246a1.05 1.05 0 0 1 .25-.066l19.108-.228c.047-.001.122 0 .23.01.3.028.59.101.803.215.383.206.496.51.189 1.455a7.535 7.535 0 0 1-1.018 2.023z"/>
        <path fill="#9E9EA7" d="M136.618 90.504l-.065-.007a1.441 1.441 0 0 1-1.238-1.617c.277-2.094 1.798-5.975 5.56-5.677l.05.004c3.677.322 4.715 3.85 4.748 5.679a1.443 1.443 0 0 1-1.414 1.467 1.445 1.445 0 0 1-1.466-1.414c-.008-.268-.14-2.69-2.125-2.863l-.02-.002c-1.98-.157-2.475 3.15-2.479 3.184a1.44 1.44 0 0 1-1.551 1.246M98.878 90.495a1.46 1.46 0 0 1-1.331-1.54c.124-2.114 1.308-6.109 4.9-6.102 3.564.004 4.788 3.493 4.937 5.335a1.462 1.462 0 1 1-2.914.237c-.01-.103-.275-2.677-2.028-2.648-1.71-.003-1.974 3.32-1.977 3.354a1.463 1.463 0 0 1-1.549 1.367c-.013 0-.025-.002-.038-.003" style="mix-blend-mode:multiply"/>
        <g fill-rule="nonzero">
            <path fill="#008E77" d="M167 83.807c-9.224 0-16.7-7.502-16.7-16.754 0-9.251 7.476-16.753 16.7-16.753s16.7 7.502 16.7 16.753c0 9.252-7.476 16.754-16.7 16.754z"/>
            <path fill="#00CBA9" d="M166.8 80.703c7.62 0 13.8-6.2 13.8-13.851C180.6 59.2 174.42 53 166.8 53c-7.62 0-13.8 6.2-13.8 13.852 0 7.65 6.18 13.851 13.8 13.851z"/>
            <path fill="#00B092" d="M153.08 65.552c.745 6.945 6.604 12.351 13.72 12.351 7.116 0 12.975-5.406 13.72-12.351.053.492.08.993.08 1.5 0 7.65-6.18 13.851-13.8 13.851-7.62 0-13.8-6.2-13.8-13.851 0-.507.027-1.008.08-1.5z"/>
            <path fill="#FFF" d="M165.579 58l-.653 2.878-2.283 2.536c-.279.31-.432.711-.432 1.127v7.775c0 .93.753 1.684 1.684 1.684h6.763c.624 0 1.189-.367 1.442-.937l2.528-5.69c.14-.315.214-.656.214-1.001v-.793a1.69 1.69 0 0 0-1.684-1.684h-5.895s.842-1.997.842-3.484c0-2.309-2.526-2.411-2.526-2.411zM158 63.895v1.65c0 2.431.9 4.777 2.526 6.584v-8.234H158z"/>
        </g>
        <path fill="#00E0BB" d="M180.333 96.86c3.138 0 3.165-4.86.035-4.86-3.137 0-3.166 4.86-.035 4.86M145.211 57.546c4.318 0 4.356-6.688.048-6.688-4.318 0-4.356 6.688-.048 6.688M151.923 39.006c2.587 0 2.61-4.006.029-4.006-2.586 0-2.61 4.006-.03 4.006M187.972 57.086c3.282 0 3.313-5.086.037-5.086-3.284 0-3.312 5.086-.037 5.086M178.158 39.494c2.9 0 2.926-4.494.031-4.494-2.9 0-2.927 4.494-.03 4.494M162.222 44.543c1.64 0 1.656-2.543.017-2.543-1.641 0-1.657 2.543-.017 2.543M191.125 83.508c4.202 0 4.238-6.508.047-6.508-4.202 0-4.24 6.508-.047 6.508M198.222 67.543c1.64 0 1.656-2.543.017-2.543-1.641 0-1.657 2.543-.017 2.543"/>
    </g>
</svg>
