<svg xmlns="http://www.w3.org/2000/svg" xmlns:xlink="http://www.w3.org/1999/xlink" width="36" height="24" viewBox="0 0 36 24">
    <defs>
        <path id="a" d="M.002.003H11.8v15.136H0z"/>
        <path id="c" d="M0 .01h10.177v15.138H0z"/>
        <path id="e" d="M.006.209h4.18v.42H.006z"/>
    </defs>
    <g fill="none" fill-rule="evenodd">
        <path d="M0 0h36v24H0z"/>
        <g transform="translate(17.997 4.46)">
            <mask id="b" fill="#fff">
                <use xlink:href="#a"/>
            </mask>
            <path fill="#01798A" d="M10.632.004L4.796.003H4.78c-.802.025-1.8.668-1.982 1.461L.039 13.676c-.182.8.313 1.451 1.109 1.463h6.13c.784-.039 1.546-.674 1.725-1.458l2.76-12.212C11.947.661 11.44.004 10.632.004" mask="url(#b)"/>
        </g>
        <path fill="#024381" d="M18.036 18.135l2.76-12.211c.182-.793 1.18-1.436 1.982-1.46l-2.32-.002-4.18-.001c-.805.016-1.816.664-1.998 1.463l-2.76 12.211c-.183.8.312 1.451 1.108 1.463h6.517c-.796-.012-1.29-.663-1.109-1.463"/>
        <g transform="translate(6.1 4.45)">
            <mask id="d" fill="#fff">
                <use xlink:href="#c"/>
            </mask>
            <path fill="#DD0228" d="M5.42 13.685L8.18 1.474C8.362.674 9.373.027 10.177.01L4.822.009c-.808 0-1.845.655-2.03 1.465l-2.76 12.21a1.532 1.532 0 0 0-.032.22v.226c.054.584.5 1.009 1.14 1.018h5.388c-.796-.012-1.291-.663-1.109-1.463" mask="url(#d)"/>
        </g>
        <path fill="#FFF" d="M17.135 11.308c.103-.11.176-.279.22-.503a1.231 1.231 0 0 0 .022-.208.428.428 0 0 0-.1-.303c-.066-.073-.16-.108-.282-.108a.508.508 0 0 0-.395.17c-.103.113-.177.284-.223.512a.758.758 0 0 0-.02.202c0 .13.033.23.1.3.066.071.16.106.283.106a.512.512 0 0 0 .395-.168zm-1.107.42c-.152-.146-.23-.342-.23-.59a1.585 1.585 0 0 1 .031-.298c.069-.344.216-.617.442-.818.226-.202.498-.304.817-.304.261 0 .468.073.62.22.151.146.227.344.227.596a1.448 1.448 0 0 1-.033.305c-.067.338-.213.608-.44.805a1.191 1.191 0 0 1-.814.298c-.262 0-.469-.071-.62-.215zm-.913-2.725h.586l-.11.513h-.586l.11-.513zm-.183.77h.581l-.455 2.115h-.58l.454-2.114zm-3.117.933c-.082.401-.272.71-.566.929-.293.215-.67.323-1.13.323-.434 0-.753-.11-.956-.331a.863.863 0 0 1-.21-.599c0-.1.011-.207.035-.322l.492-2.37h.742l-.485 2.343a.753.753 0 0 0-.02.18c0 .12.03.218.09.294.087.114.23.171.429.171a.896.896 0 0 0 .562-.168.774.774 0 0 0 .284-.477l.487-2.343h.738l-.492 2.37zm7.323 4.163h.604l-.01.261h.16c.081 0 .122-.026.122-.077l.047-.17h.503l-.067.247c-.057.206-.208.313-.452.323h-.322l-.002.447c-.005.072.06.109.193.109h.302l-.097.354h-.726c-.204.01-.303-.088-.301-.293l.046-1.201zm.707-.525c.078.01.12-.02.126-.092l.064-.231h-1.048l-.088.323h.946zm.38-1.016h-1.047l-.126.438s.175-.126.466-.13c.29-.005.622 0 .622 0l.084-.308zm-.994-.46l-.029.253s.35-.262.667-.262h1.173l-.449 1.624c-.037.185-.197.277-.478.277h-1.33l-.31 1.14c-.019.062.007.093.074.093h.261l-.096.354h-.665c-.255 0-.361-.077-.32-.231l.88-3.247h.622zm-2.957 1.06h1.853l-.118.432h-.745l-.114.416h.725l-.118.432h-.725l-.168.615c-.042.103.013.149.163.139h.591l-.11.4h-1.134c-.215 0-.289-.122-.221-.37l.215-.784h-.463l.117-.432h.464l.114-.416h-.443l.117-.432zm.116-.569h.102c.093 0 .155-.031.185-.093l.263-.394h.705l-.147.259h.846l-.108.397H17.23c-.116.174-.258.256-.43.247h-.524l.114-.416z"/>
        <path fill="#E02F41" d="M22.791 4.494l-2.333-.032 2.32.067c.004 0 .009-.035.013-.035"/>
        <g transform="translate(16.272 4.45)">
            <mask id="f" fill="#fff">
                <use xlink:href="#e"/>
            </mask>
            <path fill="#2E4F7D" d="M4.186.309L.038.209C.028.209.016.24.006.273l4.18.036" mask="url(#f)"/>
        </g>
        <path fill="#FFF" d="M24.587 11.036c-.107.316-.347.526-.535.466-.188-.058-.255-.363-.146-.68.107-.318.349-.527.535-.467.188.058.255.363.146.68zm.38-1.09l-.246.169c-.257-.201-.492-.326-.945-.116-.617.286-1.132 2.48.567 1.758l.097.115.668.017.439-1.994-.58.05zm1.732 2.352c-.224.475-.437.752-.562.881-.125.128-.374.424-.971.402l.051-.363c.503-.155.775-.853.93-1.162l-.185-2.277.39-.005h.326l.035 1.428.611-1.428h.62l-1.245 2.524zm-5.215-2.244h.677a.657.657 0 0 0 .419-.122c.101-.082.168-.208.205-.378.006-.03.01-.06.014-.085.003-.025.006-.05.006-.073 0-.122-.043-.21-.13-.265-.086-.056-.222-.082-.41-.082h-.575l-.206 1.005zm-.381-1.593h1.523c.293 0 .52.067.675.197.155.132.232.321.232.568v.007c0 .047-.003.1-.007.157a2.36 2.36 0 0 1-.03.174 1.34 1.34 0 0 1-.463.788 1.31 1.31 0 0 1-.857.298h-.817l-.252 1.239h-.708l.704-3.428zM18.51 9.773h.525l-.06.305.074-.087a.817.817 0 0 1 .62-.272c.221 0 .38.064.48.193.097.129.125.307.078.536l-.288 1.44h-.54l.262-1.305c.026-.135.019-.236-.022-.3-.043-.065-.12-.097-.232-.097a.507.507 0 0 0-.35.128.632.632 0 0 0-.19.36l-.24 1.215h-.54l.423-2.116zm-6.011 0h.524l-.06.305.075-.087a.816.816 0 0 1 .62-.272c.22 0 .38.064.48.193.098.129.125.307.078.536l-.288 1.44h-.54l.262-1.305c.026-.135.019-.236-.022-.3-.041-.065-.12-.097-.233-.097a.504.504 0 0 0-.35.128.64.64 0 0 0-.189.36l-.24 1.215h-.54l.423-2.116zm11.36 3.973h2.157l-.127.448h-.687l-.117.415h.686l-.128.447h-.764l-.173.261h.374l.087.524c.01.052.056.077.135.077h.116l-.122.432h-.411c-.213.01-.323-.061-.332-.216l-.1-.478-.34.509a.369.369 0 0 1-.371.2h-.628l.122-.431h.196c.08 0 .148-.036.208-.108l.533-.77h-.687l.127-.447h.745l.119-.415h-.746l.127-.448zm.194-.893h.667l.028.246c-.005.062.033.092.112.092h.117l-.119.417h-.49c-.186.01-.282-.062-.291-.216l-.024-.539zm-1.713 2.85l.135-.478h-.529l-.136.478h.53zm-.133-1.401l-.18.659s.341-.168.576-.183c.068-.254.135-.476.135-.476h-.53zm.264-.925l-.18.63s.308-.12.574-.153c.059-.22.136-.477.136-.477h-.53zm-.765 0l.14-.493h.71l-.031.18s.362-.18.622-.18h.877l-.14.493h-.137l-.661 2.326h.137l-.13.462h-.139l-.057.2h-.686l.057-.2h-1.354l.132-.462h.136l.661-2.326h-.137z"/>
    </g>
</svg>
