<svg xmlns="http://www.w3.org/2000/svg" xmlns:xlink="http://www.w3.org/1999/xlink" width="36" height="24" viewBox="0 0 36 24">
    <defs>
        <path id="a" d="M21.818 7.5c-2.226 0-3.792 1.183-3.804 2.877-.016 1.254 1.117 1.954 1.97 2.37.878.426 1.172.7 1.169 1.082-.007.584-.7.842-1.348.852-1.132.017-1.79-.306-2.313-.55l-.407 1.907c.524.242 1.496.453 2.504.462 2.365 0 3.912-1.168 3.92-2.978.01-2.297-3.177-2.424-3.155-3.451.007-.311.304-.644.955-.728.323-.043 1.212-.076 2.22.389l.397-1.845a6.036 6.036 0 0 0-2.108-.387zm5.911.16c-.432 0-.796.251-.958.638l-3.379 8.066h2.364l.47-1.3h2.888l.273 1.3h2.083L29.652 7.66H27.73zm.33 2.35l.683 3.27h-1.868l1.186-3.27zM15.15 7.66l-1.864 8.704h2.252L17.4 7.66h-2.25zm-3.332 0l-2.345 5.924-.948-5.038c-.111-.562-.55-.887-1.038-.887H3.654l-.054.253c.787.17 1.68.446 2.222.74.331.18.426.338.535.765l1.796 6.947h2.38l3.649-8.705h-2.365z"/>
    </defs>
    <g fill="none" fill-rule="evenodd">
        <path d="M0 0h36v24H0z"/>
        <use fill="#224DBA" xlink:href="#a"/>
    </g>
</svg>
