<?xml version="1.0" encoding="UTF-8" standalone="no"?>
<svg width="24px" height="24px" viewBox="0 0 24 24" version="1.1" xmlns="http://www.w3.org/2000/svg" xmlns:xlink="http://www.w3.org/1999/xlink">
    <!-- Generator: Sketch 3.8.2 (29753) - http://www.bohemiancoding.com/sketch -->
    <title>icon_dismiss2</title>
    <desc>Created with Sketch.</desc>
    <defs></defs>
    <g id="Page-1" stroke="none" stroke-width="1" fill="none" fill-rule="evenodd">
        <g id="new_checkout_components" transform="translate(-144.000000, -85.000000)">
            <g id="icon_dismiss2" transform="translate(156.000000, 97.000000) rotate(-90.000000) translate(-156.000000, -97.000000) translate(144.000000, 85.000000)">
                <rect id="bounds" x="0" y="0" width="24" height="24"></rect>
                <path d="M13.1276267,12 L18.7653687,6.36225802 C19.0713465,6.05628018 19.0771459,5.54562517 18.7657603,5.23423965 C18.4522039,4.92068321 17.9493438,4.92302947 17.637742,5.23463129 L12,10.8723733 L6.36225802,5.23463129 C6.05628018,4.92865345 5.54562517,4.92285413 5.23423965,5.23423965 C4.92068321,5.5477961 4.92302947,6.0506562 5.23463129,6.36225802 L10.8723733,12 L5.23463129,17.637742 C4.92865345,17.9437198 4.92285413,18.4543748 5.23423965,18.7657603 C5.5477961,19.0793168 6.0506562,19.0769705 6.36225802,18.7653687 L12,13.1276267 L17.637742,18.7653687 C17.9437198,19.0713465 18.4543748,19.0771459 18.7657603,18.7657603 C19.0793168,18.4522039 19.0769705,17.9493438 18.7653687,17.637742 L13.1276267,12 L13.1276267,12 Z" id="Cancel" fill="#A4A4A4"></path>
            </g>
        </g>
    </g>
</svg>