<?xml version="1.0" encoding="UTF-8" standalone="no"?>
<svg width="47px" height="28px" viewBox="0 0 47 28" version="1.1" xmlns="http://www.w3.org/2000/svg" xmlns:xlink="http://www.w3.org/1999/xlink">
    <!-- Generator: sketchtool 3.6.1 (26313) - http://www.bohemiancoding.com/sketch -->
    <title>60C4DCD1-9539-4A77-A9C4-CB3E1909EA67</title>
    <desc>Created with sketchtool.</desc>
    <defs></defs>
    <g id="Page-1" stroke="none" stroke-width="1" fill="none" fill-rule="evenodd">
        <g id="checkout_icons_illustrations" transform="translate(-759.000000, -1235.000000)">
            <g id="Cirrus-light" transform="translate(759.000000, 1235.000000)">
                <rect id="Rectangle" fill="#FFFFFF" x="0" y="0" width="46.6666667" height="28" rx="4"></rect>
                <path d="M26.6070197,14.0001458 C26.6070197,19.096875 22.4481127,23.2283333 17.3178839,23.2283333 C12.1879487,23.2283333 8.02918842,19.096875 8.02918842,14.0001458 C8.02918842,8.904 12.1879487,4.77225 17.3178839,4.77225 C22.4481127,4.77225 26.6070197,8.904 26.6070197,14.0001458" id="Fill-374" fill="#333399"></path>
                <path d="M29.7885865,4.77225 C27.3886864,4.77225 25.2016344,5.67685417 23.553015,7.16085417 C23.2174488,7.46302083 22.9039014,7.78997917 22.6153086,8.1375 L24.4916022,8.1375 C24.7484879,8.44739583 24.9846761,8.7731875 25.1998729,9.11472917 L21.9070379,9.11472917 C21.7098964,9.4285625 21.5306635,9.7545 21.3719815,10.0919583 L25.7349293,10.0919583 C25.8837762,10.4084167 26.0154485,10.7342083 26.1281847,11.0686042 L20.9782858,11.0686042 C20.8709809,11.3873958 20.7809975,11.7131875 20.7086291,12.0459792 L26.3976945,12.0459792 C26.5345045,12.6759792 26.6070197,13.3296042 26.6070197,14.0001458 C26.6070197,15.0249167 26.4386495,16.01075 26.1281847,16.9316875 L20.9782858,16.9316875 C21.0913155,17.2662292 21.222841,17.5924583 21.3716879,17.9089167 L25.7349293,17.9089167 C25.5758069,18.2460833 25.3970144,18.5723125 25.1994326,18.8861458 L21.9070379,18.8861458 C22.1220879,19.2271042 22.3587164,19.5534792 22.6153086,19.8627917 L24.4913086,19.8627917 C24.2031562,20.2108958 23.8893152,20.5378542 23.5533086,20.8400208 C25.2017812,22.3240208 27.3886864,23.2283333 29.7885865,23.2283333 C34.9186685,23.2283333 39.0774288,19.096875 39.0774288,14.0001458 C39.0774288,8.904 34.9186685,4.77225 29.7885865,4.77225" id="Fill-375" fill="#0066CC"></path>
                <path d="M37.8392394,19.1438333 C37.8392394,18.9793333 37.9737008,18.8461875 38.1391352,18.8461875 C38.30501,18.8461875 38.439031,18.9793333 38.439031,19.1438333 C38.439031,19.3084792 38.30501,19.4420625 38.1391352,19.4420625 C37.9737008,19.4420625 37.8392394,19.3084792 37.8392394,19.1438333 L37.8392394,19.1438333 Z M38.1391352,19.3706042 C38.2653762,19.3706042 38.3672498,19.26925 38.3672498,19.1438333 C38.3672498,19.0188542 38.2653762,18.9177917 38.1391352,18.9177917 C38.0134814,18.9177917 37.911461,19.0188542 37.911461,19.1438333 C37.911461,19.26925 38.0134814,19.3706042 38.1391352,19.3706042 L38.1391352,19.3706042 Z M38.0987674,19.2746458 L38.0374085,19.2746458 L38.0374085,19.0131667 L38.1486767,19.0131667 C38.1718698,19.0131667 38.1953565,19.0131667 38.2159074,19.0262917 C38.2371922,19.0407292 38.2492291,19.0658125 38.2492291,19.0914792 C38.2492291,19.121375 38.2320545,19.1490833 38.2038704,19.1595833 L38.2520182,19.2746458 L38.1837599,19.2746458 L38.1438326,19.17125 L38.0987674,19.17125 L38.0987674,19.2746458 L38.0987674,19.2746458 Z M38.0987674,19.1264792 L38.1326764,19.1264792 C38.1453005,19.1264792 38.1589521,19.1273542 38.1701083,19.121375 C38.1802369,19.1148125 38.1855214,19.1028542 38.1855214,19.0911875 C38.1855214,19.0812708 38.1793562,19.0698958 38.1706955,19.0645 C38.1598329,19.0582292 38.142805,19.0598333 38.131502,19.0598333 L38.0987674,19.0598333 L38.0987674,19.1264792 L38.0987674,19.1264792 Z" id="Fill-376" fill="#0066CC"></path>
                <path d="M16.7823872,11.8876042 C16.6994498,12.2495625 16.6559994,12.4546042 16.5435568,12.8953125 C15.8451211,12.6010208 14.908589,12.4474583 14.1900429,12.8932708 C13.5120113,13.3220208 13.2828692,13.9909583 13.332338,14.7319375 C13.3822473,15.0885 13.6516103,15.43675 14.0309205,15.5878333 C14.688548,15.8290417 15.3160833,15.7408125 16.0146657,15.3861458 C15.9152876,15.83225 15.8404238,16.1825417 15.7536698,16.5014792 C14.9157818,16.7339375 14.1204635,16.8103542 13.2828692,16.5337083 C12.534671,16.2751458 11.926072,15.6057708 11.8766031,14.8834583 C11.7069117,13.7235 12.2656016,12.5367083 13.4023577,11.9920208 C14.4594059,11.5195208 15.6653011,11.601625 16.7823872,11.8876042" id="Fill-377" fill="#000066"></path>
                <path d="M28.6188022,16.0101667 C28.3978804,16.2297917 28.0226804,16.7108958 27.0029174,16.7108958 C26.0741653,16.7108958 25.4222626,16.0304375 25.7523975,14.5025417 C25.7523975,14.50225 26.136405,12.7038333 26.136405,12.7038333 L27.5536804,12.7038333 C27.5536804,12.7038333 27.1687922,14.5042917 27.1695261,14.5025417 C27.0385878,15.1144583 27.0695609,15.5801042 27.6951878,15.5801042 C28.4325233,15.5801042 28.6531515,15.1372083 28.792457,14.5025417 C28.7914294,14.5034167 29.1773452,12.7038333 29.1773452,12.7038333 L30.6559797,12.7038333 L30.0197837,15.5952708 C29.9474153,15.9344792 29.8782764,16.2936667 29.838349,16.6478958 L28.507534,16.6478958 C28.507534,16.6478958 28.5914989,16.1662083 28.6188022,16.0101667" id="Fill-378" fill="#000066"></path>
                <path d="M31.1263008,13.9511458 C31.1263008,14.4513542 31.4568761,14.7931875 32.2081568,15.0485417 C32.7881315,15.2499375 32.8791424,15.309 32.8791424,15.4841458 C32.8791424,15.7336667 32.6202016,15.8395417 32.0612182,15.8395417 C31.6356685,15.8395417 31.2405049,15.7973958 30.7831014,15.6877292 C30.7831014,15.6877292 30.6031346,16.5058542 30.5847856,16.5991875 C30.9824448,16.669625 31.6710454,16.7108958 32.0710532,16.7108958 C33.5718532,16.7108958 34.2677934,16.2941042 34.2677934,15.3948958 C34.2677934,14.8569167 33.9759712,14.5401667 33.2640307,14.2975 C32.6637987,14.1015 32.597302,14.0562917 32.597302,13.8691875 C32.597302,13.6597708 32.8343709,13.5486458 33.2955909,13.5486458 C33.5731743,13.5486458 33.9618792,13.5719792 34.323134,13.6096042 L34.5224773,12.6945 C34.1537362,12.6508958 33.5919637,12.6158958 33.2678473,12.6158958 C31.6750088,12.6158958 31.1213099,13.2250417 31.1263008,13.9511458" id="Fill-379" fill="#000066"></path>
                <path d="M17.3228748,12.7038333 L18.805913,12.7038333 L17.960979,16.6478958 L16.4776473,16.6478958 L17.3228748,12.7038333" id="Fill-380" fill="#000066"></path>
                <path d="M25.79438,12.6870625 C24.7486347,12.5498333 24.4502069,13.06025 24.1693941,13.314 C24.2028626,13.1086667 24.264662,12.9084375 24.2523315,12.7038333 L22.890103,12.7038333 C22.7027966,13.9251875 22.3701662,15.161125 22.1099042,16.3824792 L22.041646,16.6476042 L23.5838413,16.6476042 C23.7599915,15.8466875 23.9644726,14.6375833 24.2003671,14.2715417 C24.4359681,13.9060833 24.8280491,13.6139792 25.3428482,13.7897083 L25.79438,12.6870625" id="Fill-381" fill="#000066"></path>
                <path d="M22.5608488,12.6870625 C21.5152504,12.5498333 21.2169693,13.06025 20.9360097,13.314 C20.969625,13.1086667 21.0311308,12.9084375 21.0189471,12.7038333 L19.6568654,12.7038333 C19.469559,13.9251875 19.1367818,15.161125 18.8766667,16.3824792 L18.8084085,16.6476042 L20.350457,16.6476042 C20.526754,15.8466875 20.7312351,14.6375833 20.9669828,14.2715417 C21.2027305,13.9060833 21.5946648,13.6139792 22.1094638,13.7897083 L22.5608488,12.6870625" id="Fill-382" fill="#000066"></path>
                <path d="M34.7224078,16.0609167 C34.7224078,15.8962708 34.8567224,15.7626875 35.0224504,15.7626875 C35.1880316,15.7626875 35.322493,15.8962708 35.322493,16.0609167 C35.322493,16.2255625 35.1880316,16.3588542 35.0224504,16.3588542 C34.8567224,16.3588542 34.7224078,16.2255625 34.7224078,16.0609167 L34.7224078,16.0609167 Z M35.0224504,16.2873958 C35.148251,16.2873958 35.2505649,16.1858958 35.2505649,16.0609167 C35.2505649,15.9357917 35.148251,15.8344375 35.0224504,15.8344375 C34.8966498,15.8344375 34.794189,15.9357917 34.794189,16.0609167 C34.794189,16.1858958 34.8966498,16.2873958 35.0224504,16.2873958 L35.0224504,16.2873958 Z M34.9819358,16.1915833 L34.92043,16.1915833 L34.92043,15.9295208 L35.0316983,15.9295208 C35.0547446,15.9295208 35.0786717,15.9301042 35.098929,15.9432292 C35.1206541,15.9575208 35.1325443,15.9828958 35.1325443,16.0084167 C35.1325443,16.0381667 35.1152228,16.0657292 35.086892,16.0762292 L35.1353333,16.1915833 L35.0673687,16.1915833 L35.0271477,16.0878958 L34.9819358,16.0878958 L34.9819358,16.1915833 L34.9819358,16.1915833 Z M34.9819358,16.0429792 L35.0159915,16.0429792 C35.0286156,16.0429792 35.0425609,16.0441458 35.0534235,16.0381667 C35.0635521,16.0318958 35.0686898,16.0196458 35.0686898,16.0082708 C35.0686898,15.9982083 35.0623778,15.9865417 35.0541574,15.9811458 C35.0434416,15.9751667 35.0259734,15.976625 35.0143768,15.976625 L34.9819358,15.976625 L34.9819358,16.0429792 L34.9819358,16.0429792 Z" id="Fill-383" fill="#FFFFFF"></path>
                <path d="M17.0725947,11.599 C16.9896573,11.9613958 16.9460601,12.1664375 16.8339111,12.6067083 C16.1353286,12.3128542 15.1987966,12.1592917 14.4802504,12.6048125 C13.8023656,13.0334167 13.5733703,13.7025 13.6225455,14.4433333 C13.6727484,14.8001875 13.9418178,15.1482917 14.3212748,15.2995208 C14.9787556,15.5405833 15.6062908,15.4522083 16.30502,15.0975417 C16.2056419,15.5439375 16.1306313,15.8942292 16.0438773,16.2133125 C15.2062829,16.4454792 14.410671,16.5220417 13.5733703,16.2453958 C12.8248786,15.9868333 12.2165731,15.3174583 12.1669574,14.5948542 C11.997266,13.4350417 12.5558091,12.2481042 13.6927121,11.7035625 C14.7496135,11.2310625 15.9553618,11.3130208 17.0725947,11.599" id="Fill-384" fill="#FFFFFF"></path>
                <path d="M28.9091565,15.722 C28.6880879,15.941625 28.3127412,16.4222917 27.2931249,16.4222917 C26.3643728,16.4222917 25.7742695,15.742125 26.1042576,14.2140833 L26.4887055,12.4156667 L27.9061277,12.4156667 C27.9061277,12.4156667 27.5209459,14.2156875 27.5213862,14.2140833 C27.3905947,14.8261458 27.4217146,15.2917917 28.0474883,15.2917917 C28.7842366,15.2917917 29.0053052,14.8488958 29.1443171,14.2140833 C29.1434363,14.21525 29.5293521,12.4156667 29.5293521,12.4156667 L30.946334,12.4156667 L30.3098444,15.3069583 C30.2376228,15.645875 30.1687775,16.0050625 30.1287033,16.3597292 L28.7980351,16.3597292 C28.7980351,16.3597292 28.882,15.87775 28.9091565,15.722" id="Fill-385" fill="#FFFFFF"></path>
                <path d="M31.4165083,13.6628333 C31.4165083,14.1630417 31.7470836,14.504875 32.4985111,14.7600833 C33.0786326,14.9614792 33.1694967,15.0206875 33.1694967,15.1955417 C33.1694967,15.4453542 32.9102623,15.551375 32.3515725,15.551375 C31.9260228,15.551375 31.5308592,15.5089375 31.0733089,15.3995625 C31.0733089,15.3995625 30.8933421,16.21725 30.8748463,16.3110208 C31.2727991,16.3813125 31.9612529,16.4222917 32.3614075,16.4222917 C33.8620607,16.4222917 34.5581477,16.0059375 34.5581477,15.1064375 C34.5581477,14.5683125 34.2664723,14.252 33.5542382,14.0093333 C32.9538595,13.8133333 32.8873628,13.7676875 32.8873628,13.580875 C32.8873628,13.3714583 33.1247252,13.2604792 33.586092,13.2604792 C33.8633818,13.2604792 34.2522335,13.2838125 34.6136351,13.3211458 L34.812538,12.4058958 C34.4439437,12.3622917 33.8821712,12.3272917 33.5582016,12.3272917 C31.9653631,12.3272917 31.4113706,12.9365833 31.4165083,13.6628333" id="Fill-386" fill="#FFFFFF"></path>
                <path d="M17.6745881,12.4156667 L19.0964141,12.4156667 L18.2511865,16.3597292 L16.8298009,16.3597292 L17.6745881,12.4156667" id="Fill-387" fill="#FFFFFF"></path>
                <path d="M26.0845875,12.3988958 C25.038989,12.2615208 24.740708,12.7719375 24.4596016,13.0256875 C24.4932169,12.8203542 24.5548695,12.6198333 24.542539,12.4156667 L23.2421099,12.4156667 C23.0549502,13.6367292 22.7220263,14.8725208 22.4620579,16.0941667 L22.3937997,16.3591458 L23.8740488,16.3591458 C24.0504926,15.5582292 24.2548269,14.349125 24.4907214,13.983375 C24.7263224,13.617625 25.1184034,13.3256667 25.6329089,13.5013958 L26.0845875,12.3988958" id="Fill-388" fill="#FFFFFF"></path>
                <path d="M22.8513499,12.3988958 C21.8056047,12.2615208 21.5073236,12.7719375 21.2262172,13.0256875 C21.2598326,12.8203542 21.3216319,12.6198333 21.3091546,12.4156667 L20.0087255,12.4156667 C19.8215659,13.6367292 19.4889355,14.8725208 19.2285268,16.0941667 L19.1604153,16.3591458 L20.6405177,16.3591458 C20.8171083,15.5582292 21.0212958,14.349125 21.2574839,13.983375 C21.492938,13.617625 21.8850191,13.3256667 22.3996714,13.5013958 L22.8513499,12.3988958" id="Fill-389" fill="#FFFFFF"></path>
            </g>
        </g>
    </g>
</svg>
