<svg xmlns="http://www.w3.org/2000/svg" width="24" height="24" viewBox="0 0 24 24">
    <path fill="#000" fill-rule="nonzero" d="M12.437 22a1 1 0 0 1-.086-2 8.067 8.067 0 0 0 .758-.069 1 1 0 0 1 .275 1.982 10.008 10.008 0 0 1-.947.086zm3.964-1.01a1 1 0 1 1-.881-1.796 8 8 0 0 0 1.248-.763 1 1 0 1 1 1.194 1.606 9.999 9.999 0 0 1-1.561.953zm3.802-3.263a1 1 0 1 1-1.64-1.146 7.978 7.978 0 0 0 .955-1.833 1 1 0 1 1 1.879.686 9.98 9.98 0 0 1-1.194 2.293zM22 12.004a1 1 0 1 1-2 0 8.002 8.002 0 0 0-8-8.003c-4.418 0-8 3.583-8 8.003a7.994 7.994 0 0 0 3.562 6.66 1 1 0 0 1-1.11 1.664A9.995 9.995 0 0 1 2 12.004C2 6.48 6.477 2 12 2s10 4.479 10 10.004zm-8.9 5.094a1.1 1.1 0 1 1-2.2 0v-5.502a1.1 1.1 0 1 1 2.2 0v5.502zm-.322-8.326a1.1 1.1 0 1 1-1.556-1.554 1.1 1.1 0 0 1 1.556 1.554z"/>
</svg>
