<svg xmlns="http://www.w3.org/2000/svg" width="16" height="16" viewBox="0 0 16 16"><path fill="#FFF" d="M9.923 11.43c.533.093 1.128.199 1.785.315.002 0 .39-2.187 1.163-6.56 0-.002-.982-.176-2.947-.523l.927 5.256a1.34 1.34 0 0 1-.928 1.511zm-3.8.679-1.6.282a1.338 1.338 0 0 1-1.55-1.084L1.815 4.749A1.34 1.34 0 0 1 2.902 3.2l5.242-.924a1.338 1.338 0 0 1 1.53.988l3.424.603a1.338 1.338 0 0 1 1.086 1.55l-1.156 6.557a1.34 1.34 0 0 1-1.551 1.085l-5.241-.924a1.36 1.36 0 0 1-.112-.025zm-1.838-1.034c0 .002 1.75-.305 5.248-.921.001 0-.382-2.188-1.152-6.563 0 0-1.749.306-5.247.922-.002 0 .382 2.188 1.151 6.562z"/></svg>