<svg width="24" height="24" viewBox="0 0 24 24" xmlns="http://www.w3.org/2000/svg"><g id="Page-1" stroke="none" stroke-width="1" fill="none" fill-rule="evenodd"><g id="footer_icons" transform="translate(-204 -57)"><g id="hs-icon" transform="translate(204 57)"><path id="Rectangle-2796" d="M0 0h24v24H0z"/><rect id="bg" fill="#A4A4A4" x="2" y="2" width="20" height="20" rx="2"/><path d="M10.577 10.226a2.392 2.392 0 0 1 .025-.036l.072-.106c.08-.116.173-.245.276-.385l.129-.176-.351-.258-.13.176a17.346 17.346 0 0 0-.384.545l-.12.182.363.24.12-.182zm.974-1.302c.139-.169.279-.334.42-.493l.145-.163-.325-.289-.145.163c-.146.164-.29.333-.431.506l-.138.168.336.276.138-.168zm1.095-1.197c.161-.155.32-.298.477-.427l.168-.139-.278-.336-.167.139a8.96 8.96 0 0 0-.502.449l-.157.15.302.314.157-.15zm1.257-.968c.196-.106.382-.182.557-.227l.21-.053-.106-.422-.211.053a2.869 2.869 0 0 0-.658.267l-.19.104.207.382.191-.104zm1.358-.157c.146.084.273.213.384.388l.116.184.368-.232-.116-.184a1.557 1.557 0 0 0-.535-.533l-.188-.109-.218.378.19.108zm.713 1.244c.044.193.079.401.105.623l.025.216.432-.05-.025-.216a6.122 6.122 0 0 0-.113-.671l-.05-.213-.423.098.049.213zm.16 1.59a10.7 10.7 0 0 1-.017.642l-.012.218.435.024.012-.218c.012-.208.018-.433.017-.669l-.001-.218-.436.003.001.217z" id="Line" stroke="#FFF" stroke-width=".2" fill="#FFF"/><path d="M17.816 15.008c.134.223.196.463.196.74 0 .24-.045.471-.125.712a1.7 1.7 0 0 1-.347.516 1.624 1.624 0 0 1-.48.338c-.17.09-.356.16-.552.196a2.668 2.668 0 0 1-.578.063c-.534 0-1.015-.125-1.442-.392a1.906 1.906 0 0 1-.507-.526c-.142-.213-.204-.471-.204-.765v-.036l.791.018c0 .151.036.267.098.356a.98.98 0 0 0 .267.285c.134.08.285.142.454.196.178.053.356.08.543.08.133 0 .276-.018.418-.053.133-.036.267-.072.374-.116.213-.143.356-.285.418-.463a.514.514 0 0 0 .071-.205c.009-.071.018-.134.018-.205a.7.7 0 0 0-.214-.49 1.444 1.444 0 0 0-.293-.258c-.116-.089-.25-.169-.392-.258a15.05 15.05 0 0 0-.934-.48 5.414 5.414 0 0 1-.934-.562 2.536 2.536 0 0 1-.48-.543 1.226 1.226 0 0 1-.205-.721c0-.196.035-.41.124-.624.16-.41.436-.685.828-.855.16-.089.338-.16.533-.196.196-.035.392-.053.597-.053.24 0 .489.027.738.09.25.061.472.16.667.293.214.134.383.303.525.516.152.223.223.472.223.757v.045h-.783v-.045a.692.692 0 0 0-.107-.338 1.759 1.759 0 0 0-.258-.258 2.007 2.007 0 0 0-.463-.187 1.863 1.863 0 0 0-.542-.08c-.32 0-.588.062-.801.187a.927.927 0 0 0-.427.418.969.969 0 0 0-.063.33c0 .151.072.302.196.463.17.178.392.33.676.472.294.16.614.32.952.49.347.16.659.364.944.587.186.16.347.347.48.561z" id="Shape" stroke="#FFF" stroke-width=".2" fill="#FFF"/><path d="M12.388 16.378c.071.232.205.428.41.58l-.445.667a1.827 1.827 0 0 1-.463-.48 2.372 2.372 0 0 1-.267-.57 2.434 2.434 0 0 1-.08-.553c-.018-.178-.018-.356-.018-.525V14.01c0-.374-.062-.73-.178-1.042a2.533 2.533 0 0 0-.48-.828c-.4-.49-.89-.74-1.468-.74-.588 0-1.086.25-1.486.74a2.675 2.675 0 0 0-.463.81c-.116.32-.187.659-.187 1.015v3.42H6.48v-7.24c-.089.009-.169.009-.249.009h-.258v-.81h.258c.08 0 .16 0 .25-.01V8.329c0-.16 0-.338.008-.525.009-.187.036-.383.071-.579a2.58 2.58 0 0 1 .223-.579c.107-.187.249-.356.445-.49.124-.088.258-.16.391-.195.142-.036.276-.054.41-.054.24 0 .462.054.658.17.196.115.356.249.49.427.142.17.248.356.328.57a1.758 1.758 0 0 1 .08 1.104c-.026.142-.08.294-.16.436-.169.33-.391.597-.658.802a2.81 2.81 0 0 1-.881.472 1.502 1.502 0 0 1-.302.089l-.32.08v1.603c.026-.01.035-.027.035-.045.276-.303.578-.543.934-.739a2.473 2.473 0 0 1 1.166-.276c.409 0 .791.09 1.156.276.356.196.659.436.908.74.276.31.48.676.632 1.086.15.41.222.846.222 1.309V15.497c0 .16.009.32.018.472.009.151.026.285.053.41zM7.325 7.411a2.908 2.908 0 0 0-.053.445c-.009.16-.009.321-.009.472v.909A2.419 2.419 0 0 0 8.277 8.8c.178-.152.33-.33.463-.562.062-.16.098-.32.098-.49a1.255 1.255 0 0 0-.25-.756c-.08-.09-.168-.16-.266-.214a.602.602 0 0 0-.285-.08h-.009a.664.664 0 0 0-.178.026c-.062.018-.124.054-.204.098-.125.09-.232.285-.32.588z" id="Shape-Copy" stroke="#FFF" stroke-width=".2" fill="#FFF"/></g></g></g></svg>