<svg xmlns="http://www.w3.org/2000/svg" width="24" height="24" viewBox="0 0 24 24">
    <path fill="none" fill-rule="evenodd" stroke="#000" stroke-width="1.6" d="M10.725 13.202c1.405 1.457 3.57 1.822 3.57 1.822l1.19-.893a1 1 0 0 1 .6-.2h1.489c.728 0 1.093.364 1.093 1.093v2.914c0 .729 0 .734-1.44.729-3.214-.094-6.657-1.01-8.732-3.248-2.231-2.076-3.067-5.436-3.161-8.645-.005-1.44 0-1.44.729-1.44h2.914c.729 0 1.093.364 1.093 1.092v1.489a1 1 0 0 1-.2.6l-.89 1.19c0 .366.289 2.092 1.745 3.497z"/>
</svg>
