<svg xmlns="http://www.w3.org/2000/svg" width="82.19" height="73.97" viewBox="0 0 82.19 73.97">
    <path d="M24.6 3.375A22.244 22.244 0 0 0 2 25.977a26.141 26.141 0 0 0 3.033 11.984C7.683 43.18 11.879 48.3 18.878 55.34c2.384 2.392 16.689 16.15 21.3 20.794a4.109 4.109 0 0 0 5.827 0c4.615-4.644 18.924-18.4 21.3-20.794 7-7.035 11.194-12.164 13.845-17.383a26.061 26.061 0 0 0 3.04-11.98 22.244 22.244 0 0 0-22.6-22.6c-9.674 0-18.941 6.205-22.327 14.959h7.668C43.543 9.58 34.272 3.375 24.6 3.375zm22.329 17.917c2.145-5.548 8.342-9.7 14.659-9.7a14.03 14.03 0 0 1 14.383 14.385 17.92 17.92 0 0 1-2.145 8.26c-2.162 4.266-5.9 8.835-12.337 15.3-2.3 2.31-16.611 16.068-21.308 20.8h5.827C41.311 65.613 27 51.847 24.7 49.545c-6.435-6.472-10.175-11.042-12.337-15.3a17.961 17.961 0 0 1-2.145-8.264A14.03 14.03 0 0 1 24.6 11.594c6.308 0 12.513 4.151 14.659 9.7a4.11 4.11 0 0 0 7.668 0z" transform="translate(-2 -3.375)" style="fill:#ffffff"/>
</svg>
