<svg xmlns="http://www.w3.org/2000/svg" width="24" height="24" viewBox="0 0 24 24">
    <g fill="none" fill-rule="evenodd">
        <path d="M0 0h24v24H0z"/>
        <path fill="#000" fill-rule="nonzero" d="M11.076 11.584H9.493a.917.917 0 0 1 0-1.833h1.584V8.168a.917.917 0 1 1 1.833 0V9.75h1.582a.917.917 0 0 1 0 1.833H12.91v1.584a.917.917 0 0 1-1.833 0v-1.584z"/>
        <path fill="#000" fill-rule="nonzero" d="M12 18.063l-4.054 2.564c-.6.423-1.324.486-1.945.174A1.807 1.807 0 0 1 5 19.183V5.657C5 4.187 6.213 3 7.696 3h8.608C17.787 3 19 4.187 19 5.657v13.527c0 .687-.386 1.308-1.002 1.618a1.856 1.856 0 0 1-1.887-.131c-.052-.038-.052-.038-.092-.072l-4.02-2.536zM17.05 5.657c0-.387-.332-.711-.747-.711H7.697c-.416 0-.747.324-.747.711v13.257l4.405-2.879a.978.978 0 0 1 1.29 0l4.406 2.886V5.657z"/>
    </g>
</svg>
