<svg xmlns="http://www.w3.org/2000/svg" xmlns:xlink="http://www.w3.org/1999/xlink" width="16" height="16" viewBox="0 0 16 16"><defs><path id="a" d="M2 3.333v9.334C2 13.404 2.596 14 3.333 14h9.334c.737 0 1.333-.596 1.333-1.333V3.333C14 2.596 13.404 2 12.667 2H3.333C2.596 2 2 2.596 2 3.333zm6 8a.667.667 0 0 1-.667-.666v-3a.667.667 0 1 1 1.333 0v3a.667.667 0 0 1-.666.666zM8 6a.667.667 0 0 1 0-1.333A.667.667 0 0 1 8 6z"/></defs><g fill="none" fill-rule="evenodd"><mask id="b" fill="#fff"><use xlink:href="#a"/></mask><use fill="#000" fill-rule="nonzero" xlink:href="#a"/><g fill="#000" mask="url(#b)" opacity=".36"><path d="M0 0h16v16H0z"/></g></g></svg>