<svg xmlns="http://www.w3.org/2000/svg" xmlns:xlink="http://www.w3.org/1999/xlink" width="144" height="144" viewBox="0 0 144 144">
    <defs>
        <path id="b" d="M87.208 54.98H60.667V13.27h20.018c1.63 0 3.08 1.045 3.596 2.594L91 36.021v15.166a3.79 3.79 0 0 1-3.792 3.792"/>
        <filter id="a" width="297.8%" height="243.9%" x="-98.9%" y="-43.2%" filterUnits="objectBoundingBox">
            <feOffset dy="12" in="SourceAlpha" result="shadowOffsetOuter1"/>
            <feGaussianBlur in="shadowOffsetOuter1" result="shadowBlurOuter1" stdDeviation="8"/>
            <feColorMatrix in="shadowBlurOuter1" values="0 0 0 0 0 0 0 0 0 0 0 0 0 0 0 0 0 0 0.24 0"/>
        </filter>
        <path id="d" d="M0 3.998A3.995 3.995 0 0 1 4.004 0h52.659a4.006 4.006 0 0 1 4.004 3.998V54.98H4.004A4.006 4.006 0 0 1 0 50.981V3.998z"/>
        <filter id="c" width="198.9%" height="209.1%" x="-49.5%" y="-32.7%" filterUnits="objectBoundingBox">
            <feOffset dy="12" in="SourceAlpha" result="shadowOffsetOuter1"/>
            <feGaussianBlur in="shadowOffsetOuter1" result="shadowBlurOuter1" stdDeviation="8"/>
            <feColorMatrix in="shadowBlurOuter1" values="0 0 0 0 0 0 0 0 0 0 0 0 0 0 0 0 0 0 0.24 0"/>
        </filter>
        <path id="f" d="M85.313 54.98a9.479 9.479 0 0 1-9.48 9.478 9.479 9.479 0 0 1-9.479-9.479 9.479 9.479 0 0 1 9.48-9.479 9.479 9.479 0 0 1 9.478 9.48zm-54.032 0c0 5.234-4.245 9.478-9.479 9.478-5.234 0-9.48-4.244-9.48-9.479 0-5.234 4.246-9.479 9.48-9.479s9.48 4.245 9.48 9.48z"/>
        <filter id="e" width="182.2%" height="416.5%" x="-41.1%" y="-94.9%" filterUnits="objectBoundingBox">
            <feOffset dy="12" in="SourceAlpha" result="shadowOffsetOuter1"/>
            <feGaussianBlur in="shadowOffsetOuter1" result="shadowBlurOuter1" stdDeviation="8"/>
            <feColorMatrix in="shadowBlurOuter1" values="0 0 0 0 0 0 0 0 0 0 0 0 0 0 0 0 0 0 0.24 0"/>
        </filter>
    </defs>
    <g fill="none" fill-rule="evenodd">
        <g fill-rule="nonzero" transform="translate(23 40)">
            <use fill="#000" filter="url(#a)" xlink:href="#b"/>
            <use fill="#DFE1E6" fill-rule="evenodd" xlink:href="#b"/>
        </g>
        <path fill="#3E4855" fill-rule="nonzero" d="M105.222 75H92.778C91.796 75 91 74.104 91 73V59c0-1.104.796-2 1.778-2h8.889c.768 0 1.445.55 1.687 1.368l3.555 12c.059.204.091.418.091.632v2c0 1.104-.796 2-1.778 2"/>
        <g transform="translate(23 40)">
            <use fill="#000" filter="url(#c)" xlink:href="#d"/>
            <use fill="#ED54A4" xlink:href="#d"/>
        </g>
        <path fill="#DA0C79" fill-rule="nonzero" d="M23 76h60.667v19H23z"/>
        <path fill="#DFE1E6" d="M74.414 81.768a.353.353 0 0 1-.091-.692c.156-.042.317-.067.478-.076a.352.352 0 1 1 .036.704 1.59 1.59 0 0 0-.332.052.353.353 0 0 1-.091.012m1.742.703a.352.352 0 0 1-.317-.197c-.049-.1-.107-.189-.173-.263a.352.352 0 0 1 .526-.468c.109.121.203.263.28.42a.352.352 0 0 1-.316.508m-3.049.244a.352.352 0 0 1-.28-.566 3.73 3.73 0 0 1 .297-.344.352.352 0 0 1 .503.493 3.02 3.02 0 0 0-.24.279.352.352 0 0 1-.28.138m3.272 1.365l-.03-.001a.352.352 0 0 1-.322-.38 4.52 4.52 0 0 0 .016-.364v-.018a.352.352 0 0 1 .704 0v.018c0 .136-.006.277-.018.422a.352.352 0 0 1-.35.323m-4.026.089a.352.352 0 0 1-.332-.47c.05-.14.102-.275.156-.403a.352.352 0 1 1 .65.274c-.05.117-.097.239-.142.364a.352.352 0 0 1-.332.235zm3.578 6.08c-1.283 0-1.88-.8-1.905-.834a.352.352 0 0 1 .57-.415c.015.02.425.545 1.335.545 1.247 0 1.354-.775 1.355-.783l.005-.032c0-.005.04-.236-.126-.441-.196-.242-.614-.38-1.207-.397-.776-.023-1.337-.241-1.665-.648a1.329 1.329 0 0 1-.283-1.006c.01-.084.063-.382.31-.674.238-.282.715-.62 1.63-.62.993 0 1.567.59 1.59.616a.352.352 0 0 1-.507.488c-.02-.02-.406-.398-1.083-.398-1.172 0-1.239.658-1.24.664 0 .016 0 .02-.004.036 0 .005-.035.248.141.46.193.23.585.361 1.132.377.828.025 1.416.252 1.747.675.334.427.277.888.258.997-.066.489-.574 1.39-2.053 1.39zm-6.913-.058a.352.352 0 0 1-.352-.353v-.722c.001-1.064.003-3.097.002-4.672a3.624 3.624 0 0 1-.346-.01.352.352 0 0 1 .06-.701c.07.005.17.01.286.007l-.002-1.142c-.003-.583.236-1.056.654-1.3a1.155 1.155 0 0 1 1.155-.003c.417.24.657.714.657 1.301 0 .502-.174.916-.517 1.23-.347.319-.818.476-1.242.552v1.324c.413-.536.954-.816 1.587-.816.795 0 2.13.333 2.13 2.564v1.346c0 .137.052.537.263.713a.352.352 0 1 1-.45.542c-.5-.416-.518-1.169-.519-1.253V87.45c0-1.268-.452-1.86-1.424-1.86-.94 0-1.588 1.21-1.588 1.889l-.001 1.638v.722a.352.352 0 0 1-.353.352zm.884-8.345a.451.451 0 0 0-.227.062c-.195.113-.306.363-.305.687l.002 1.065c.287-.064.57-.173.768-.354.193-.178.287-.41.287-.71 0-.328-.11-.58-.304-.69a.443.443 0 0 0-.221-.06z"/>
        <g fill-rule="nonzero" transform="translate(23 40)">
            <use fill="#000" filter="url(#e)" xlink:href="#f"/>
            <use fill="#0D1623" fill-rule="evenodd" xlink:href="#f"/>
        </g>
        <path fill="#DFE1E6" fill-rule="nonzero" d="M102.625 94.98a3.79 3.79 0 0 1-3.792 3.79 3.79 3.79 0 0 1-3.791-3.79 3.79 3.79 0 0 1 3.791-3.792 3.79 3.79 0 0 1 3.792 3.791zm-54.031 0a3.79 3.79 0 0 1-3.792 3.79 3.79 3.79 0 0 1-3.792-3.79 3.79 3.79 0 0 1 3.792-3.792 3.79 3.79 0 0 1 3.792 3.791z"/>
        <g transform="translate(4 19)">
            <circle cx="32" cy="32.5" r="32" fill="#21ECCA" opacity=".12"/>
            <circle cx="32" cy="32.5" r="24" fill="#21ECCA" opacity=".36"/>
            <circle cx="32" cy="33" r="16" fill="#21ECCA" opacity=".8"/>
            <g stroke="#000" stroke-linecap="round" stroke-linejoin="round" stroke-width="2" opacity=".8">
                <path d="M29 34l5.5 5M28.5 31h7M29 34h1.469a3 3 0 1 0 0-6H29M28.5 28h7"/>
            </g>
        </g>
    </g>
</svg>
