<svg xmlns="http://www.w3.org/2000/svg" xmlns:xlink="http://www.w3.org/1999/xlink" width="240" height="180" viewBox="0 0 240 180">
    <defs>
        <path id="a" d="M.03.616h75.484V40H.03z"/>
        <path id="c" d="M.496.723h13.699v15.374H.496z"/>
    </defs>
    <g fill="none" fill-rule="evenodd">
        <path d="M0 0h240v180H0z" opacity=".199"/>
        <path fill="#A4A4A4" d="M69.567 81.232c1.06.316 2.649-.056 3.744-.39-1.077-1.29-2.127-2.161-2.9-2.39a2.14 2.14 0 0 0-1.467.003 1.269 1.269 0 0 0-.696.839c-.397 1.348 1.027 1.85 1.319 1.938m.96 2.28c-.537 0-1.064-.06-1.551-.204a4.18 4.18 0 0 1-2.546-1.902 3.53 3.53 0 0 1-.272-2.726 3.408 3.408 0 0 1 1.953-2.243 4.295 4.295 0 0 1 2.91-.108c1.43.429 3.052 1.828 4.82 4.159l.842 1.205-1.086.59c-.055.028-2.661 1.23-5.07 1.23"/>
        <path fill="#E1E1E1" d="M123.268 122.873c-8.395.634-15.595-4.046-16.085-10.483-.389-5.083 3.514-9.72 9.288-11.765a19.285 19.285 0 0 1 4.997-1.05c1.93-.145 3.801-.015 5.53.373 5.817 1.238 10.181 5.155 10.555 10.11.504 6.421-5.904 12.167-14.285 12.815"/>
        <path fill="#FFF" d="M127.262 102.483c.126 2.138-1.406 4.004-3.412 4.141l-4.282.288c-2.006.135-3.744-1.527-3.87-3.665l-.11-2.156a19.88 19.88 0 0 1 5.481-1.238c2.117-.17 4.171-.017 6.067.441l.126 2.19z"/>
        <path fill="#E6E6E6" d="M156.734 106.6h-.034c.147-.026.227-.091-.148-.24-.032.084-.075.164-.11.248-.022.004-.025.006-.001.008-4.123 10.479-16.511 18.096-28.607 19.424-17.194 1.887-32.631-10.325-34.49-27.273-1.856-16.949 10.585-32.199 27.779-34.085 15.32-1.671 29.232 7.819 33.408 21.873a6.91 6.91 0 0 1 1.339-.259c-5.155-14.155-18.734-24.264-34.675-24.264-19.246 0-35.054 14.751-36.75 33.558a5.158 5.158 0 0 0-.845-.077c-3.575 0-6.472 3.61-6.472 8.064 0 4.453 2.897 8.063 6.472 8.063.958 0 1.865-.267 2.683-.732 4.973 14.509 18.724 24.939 34.912 24.939 17.784 0 32.616-12.558 36.115-29.29-.187.043-.374.043-.576.043"/>
        <g transform="translate(84 97.277)">
            <mask id="b" fill="#fff">
                <use xlink:href="#a"/>
            </mask>
            <path fill="#A4A4A4" d="M37.134 40C19.836 40 4.368 28.327.074 11.33a1.44 1.44 0 1 1 2.792-.706c4.327 17.126 20.94 28.406 38.63 26.228 17.7-2.173 31.085-17.134 31.138-34.8.002-.796.664-1.454 1.444-1.436.796.003 1.438.65 1.436 1.445-.057 19.114-14.53 35.3-33.666 37.65a38.725 38.725 0 0 1-4.714.29" mask="url(#b)"/>
        </g>
        <path fill="#A4A4A4" d="M158.007 105.482a1.44 1.44 0 0 1-.175-2.869 7.76 7.76 0 0 0 5.186-2.915 7.617 7.617 0 0 0 1.592-5.68 7.62 7.62 0 0 0-2.92-5.129 7.762 7.762 0 0 0-5.736-1.574 1.446 1.446 0 0 1-1.605-1.253 1.44 1.44 0 0 1 1.255-1.605c2.826-.343 5.611.42 7.851 2.156a10.478 10.478 0 0 1 4.014 7.053 10.476 10.476 0 0 1-2.189 7.814 10.619 10.619 0 0 1-7.096 3.992 1.53 1.53 0 0 1-.178.01M86.318 114.116c-5.297 0-9.894-3.934-10.552-9.29-.711-5.793 3.454-11.09 9.285-11.805l.352 2.859c-4.255.522-7.295 4.379-6.778 8.597.518 4.217 4.416 7.226 8.656 6.7l.352 2.859c-.442.054-.881.08-1.315.08"/>
        <path fill="#A4A4A4" d="M84.353 100.613h-.003a1.44 1.44 0 0 1-1.437-1.443c.05-19.122 14.522-35.315 33.666-37.665 19.154-2.345 37.113 9.864 41.782 28.414a1.44 1.44 0 0 1-2.793.703c-4.315-17.145-20.926-28.437-38.638-26.259-17.706 2.174-31.092 17.141-31.137 34.813a1.44 1.44 0 0 1-1.44 1.437"/>
        <path fill="#A4A4A4" d="M116.751 64.37a1.436 1.436 0 0 1-1.426-1.26c-.025-.21-.58-5.198 3.757-10.706a1.441 1.441 0 0 1 2.263 1.782c-3.554 4.515-3.178 8.419-3.16 8.583a1.444 1.444 0 0 1-1.434 1.6"/>
        <g transform="translate(104 48.277)">
            <mask id="d" fill="#fff">
                <use xlink:href="#c"/>
            </mask>
            <path fill="#A4A4A4" d="M12.756 16.097c-.464 0-.921-.225-1.199-.64-.055-.084-5.62-8.37-10.503-12.156a1.44 1.44 0 0 1 1.765-2.277c5.255 4.074 10.895 12.478 11.133 12.833a1.439 1.439 0 0 1-1.196 2.24" mask="url(#d)"/>
        </g>
        <path fill="#A4A4A4" d="M121.713 100.88c-3.743.287-7.162 1.662-9.627 3.871-2.358 2.113-3.545 4.74-3.34 7.392.432 5.628 6.955 9.733 14.536 9.151 3.743-.288 7.162-1.664 9.626-3.873 2.36-2.113 3.546-4.739 3.342-7.392-.204-2.652-1.778-5.066-4.432-6.794-2.773-1.807-6.366-2.647-10.105-2.356m.158 23.35c-8.456 0-15.477-5.086-15.998-11.865-.274-3.567 1.25-7.032 4.291-9.757 2.934-2.63 6.958-4.264 11.328-4.6 4.37-.33 8.597.664 11.9 2.815 3.42 2.228 5.456 5.42 5.73 8.987.273 3.567-1.25 7.031-4.29 9.757-2.935 2.63-6.959 4.263-11.329 4.6-.549.041-1.094.062-1.632.062M102.966 94.375a1.46 1.46 0 0 1-1.46-1.418c-.06-2.117.77-6.2 4.35-6.506 3.55-.307 5.073 3.062 5.382 4.884a1.462 1.462 0 1 1-2.882.49c-.019-.1-.507-2.643-2.25-2.46-1.705.145-1.678 3.48-1.678 3.513a1.463 1.463 0 0 1-1.462 1.497M128.563 91.095l-.065-.001a1.441 1.441 0 0 1-1.375-1.503c.094-2.11 1.271-6.11 5.045-6.14h.05c3.691 0 5.032 3.424 5.225 5.243.083.79-.49 1.5-1.28 1.585a1.445 1.445 0 0 1-1.585-1.281c-.03-.266-.373-2.667-2.366-2.667h-.02c-1.986.016-2.19 3.354-2.192 3.388a1.44 1.44 0 0 1-1.437 1.376"/>
        <path fill="#A4A4A4" d="M117.08 102.097l.056 1.076c.04.685.35 1.335.848 1.775.43.376.962.566 1.488.527l4.281-.288c1.202-.08 2.151-1.28 2.072-2.619v-.002l-.063-1.087a18.257 18.257 0 0 0-4.578-.19c-1.378.108-2.754.38-4.104.808m2.258 6.263a4.91 4.91 0 0 1-3.257-1.25 5.483 5.483 0 0 1-1.82-3.779l-.112-2.165a1.441 1.441 0 0 1 .928-1.42 21.402 21.402 0 0 1 5.88-1.329c2.261-.179 4.455-.02 6.518.477a1.44 1.44 0 0 1 1.1 1.317l.125 2.19c.172 2.932-1.96 5.47-4.753 5.66l-4.282.287a4.466 4.466 0 0 1-.327.012M77.834 65.31c.721.782 2.225 1.287 3.417 1.551-.187-1.13-.567-2.771-1.273-3.549-.2-.216-1.278-1.273-2.3-.329-1.018.943-.049 2.103.156 2.327zm5.851 4.136l-1.297-.162c-.015 0-4.234-.419-6.152-2.501a4.168 4.168 0 0 1-1.187-2.933 3.538 3.538 0 0 1 1.16-2.477 3.48 3.48 0 0 1 2.498-.964c1.038.035 2.06.541 2.88 1.425 1.8 1.946 2.018 6.338 2.017 6.378l.081 1.234zM165.188 73.16c1.139.11 2.77.159 3.747-.36.266-.142 1.565-.916.918-2.142a1.3 1.3 0 0 0-.896-.711 2.093 2.093 0 0 0-1.368.278c-.738.392-1.6 1.457-2.401 2.935m1.37 2.243c-1.742 0-3.27-.362-3.295-.368l-1.212-.374.584-1.345c1.274-2.641 2.589-4.336 3.909-5.037a4.259 4.259 0 0 1 2.846-.472 3.44 3.44 0 0 1 2.394 1.843 3.49 3.49 0 0 1 .268 2.669 4.203 4.203 0 0 1-2.16 2.414c-.96.513-2.193.67-3.334.67M156.643 56.297c-.154 0-.308.031-.463.093-.376.15-.742.483-1.006.915-.413.693-.607 2.05-.544 3.726 1.118-.496 2.494-1.289 3.045-2.2.156-.259.877-1.589-.308-2.309a1.375 1.375 0 0 0-.724-.225zm-3.884 7.746l-.178-1.295v.001s-.66-4.304.73-6.58c.625-1.029 1.526-1.728 2.537-1.968.905-.218 1.823-.057 2.654.46a3.499 3.499 0 0 1 1.606 2.162 4.145 4.145 0 0 1-.589 3.158c-1.376 2.268-5.175 3.538-5.522 3.65l-1.238.412z"/>
    </g>
</svg>
