<svg xmlns="http://www.w3.org/2000/svg" width="24" height="24" viewBox="0 0 24 24">
    <path fill="#000" fill-rule="nonzero" d="M12 5.1a3.742 3.742 0 0 0-3.75 3.75v.625c-.688 0-1.25.561-1.25 1.25v6.25c0 .688.562 1.25 1.25 1.25h7.5c.688 0 1.25-.562 1.25-1.25v-6.25c0-.689-.562-1.25-1.25-1.25V8.85A3.742 3.742 0 0 0 12 5.1zm0 1.25c1.423 0 2.5 1.077 2.5 2.5v.625h-5V8.85c0-1.423 1.077-2.5 2.5-2.5zm0 6.25c.688 0 1.25.561 1.25 1.25 0 .688-.562 1.25-1.25 1.25s-1.25-.562-1.25-1.25c0-.689.562-1.25 1.25-1.25z"/>
</svg>
