<?xml version="1.0" encoding="UTF-8"?>
<svg width="16px" height="16px" viewBox="0 0 16 16" version="1.1" xmlns="http://www.w3.org/2000/svg" xmlns:xlink="http://www.w3.org/1999/xlink">
    <!-- Generator: sketchtool 42 (36781) - http://www.bohemiancoding.com/sketch -->
    <title>D05E084F-1111-41F5-9472-B91B2616BFB5</title>
    <desc>Created with sketchtool.</desc>
    <defs></defs>
    <g id="Desktop-Final" stroke="none" stroke-width="1" fill="none" fill-rule="evenodd">
        <g id="pdp_edd_delivery_states" transform="translate(-74.000000, -718.000000)">
            <g id="4" transform="translate(50.000000, 650.000000)">
                <g id="Group-5" transform="translate(24.000000, 40.000000)">
                    <g id="cod" transform="translate(0.000000, 28.000000)">
                        <g id="cross">
                            <polygon id="Fill-1" points="0 0 16 0 16 16 0 16"></polygon>
                            <g id="Group" transform="translate(4.000000, 4.000000)" stroke="#FF4444" stroke-width="0.2" fill="#FF4444" fill-rule="nonzero">
                                <path d="M4.85891336,4.36248561 L7.69010312,1.53129584 C7.84631284,1.37508613 7.84631284,1.12182013 7.69010312,0.965610417 C7.5338934,0.8094007 7.28062741,0.8094007 7.1244177,0.965610417 L4.29322793,3.79680018 L1.46203817,0.965610417 C1.30582845,0.8094007 1.05256246,0.8094007 0.896352743,0.965610417 C0.740143026,1.12182013 0.740143026,1.37508613 0.896352743,1.53129584 L3.72754251,4.36248561 L0.754931387,7.33509673 C0.59872167,7.49130644 0.59872167,7.74457243 0.754931387,7.90078215 C0.911141103,8.05699187 1.16440709,8.05699187 1.32061681,7.90078215 L4.29322793,4.92817103 L7.26583905,7.90078215 C7.42204877,8.05699187 7.67531476,8.05699187 7.83152448,7.90078215 C7.98773419,7.74457243 7.98773419,7.49130644 7.83152448,7.33509673 L4.85891336,4.36248561 Z" id="Combined-Shape"></path>
                            </g>
                        </g>
                    </g>
                </g>
            </g>
        </g>
    </g>
</svg>