<?xml version="1.0" encoding="UTF-8"?>
<svg width="36px" height="36px" viewBox="0 0 36 36" version="1.1" xmlns="http://www.w3.org/2000/svg" xmlns:xlink="http://www.w3.org/1999/xlink">
    <!-- Generator: sketchtool 50.2 (55047) - http://www.bohemiancoding.com/sketch -->
    <title>ACE6BAD8-B9FB-4483-BF41-D96E2050AE4E</title>
    <desc>Created with sketchtool.</desc>
    <defs></defs>
    <g id="Icons-&amp;-illustrations" stroke="none" stroke-width="1" fill="none" fill-rule="evenodd">
        <g id="Design-Language-Illustrations" transform="translate(-762.000000, -608.000000)">
            <g id="il_return" transform="translate(762.000000, 608.000000)">
                <rect id="cont" x="0" y="0" width="36" height="36"></rect>
                <path d="M9,18 L9,10.3241091 C9,9.89063446 9.14083178,9.46889343 9.40128847,9.12239301 L11.8999476,5.79828395 C12.2777428,5.29568144 12.8698997,5 13.4986592,5 L26.5013408,5 C27.1301003,5 27.7222572,5.29568144 28.1000524,5.79828395 L30.5987115,9.12239301 C30.8591682,9.46889343 31,9.89063446 31,10.3241091 L31,25 C31,26.1045695 30.1045695,27 29,27 L20,27 L20,25 L29,25 L29,11 L11,11 L11,18 L9,18 Z M13.5,7 L12,9 L28,9 L26.5,7 L13.5,7 Z M17,13 L23,13 C23.554688,13 24,13.449219 24,14 C24,14.550781 23.554688,15 23,15 L17,15 C16.449219,15 16,14.550781 16,14 C16,13.449219 16.449219,13 17,13 Z M6.39056346,26.2076316 C6.01699556,26.5843372 5.40877868,26.5868809 5.03207305,26.213313 C5.0301691,26.2114249 5.02827307,26.2095288 5.02638501,26.2076249 L1.30266768,22.4525566 C0.939814255,22.0700236 0.939833802,21.470407 1.30271216,21.0878976 L1.30653396,21.0838691 L5.02637823,17.3327805 C5.39994982,16.9560711 6.00817269,16.9535274 6.38488204,17.327099 C6.38678376,17.3289849 6.38867758,17.3308787 6.39056346,17.3327805 C6.76819216,17.713581 6.76819216,18.3276234 6.39056346,18.708424 L4.3062723,20.8102219 L12.0715072,20.8102219 C14.9163192,20.8102219 17.25,23.1635041 17.25,26.0301109 C17.25,28.8967178 14.9163192,31.25 12.0715072,31.25 L10.6692801,31.25 C10.1390955,31.25 9.70929593,30.8202005 9.70929593,30.2900158 C9.70929593,29.7598312 10.1390955,29.3300317 10.6692801,29.3300317 L12.0715072,29.3300317 C13.8719094,29.3300317 15.3418592,27.8477353 15.3418592,26.0301109 C15.3418592,24.2124866 13.8719094,22.7301902 12.0715072,22.7301902 L4.3062723,22.7301902 L6.39056346,24.8319881 C6.76819216,25.2127886 6.76819216,25.8268311 6.39056346,26.2076316 Z" id="Combined-Shape" fill="#000000"></path>
            </g>
        </g>
    </g>
</svg>