<?xml version="1.0" encoding="UTF-8"?>
<svg width="36px" height="36px" viewBox="0 0 36 36" version="1.1" xmlns="http://www.w3.org/2000/svg" xmlns:xlink="http://www.w3.org/1999/xlink">
    <!-- Generator: sketchtool 50.2 (55047) - http://www.bohemiancoding.com/sketch -->
    <title>79E09366-043E-4407-ADBE-9549D63A2DFC</title>
    <desc>Created with sketchtool.</desc>
    <defs></defs>
    <g id="Icons-&amp;-illustrations" stroke="none" stroke-width="1" fill="none" fill-rule="evenodd">
        <g id="Design-Language-Illustrations" transform="translate(-762.000000, -716.000000)">
            <g id="il_shield" transform="translate(762.000000, 716.000000)">
                <rect id="cont" opacity="0.8" x="0" y="0" width="36" height="36"></rect>
                <path d="M18,6 C15.75,6 14.242188,6.882813 12.886719,7.621094 C11.527344,8.359375 10.28125,9 8,9 L8,9 C7.44771525,9 7,9.44771525 7,10 C7,17.71875 8.605469,22.738281 11.246094,25.777344 C13.886719,28.816406 17.625,29.925781 17.625,29.925781 L18,30.078125 L18.367188,29.929688 C18.367188,29.929688 22.113281,28.832031 24.753906,25.796875 C27.394531,22.765625 29,17.746094 29,10 L29,10 C29,9.44771525 28.5522847,9 28,9 C25.730469,9 24.484375,8.359375 23.125,7.621094 C21.761719,6.882813 20.25,6 18,6 Z M18,8 C19.75,8 20.765625,8.617188 22.171875,9.378906 C23.351563,10.019531 24.910156,10.625 26.933594,10.835938 C26.742188,17.605469 25.503906,21.894531 23.246094,24.484375 C21.195313,26.839844 18.480469,27.65625 18,27.871094 C17.523438,27.652344 14.804688,26.824219 12.753906,24.464844 C10.496094,21.867188 9.257813,17.578125 9.070313,10.835938 C11.097656,10.625 12.660156,10.019531 13.839844,9.378906 C15.242188,8.617188 16.25,8 18,8 Z M18,12 C16.34375,12 15,13.34375 15,15 C15,16.171875 15.6875,17.238281 16.753906,17.722656 L16.1630601,21.8585787 C16.0849553,22.4053127 16.4648543,22.9118447 17.0115883,22.9899495 C17.0584316,22.9966414 17.1056908,23 17.1530096,23 L18.8469904,23 C19.3992751,23 19.8469904,22.5522847 19.8469904,22 C19.8469904,21.9526811 19.8436318,21.905422 19.8369399,21.8585787 L19.246094,17.722656 C20.3125,17.238281 21,16.171875 21,15 C21,13.34375 19.65625,12 18,12 Z" id="Shape" fill="#000000" fill-rule="nonzero"></path>
            </g>
        </g>
    </g>
</svg>