<?xml version="1.0" encoding="UTF-8"?>
<svg width="36px" height="36px" viewBox="0 0 36 36" version="1.1" xmlns="http://www.w3.org/2000/svg" xmlns:xlink="http://www.w3.org/1999/xlink">
    <!-- Generator: sketchtool 50.2 (55047) - http://www.bohemiancoding.com/sketch -->
    <title>3ECC337A-1EEF-43A7-9A2C-8D6EEEEDAD98</title>
    <desc>Created with sketchtool.</desc>
    <defs></defs>
    <g id="Icons-&amp;-illustrations" stroke="none" stroke-width="1" fill="none" fill-rule="evenodd">
        <g id="Design-Language-Illustrations" transform="translate(-762.000000, -662.000000)">
            <g id="il_truck" transform="translate(762.000000, 662.000000)">
                <rect id="cont" x="0" y="0" width="36" height="36"></rect>
                <path d="M2,8 L2,8 C2,8.55228475 2.44771525,9 3,9 L19,9 L19,24 L15.84375,24 C15.398438,22.28125 13.851563,21 12,21 C10.148438,21 8.601563,22.28125 8.15625,24 L7,24 L7,19 L5,19 L5,26 L8.15625,26 C8.601563,27.71875 10.148438,29 12,29 C13.851563,29 15.398438,27.71875 15.84375,26 L21.15625,26 C21.601563,27.71875 23.148438,29 25,29 C26.851563,29 28.398438,27.71875 28.84375,26 L30,26 C31.1045695,26 32,25.1045695 32,24 L32,17.84375 L31.9375,17.6875 L30.1733511,12.3702062 C29.9019436,11.5521609 29.1369927,11 28.2750994,11 L21,11 L21,9 C21,7.8954305 20.1045695,7 19,7 L3,7 C2.44771525,7 2,7.44771525 2,8 Z M3,12 L3,12 C3,12.5522847 3.44771525,13 4,13 L12,13 C12.5522847,13 13,12.5522847 13,12 L13,12 C13,11.4477153 12.5522847,11 12,11 L4,11 C3.44771525,11 3,11.4477153 3,12 Z M21,13 L28.28125,13 L30,18.125 L30,24 L28.84375,24 C28.398438,22.28125 26.851563,21 25,21 C23.148438,21 21.601563,22.28125 21.15625,24 L21,24 L21,13 Z M4,16 L4,16 C4,16.5522847 4.44771525,17 5,17 L10,17 C10.5522847,17 11,16.5522847 11,16 L11,16 C11,15.4477153 10.5522847,15 10,15 L5,15 C4.44771525,15 4,15.4477153 4,16 Z M12,23 C13.117188,23 14,23.882813 14,25 C14,26.117188 13.117188,27 12,27 C10.882813,27 10,26.117188 10,25 C10,23.882813 10.882813,23 12,23 Z M25,23 C26.117188,23 27,23.882813 27,25 C27,26.117188 26.117188,27 25,27 C23.882813,27 23,26.117188 23,25 C23,23.882813 23.882813,23 25,23 Z" id="Shape" fill="#000000" fill-rule="nonzero"></path>
            </g>
        </g>
    </g>
</svg>