<?xml version="1.0" encoding="utf-8"?>
<!-- Generator: Adobe Illustrator 23.0.1, SVG Export Plug-In . SVG Version: 6.00 Build 0)  -->
<svg version="1.1" id="Layer_1" xmlns="http://www.w3.org/2000/svg" xmlns:xlink="http://www.w3.org/1999/xlink" x="0px" y="0px"
	 viewBox="0 0 72 72" style="enable-background:new 0 0 72 72;" xml:space="preserve">
<style type="text/css">
	.st0{opacity:0.4;fill:#FFFFFF;enable-background:new    ;}
	.st1{fill:#FFB025;}
	.st2{fill:#782D10;}
</style>
<title>nps_emoji_8</title>
<path class="st0" d="M18.2,13.7c0,0,6.4-5.7,18.6-4.7s10.7,4.9,3.7,4.7S10.5,20.1,18.2,13.7z"/>
<path class="st1" d="M12.8,33.4c-2.3,2.2-1.5,11.3,6.2,10.2s8.8-6.3,6.3-10.2S16.9,29.5,12.8,33.4z"/>
<path class="st1" d="M49.1,33.3c-1.9,2-1.3,10.7,5.2,9.6s7.4-5.9,5.3-9.6C57.5,29.6,52.6,29.6,49.1,33.3z"/>
<path class="st2" d="M26.9,46.2c-0.9,1.2,3.8,7.8,11.3,7.4c7.5-0.4,11-5.9,10-7.4c-0.9-1.4-3.5,3.8-10.6,3.7
	C30.5,49.9,28,44.8,26.9,46.2z"/>
<path class="st2" d="M46.1,29c0.9,0.7,4.3-2,7.4-1.2s5.4,1.3,5.9,0.6c0.4-0.5-1.7-4.2-6.5-4.1S45.1,28.3,46.1,29z"/>
<path class="st2" d="M28.4,29c-1.1,0.7-5.2-2-8.9-1.2c-3.7,0.8-6.5,1.3-7.1,0.6c-0.4-0.5,2.1-4.2,7.8-4.1S29.6,28.3,28.4,29z"/>
</svg>
