<?xml version="1.0" encoding="utf-8"?>
<!-- Generator: Adobe Illustrator 23.0.1, SVG Export Plug-In . SVG Version: 6.00 Build 0)  -->
<svg version="1.1" id="Layer_1" xmlns="http://www.w3.org/2000/svg" xmlns:xlink="http://www.w3.org/1999/xlink" x="0px" y="0px"
	 viewBox="0 0 72 72" style="enable-background:new 0 0 72 72;" xml:space="preserve">
<style type="text/css">
	.st0{opacity:0.4;fill:#FFFFFF;enable-background:new    ;}
	.st1{fill:#782D10;}
	.st2{fill:#FFFFFF;}
	.st3{fill:#F45B51;}
</style>
<title>nps_emoji_9</title>
<path class="st0" d="M18.2,13.7c0,0,6.4-5.7,18.6-4.7s10.7,4.9,3.7,4.7S10.5,20.1,18.2,13.7z"/>
<path class="st1" d="M16.2,41.4c-1.3,3.3,4.8,15.3,18.6,16C48.6,58,58,45.5,55.9,40.6C55,38.5,17.6,37.9,16.2,41.4z"/>
<path class="st2" d="M21.3,40.8c0,0-0.2,2.8,1.4,3.3c1.6,0.5,25.7-0.1,27.5,0c1.8,0.1,2.1-3.3,2.1-3.3s-5.5-1.5-16.2-1.1
	S21.3,40.8,21.3,40.8z"/>
<path class="st3" d="M23.6,52.1c0,0,12.8-4,16.1-0.1c2.3,2.5,1.5,3.8,1.5,3.8S30.5,58.3,23.6,52.1z"/>
<path class="st1" d="M13.2,30.3c1.2,0.8,7.5-4.3,10.8-3.6s5.3,3.3,6.8,3.1c1.5-0.2-2.7-8.6-6.9-8.6S10.9,28.9,13.2,30.3z"/>
<path class="st1" d="M45.8,29.1c1.6,0.6,5.3-3.1,7-2.8s4.2,3.1,6.1,2.8c1.9-0.2-2.1-7.7-6.6-8S43.8,28.4,45.8,29.1z"/>
</svg>
