<?xml version="1.0" encoding="utf-8"?>
<!-- Generator: Adobe Illustrator 23.0.1, SVG Export Plug-In . SVG Version: 6.00 Build 0)  -->
<svg version="1.1" id="Layer_1" xmlns="http://www.w3.org/2000/svg" xmlns:xlink="http://www.w3.org/1999/xlink" x="0px" y="0px"
	 viewBox="0 0 72 72" style="enable-background:new 0 0 72 72;" xml:space="preserve">
<style type="text/css">
	.st0{opacity:0.4;fill:#FFFFFF;enable-background:new    ;}
	.st1{fill:#782D10;}
	.st2{fill:#FFFFFF;}
	.st3{fill:#F45B51;}
	.st4{fill:#F24D54;}
</style>
<title>nps_emoji_10</title>
<path class="st0" d="M18.2,13.9c0,0,6.4-5.7,18.6-4.7s10.7,4.8,3.7,4.7S10.5,20.4,18.2,13.9z"/>
<path class="st1" d="M16.2,41.6c-1.3,3.3,4.9,15.3,18.6,16S58,45.7,55.9,40.9C55,38.7,17.6,38.2,16.2,41.6z"/>
<path class="st2" d="M21.3,41.1c0,0-0.2,2.8,1.4,3.3c1.6,0.5,25.7-0.1,27.5,0s2.1-3.3,2.1-3.3s-5.5-1.5-16.2-1.1
	S21.3,41.1,21.3,41.1z"/>
<path class="st3" d="M23.6,52.3c0,0,12.8-4,16.1-0.1c2.3,2.5,1.5,3.8,1.5,3.8S30.5,58.6,23.6,52.3z"/>
<path class="st4" d="M27.4,33.4c0,0,11.1-18.3,4.1-24.6s-12.2,4.2-12.2,4.2S9,11.3,6.6,18.6S27.4,33.4,27.4,33.4z"/>
<path class="st4" d="M47.9,31.3c0,0-9.7-12.8-6.4-18.1c3.3-5.3,10-5.5,12.8,0c7.2-2.8,13.5,2.2,10.5,7.8
	C61.8,26.6,47.9,31.3,47.9,31.3z"/>
</svg>
