<?xml version="1.0" encoding="utf-8"?>
<!-- Generator: Adobe Illustrator 23.0.1, SVG Export Plug-In . SVG Version: 6.00 Build 0)  -->
<svg version="1.1" id="Layer_1" xmlns="http://www.w3.org/2000/svg" xmlns:xlink="http://www.w3.org/1999/xlink" x="0px" y="0px"
	 viewBox="0 0 72 72" style="enable-background:new 0 0 72 72;" xml:space="preserve">
<style type="text/css">
	.st0{opacity:0.4;fill:#FFFFFF;enable-background:new    ;}
	.st1{fill:#E69000;}
	.st2{fill:#782D10;}
	.st3{fill:#F24D54;}
</style>
<title>nps_emoji_4</title>
<path class="st0" d="M18.2,13.7c0,0,6.4-5.7,18.6-4.7s10.7,4.9,3.7,4.7S10.5,20.1,18.2,13.7z"/>
<path class="st1" d="M22.9,17.6c-4-0.9-10.7,3.2-10.8,6.5c0,0.7,1.8-1.9,5.5-3.7C20.4,19.1,23.6,17.8,22.9,17.6z"/>
<path class="st1" d="M47.4,16.9c4.1-0.4,10.1,4.6,9.8,7.9c-0.1,0.6-1.8-2.3-5.2-4.5C49.4,18.6,46.7,16.9,47.4,16.9z"/>
<path class="st2" d="M36.1,44c13.8,0.8,17.4,16,0.5,14.8C13.9,57.1,26.4,43.5,36.1,44z"/>
<path class="st3" d="M29.3,56.4c2.4-1.8,5.5-2.4,8.3-1.4c1.4,0.4,2.6,1.4,3.1,2.7C40.8,57.7,34.4,58.4,29.3,56.4z"/>
<ellipse transform="matrix(0.9993 -3.838781e-02 3.838781e-02 0.9993 -1.2579 0.9644)" class="st2" cx="24.5" cy="33.2" rx="3.4" ry="4.5"/>
<ellipse transform="matrix(3.838776e-02 -0.9993 0.9993 3.838776e-02 14.1786 81.2258)" class="st2" cx="49.3" cy="33.2" rx="4.5" ry="3.4"/>
</svg>
