<?xml version="1.0" encoding="utf-8"?>
<!-- Generator: Adobe Illustrator 23.0.1, SVG Export Plug-In . SVG Version: 6.00 Build 0)  -->
<svg version="1.1" id="Layer_1" xmlns="http://www.w3.org/2000/svg" xmlns:xlink="http://www.w3.org/1999/xlink" x="0px" y="0px"
	 viewBox="0 0 72 72" style="enable-background:new 0 0 72 72;" xml:space="preserve">
<style type="text/css">
	.st0{opacity:0.4;fill:#FFFFFF;enable-background:new    ;}
	.st1{fill:#782D10;}
	.st2{fill:#E69000;}
	.st3{fill:#0DA8F7;}
</style>
<title>nps_emoji_2</title>
<path class="st0" d="M18.2,13.7c0,0,6.4-5.7,18.6-4.7s10.7,4.9,3.7,4.7S10.5,20.1,18.2,13.7z"/>
<path class="st1" d="M26.1,52.3c0.6,1.3,10.3-2.2,13.3-1.2c3,0.9,6.6,2.5,8,2.5c1.4,0-3.1-5.9-8.3-6.1S25.3,50.5,26.1,52.3z"/>
<path class="st1" d="M58.8,31.9c-0.9-0.7-4.3,2-7.4,1.2c-3-0.8-5.4-1.3-5.9-0.6c-0.4,0.5,1.7,4.2,6.5,4.1
	C56.8,36.5,59.7,32.6,58.8,31.9z"/>
<path class="st1" d="M13.5,31.9c1.2-0.7,5.4,2,9.2,1.2s6.7-1.3,7.3-0.6c0.4,0.5-2.2,4.2-8.1,4.1C16,36.5,12.3,32.6,13.5,31.9z"/>
<path class="st2" d="M14.5,25.6c1.2-3.9,8.1-7.7,11-6.2c0.6,0.4-2.5,0.6-5.9,3C17,24.1,14.3,26.3,14.5,25.6z"/>
<path class="st2" d="M58.8,25.6c-1.2-3.9-8.1-7.7-11-6.2c-0.6,0.4,2.8,0.8,6.2,3.2C56.5,24.3,59.1,26.3,58.8,25.6z"/>
<path class="st3" d="M45.3,37c0,0,16.9,11,8.3,21c-6,6.9-19.7-1.5-13-12.8C43.4,40.5,45.3,37,45.3,37z"/>
<path class="st0" d="M53.3,53.9c0.8-2.6,0.2-5.4-1.6-7.5c-3-3.6-4.6-1.9-3.1,0.3C50.2,48.9,51.7,58.4,53.3,53.9z"/>
</svg>
