<?xml version="1.0" encoding="utf-8"?>
<!-- Generator: Adobe Illustrator 23.0.1, SVG Export Plug-In . SVG Version: 6.00 Build 0)  -->
<svg version="1.1" id="Layer_1" xmlns="http://www.w3.org/2000/svg" xmlns:xlink="http://www.w3.org/1999/xlink" x="0px" y="0px"
	 viewBox="0 0 72 72" style="enable-background:new 0 0 72 72;" xml:space="preserve">
<style type="text/css">
	.st0{opacity:0.4;fill:#FFFFFF;enable-background:new    ;}
	.st1{fill:#782D10;}
</style>
<title>nps_emoji_7</title>
<path class="st0" d="M18.2,13.7c0,0,6.4-5.7,18.6-4.7s10.7,4.9,3.7,4.7S10.5,20.1,18.2,13.7z"/>
<ellipse transform="matrix(0.9992 -3.996804e-02 3.996804e-02 0.9992 -1.0917 0.9793)" class="st1" cx="23.9" cy="27.8" rx="3.4" ry="4.5"/>
<ellipse transform="matrix(3.838776e-02 -0.9993 0.9993 3.838776e-02 19.0536 75.4266)" class="st1" cx="48.7" cy="27.8" rx="4.5" ry="3.4"/>
<path class="st1" d="M23.1,44c-1,0.5,4.7,7.5,12.1,8.1c7.5,0.6,14.1-8.1,12.9-9.1c-1.2-1-6.3,7.2-13,6.6
	C27.5,48.7,25.2,42.9,23.1,44z"/>
</svg>
