<?xml version="1.0" encoding="utf-8"?>
<!-- Generator: Adobe Illustrator 23.0.1, SVG Export Plug-In . SVG Version: 6.00 Build 0)  -->
<svg version="1.1" id="Layer_1" xmlns="http://www.w3.org/2000/svg" xmlns:xlink="http://www.w3.org/1999/xlink" x="0px" y="0px"
	 viewBox="0 0 72 72" style="enable-background:new 0 0 72 72;" xml:space="preserve">
<style type="text/css">
	.st0{opacity:0.4;fill:#FFFFFF;enable-background:new    ;}
	.st1{fill:#782D10;}
	.st2{fill:#E69000;}
	.st3{fill:#F24D54;}
	.st4{fill:#0DA8F7;}
</style>
<title>nps_emoji_1</title>
<path class="st0" d="M18.2,13.7c0,0,6.4-5.7,18.6-4.7s10.7,4.9,3.7,4.7S10.5,20.1,18.2,13.7z"/>
<path class="st1" d="M58.8,36.5c-0.9,0.7-4.3-2-7.4-1.2c-3,0.8-5.4,1.3-5.9,0.6c-0.4-0.5,1.7-4.2,6.5-4.1
	C56.8,31.8,59.7,35.7,58.8,36.5z"/>
<path class="st1" d="M13.5,36.5c1.2,0.7,5.4-2,9.2-1.2c3.8,0.8,6.7,1.3,7.3,0.6c0.4-0.5-2.2-4.2-8.1-4.1S12.3,35.7,13.5,36.5z"/>
<path class="st2" d="M14.5,25.6c4,0.9,10.7-3.2,10.8-6.5c0-0.7-1.8,1.9-5.5,3.7C17,24.1,13.8,25.4,14.5,25.6z"/>
<path class="st2" d="M58.3,26.3c-4.1,0.4-10.1-4.6-9.8-7.9c0.1-0.7,1.8,2.2,5.2,4.5C56.3,24.6,59.1,26.3,58.3,26.3z"/>
<path class="st1" d="M36.7,42.1c6.4-0.5,12.8,16.9,0,16.7C23.9,58.6,26.9,42.8,36.7,42.1z"/>
<path class="st3" d="M30.4,54.9c1.4-2.4,4.2-3.5,6.9-2.7c3.1,0.7,3.2,5.2,3.2,5.2S32.7,59.4,30.4,54.9z"/>
<path class="st4" d="M15.8,35.5V63c0,0-4.6-0.3-4.6,2H32c0,0-1.6-3.9-5.5-2.3V35.5C26.6,35.5,25,32.2,15.8,35.5z"/>
<path class="st4" d="M46.4,35.5V63c0,0-4.6-0.3-4.6,2h20.8c0,0-1.6-3.9-5.5-2.3V35.5C57.1,35.5,55.6,32.2,46.4,35.5z"/>
<path class="st0" d="M21.7,36.7c0,0-4.5-0.1-4.1,1.1v20.9C17.6,58.6,18.1,37.3,21.7,36.7z"/>
<path class="st0" d="M52.6,36.4c0,0-4.5-0.1-4.1,1.1v20.9C48.5,58.4,49,37,52.6,36.4z"/>
</svg>
