<?xml version="1.0" encoding="utf-8"?>
<!-- Generator: Adobe Illustrator 23.0.1, SVG Export Plug-In . SVG Version: 6.00 Build 0)  -->
<svg version="1.1" id="Layer_1" xmlns="http://www.w3.org/2000/svg" xmlns:xlink="http://www.w3.org/1999/xlink" x="0px" y="0px"
	 viewBox="0 0 72 72" style="enable-background:new 0 0 72 72;" xml:space="preserve">
<style type="text/css">
	.st0{opacity:0.4;fill:#FFFFFF;enable-background:new    ;}
	.st1{fill:#782D10;}
</style>
<title>nps_emoji_3</title>
<path class="st0" d="M18.2,13.7c0,0,6.4-5.7,18.6-4.7s10.7,4.9,3.7,4.7S10.5,20.1,18.2,13.7z"/>
<path class="st1" d="M28.2,57c0.6,1.3,10.3-2.2,13.3-1.3s6.6,2.5,8,2.5c1.4,0-3.1-5.9-8.3-6.1S27.4,55.2,28.2,57z"/>
<path class="st1" d="M58.8,41.1c-0.9,0.7-4.3-2-7.4-1.2c-3,0.8-5.4,1.3-5.9,0.6c-0.4-0.5,1.7-4.2,6.5-4.1
	C56.8,36.5,59.7,40.4,58.8,41.1z"/>
<path class="st1" d="M15.8,41.1c1.2,0.7,5.4-2,9.2-1.2c3.8,0.8,6.7,1.3,7.3,0.6c0.4-0.5-2.2-4.2-8.1-4.1
	C18.3,36.5,14.7,40.4,15.8,41.1z"/>
</svg>
