<?xml version="1.0" encoding="utf-8"?>
<!-- Generator: Adobe Illustrator 23.0.1, SVG Export Plug-In . SVG Version: 6.00 Build 0)  -->
<svg version="1.1" id="Layer_1" xmlns="http://www.w3.org/2000/svg" xmlns:xlink="http://www.w3.org/1999/xlink" x="0px" y="0px"
	 viewBox="0 0 72 72" style="enable-background:new 0 0 72 72;" xml:space="preserve">
<style type="text/css">
	.st0{opacity:0.4;fill:#FFFFFF;enable-background:new    ;}
	.st1{fill:#782D10;}
</style>
<title>nps_emoji_6</title>
<path class="st0" d="M18.2,13.7c0,0,6.4-5.7,18.6-4.7s10.7,4.9,3.7,4.7S10.5,20.1,18.2,13.7z"/>
<ellipse transform="matrix(0.9992 -3.996804e-02 3.996804e-02 0.9992 -1.1131 0.9721)" class="st1" cx="23.8" cy="28.3" rx="3.4" ry="4.5"/>
<ellipse transform="matrix(3.838776e-02 -0.9993 0.9993 3.838776e-02 18.3524 75.7389)" class="st1" cx="48.5" cy="28.3" rx="4.5" ry="3.4"/>
<path class="st1" d="M50.3,46.1H22.4c-0.7,0-1.3-0.6-1.3-1.3l0,0c0-0.7,0.6-1.3,1.3-1.3h27.9c0.7,0,1.3,0.6,1.3,1.3l0,0
	C51.6,45.5,51,46.1,50.3,46.1z"/>
</svg>
