<?xml version="1.0" encoding="utf-8"?>
<!-- Generator: Adobe Illustrator 23.0.1, SVG Export Plug-In . SVG Version: 6.00 Build 0)  -->
<svg version="1.1" id="Layer_1" xmlns="http://www.w3.org/2000/svg" xmlns:xlink="http://www.w3.org/1999/xlink" x="0px" y="0px"
	 viewBox="0 0 72 72" style="enable-background:new 0 0 72 72;" xml:space="preserve">
<style type="text/css">
	.st0{opacity:0.4;fill:#FFFFFF;enable-background:new    ;}
	.st1{fill:#782D10;}
	.st2{fill:#E69000;}
	.st3{fill:#F24D54;}
</style>
<title>nps_emoji_5</title>
<path class="st0" d="M18.2,13.7c0,0,6.4-5.7,18.6-4.7s10.7,4.9,3.7,4.7S10.5,20.1,18.2,13.7z"/>
<path class="st1" d="M36.7,42.1c6.4-0.5,12.8,16.9,0,16.7C23.9,58.6,26.9,42.8,36.7,42.1z"/>
<path class="st2" d="M23.9,15c-4-0.9-10.7,3.2-10.8,6.5c0,0.7,1.8-1.9,5.5-3.7C21.3,16.5,24.6,15.2,23.9,15z"/>
<path class="st2" d="M48.3,14.3c4.1-0.4,10.1,4.6,9.8,7.9c-0.1,0.7-1.8-2.2-5.3-4.5C50.4,16,47.6,14.4,48.3,14.3z"/>
<path class="st1" d="M15.4,24c-0.6,0.5,1.1,2.8,3.8,5.7c-3.4,2.9-3.9,4.8-3.2,5.2c0.7,0.4,4.8-3.4,4.8-3.4s4.7,3.4,5.7,2.8
	S23,28.8,23,28.8s4.8-4.3,3.7-4.8c-1.1-0.5-5.7,2.7-5.7,2.7S16.2,23.4,15.4,24z"/>
<path class="st1" d="M44.2,24c-0.7,0.5,1.1,2.8,3.8,5.7c-3.4,2.9-3.9,4.8-3.2,5.2c0.7,0.4,4.8-3.4,4.8-3.4s4.7,3.4,5.7,2.8
	s-3.6-5.5-3.6-5.5s4.8-4.3,3.7-4.8c-1.1-0.5-5.7,2.7-5.7,2.7S45,23.4,44.2,24z"/>
<path class="st3" d="M30.4,54.9c1.4-2.4,4.2-3.5,6.9-2.7c3.1,0.7,3.2,5.2,3.2,5.2S32.6,59.4,30.4,54.9z"/>
</svg>
