<svg width="96" height="96" viewBox="0 0 96 96" xmlns="http://www.w3.org/2000/svg"><g id="Page-1" stroke="none" stroke-width="1" fill="none" fill-rule="evenodd"><g id="il-rotate-screen" fill-rule="nonzero"><path d="M6.857 96A6.855 6.855 0 0 1 0 89.143V54.857A6.855 6.855 0 0 1 6.857 48h68.572a6.855 6.855 0 0 1 6.857 6.857v34.286A6.855 6.855 0 0 1 75.429 96H6.857zm0-6.857h68.572V54.857H6.857v6.857l1.42 1.42a6.86 6.86 0 0 1 2.009 4.848v8.03c0 1.816-.72 3.555-2.003 4.84l-1.426 1.434v6.857z" id="Shape" fill="#FFF" opacity=".24"/><path d="M48 6.857A6.855 6.855 0 0 1 54.857 0h34.286A6.855 6.855 0 0 1 96 6.857v68.572a6.855 6.855 0 0 1-6.857 6.857H54.857A6.855 6.855 0 0 1 48 75.429V6.857zm6.857 0v68.572h34.286V6.857h-6.857l-1.42 1.42a6.86 6.86 0 0 1-4.848 2.009h-8.03a6.852 6.852 0 0 1-4.84-2.003l-1.434-1.426h-6.857z" id="Shape" fill="#FFF"/><path d="M54.857 6.857v68.572h34.286V6.857h-6.857l-1.42 1.42a6.86 6.86 0 0 1-4.848 2.009h-8.03a6.852 6.852 0 0 1-4.84-2.003l-1.434-1.426h-6.857z" id="Path" fill="#FAAFD7" opacity=".72"/><path d="M8.571 32.55a1.712 1.712 0 1 0 3.426 0v-6.845c0-2.321.677-3.958 1.79-5.066 1.113-1.109 2.754-1.779 5.06-1.779h7.855l-5.64 5.635a1.71 1.71 0 0 0 .55 2.812 1.714 1.714 0 0 0 1.872-.392l8.413-8.405a1.71 1.71 0 0 0-.003-2.724l-8.41-8.403a1.714 1.714 0 0 0-2.893.754 1.71 1.71 0 0 0 .471 1.666l5.64 5.635h-7.854c-3 0-5.637.94-7.48 2.774-1.842 1.835-2.797 4.476-2.797 7.493v6.845z" id="Path" fill="#FFF" opacity=".72"/></g></g></svg>