<svg width="24" height="24" viewBox="0 0 24 24" xmlns="http://www.w3.org/2000/svg"><g id="Page-1" stroke="none" stroke-width="1" fill="none" fill-rule="evenodd"><g id="footer_icons" transform="translate(-270 -57)"><g id="thumbsup-icon" transform="translate(270 57)"><path id="container_16" d="M0 0h24v24H0z"/><path d="M13.818 3 7.994 8.824c-.363.364-.54.824-.54 1.278v9.262c0 1 .819 1.818 1.819 1.818h7.897c.728 0 1.375-.443 1.648-1.08l2.898-6.562c.182-.364.284-.801.284-1.165v-1.193c0-1-.818-1.818-1.818-1.818h-5.739s1.193-3.54 1.193-4.177C15.636 3.46 13.818 3 13.818 3zM2 10.273v10.909h3.636v-10.91H2z" id="Shape" fill="#A4A4A4"/></g></g></g></svg>