<?xml version="1.0" encoding="UTF-8" standalone="no"?>
<svg width="120px" height="120px" viewBox="0 0 120 120" version="1.1" xmlns="http://www.w3.org/2000/svg" xmlns:xlink="http://www.w3.org/1999/xlink">
    <!-- Generator: Sketch 3.7.2 (28276) - http://www.bohemiancoding.com/sketch -->
    <title>filter_e-state_2dp</title>
    <desc>Created with Sketch.</desc>
    <defs>
        <rect id="path-1" x="154.217391" y="191" width="48.4637681" height="48.4637681" rx="4"></rect>
        <filter x="-50%" y="-50%" width="200%" height="200%" filterUnits="objectBoundingBox" id="filter-2">
            <feOffset dx="0" dy="-45" in="SourceAlpha" result="shadowOffsetInner1"></feOffset>
            <feComposite in="shadowOffsetInner1" in2="SourceAlpha" operator="arithmetic" k2="-1" k3="1" result="shadowInnerInner1"></feComposite>
            <feColorMatrix values="0 0 0 0 0.901960784   0 0 0 0 0.901960784   0 0 0 0 0.901960784  0 0 0 1 0" type="matrix" in="shadowInnerInner1"></feColorMatrix>
        </filter>
        <mask id="mask-3" maskContentUnits="userSpaceOnUse" maskUnits="objectBoundingBox" x="0" y="0" width="48.4637681" height="48.4637681" fill="white">
            <use xlink:href="#path-1"></use>
        </mask>
        <rect id="path-4" x="152.014493" y="197.608696" width="52.8695652" height="52.8695652" rx="4"></rect>
        <filter x="-50%" y="-50%" width="200%" height="200%" filterUnits="objectBoundingBox" id="filter-5">
            <feOffset dx="0" dy="-48" in="SourceAlpha" result="shadowOffsetInner1"></feOffset>
            <feComposite in="shadowOffsetInner1" in2="SourceAlpha" operator="arithmetic" k2="-1" k3="1" result="shadowInnerInner1"></feComposite>
            <feColorMatrix values="0 0 0 0 0.901960784   0 0 0 0 0.901960784   0 0 0 0 0.901960784  0 0 0 1 0" type="matrix" in="shadowInnerInner1"></feColorMatrix>
        </filter>
        <mask id="mask-6" maskContentUnits="userSpaceOnUse" maskUnits="objectBoundingBox" x="0" y="0" width="52.8695652" height="52.8695652" fill="white">
            <use xlink:href="#path-4"></use>
        </mask>
        <rect id="path-7" x="149.811594" y="206.42029" width="57.2753623" height="57.2753623" rx="4"></rect>
        <filter x="-50%" y="-50%" width="200%" height="200%" filterUnits="objectBoundingBox" id="filter-8">
            <feOffset dx="0" dy="-51" in="SourceAlpha" result="shadowOffsetInner1"></feOffset>
            <feComposite in="shadowOffsetInner1" in2="SourceAlpha" operator="arithmetic" k2="-1" k3="1" result="shadowInnerInner1"></feComposite>
            <feColorMatrix values="0 0 0 0 0.901960784   0 0 0 0 0.901960784   0 0 0 0 0.901960784  0 0 0 1 0" type="matrix" in="shadowInnerInner1"></feColorMatrix>
        </filter>
        <mask id="mask-9" maskContentUnits="userSpaceOnUse" maskUnits="objectBoundingBox" x="0" y="0" width="57.2753623" height="57.2753623" fill="white">
            <use xlink:href="#path-7"></use>
        </mask>
        <rect id="path-10" x="147.608696" y="217.434783" width="61.6811594" height="61.6811594" rx="4"></rect>
        <filter x="-50%" y="-50%" width="200%" height="200%" filterUnits="objectBoundingBox" id="filter-11">
            <feOffset dx="0" dy="-3" in="SourceAlpha" result="shadowOffsetInner1"></feOffset>
            <feComposite in="shadowOffsetInner1" in2="SourceAlpha" operator="arithmetic" k2="-1" k3="1" result="shadowInnerInner1"></feComposite>
            <feColorMatrix values="0 0 0 0 0.882352941   0 0 0 0 0.882352941   0 0 0 0 0.882352941  0 0 0 1 0" type="matrix" in="shadowInnerInner1"></feColorMatrix>
        </filter>
        <path d="M175.837951,252.776316 C177.223769,252.727922 176.853968,252.740836 178.963791,252.667159 C181.073613,252.593483 181.550422,251.472853 181.533309,250.982793 C181.467708,249.104231 182.045896,248.020949 183.730137,246.858155 C187.221673,244.528269 187.621867,244.228077 188.574919,243.295257 C190.242047,241.642403 190.995376,239.694355 190.908383,237.203217 C190.711581,231.567529 185.870467,228.179319 178.323199,228.442875 C173.606156,228.607598 170.004063,230.123582 167.719156,232.901988 C166.69538,234.110782 166.090654,235.247708 165.711718,236.775623 C165.535903,237.484532 165.159236,238.983408 167.488347,239.335079 C169.817458,239.686749 170.392856,239.513805 171.449348,239.578816 C172.229221,239.626804 174.148393,238.6695 174.440295,237.205862 C174.728778,235.759372 176.70804,235.112001 178.553839,235.047545 C181.014905,234.961602 182.288609,236.154919 182.355636,238.07432 C182.402698,239.421984 181.776362,240.302507 179.807849,241.557004 C176.95691,243.41475 176.637325,243.671239 175.692829,244.849089 C174.435879,246.487619 174.00071,248.13834 174.099111,250.956184 C174.140468,252.140496 174.468943,252.824123 175.837951,252.776316" id="path-12"></path>
        <filter x="-50%" y="-50%" width="200%" height="200%" filterUnits="objectBoundingBox" id="filter-13">
            <feOffset dx="0" dy="2" in="SourceAlpha" result="shadowOffsetInner1"></feOffset>
            <feComposite in="shadowOffsetInner1" in2="SourceAlpha" operator="arithmetic" k2="-1" k3="1" result="shadowInnerInner1"></feComposite>
            <feColorMatrix values="0 0 0 0 0.882352941   0 0 0 0 0.882352941   0 0 0 0 0.882352941  0 0 0 1 0" type="matrix" in="shadowInnerInner1"></feColorMatrix>
        </filter>
        <mask id="mask-14" maskContentUnits="userSpaceOnUse" maskUnits="objectBoundingBox" x="-2" y="-2" width="29.3386951" height="28.3501256">
            <rect x="163.576432" y="226.428542" width="29.3386951" height="28.3501256" fill="white"></rect>
            <use xlink:href="#path-12" fill="black"></use>
        </mask>
        <path d="M169.637681,263.593259 C169.637681,260.505244 172.048982,258.683838 175.029324,259.4835 C175.029324,259.4835 177.226988,260.204812 178.449275,260.204812 C179.671563,260.204812 181.869227,259.4835 181.869227,259.4835 C184.846949,258.665242 187.26087,260.516731 187.26087,263.593259 L187.26087,262.69076 C187.26087,265.778775 184.849568,268.964031 181.869227,269.763693 C181.869227,269.763693 179.671563,270.485005 178.449275,270.485005 C177.226988,270.485005 175.029324,269.763693 175.029324,269.763693 C172.051602,268.945435 169.637681,265.767288 169.637681,262.69076 L169.637681,263.593259 Z" id="path-15"></path>
        <filter x="-50%" y="-50%" width="200%" height="200%" filterUnits="objectBoundingBox" id="filter-16">
            <feOffset dx="0" dy="-5" in="SourceAlpha" result="shadowOffsetInner1"></feOffset>
            <feComposite in="shadowOffsetInner1" in2="SourceAlpha" operator="arithmetic" k2="-1" k3="1" result="shadowInnerInner1"></feComposite>
            <feColorMatrix values="0 0 0 0 0.882352941   0 0 0 0 0.882352941   0 0 0 0 0.882352941  0 0 0 1 0" type="matrix" in="shadowInnerInner1"></feColorMatrix>
        </filter>
        <mask id="mask-17" maskContentUnits="userSpaceOnUse" maskUnits="objectBoundingBox" x="0" y="0" width="17.6231884" height="11.1951497" fill="white">
            <use xlink:href="#path-15"></use>
        </mask>
    </defs>
    <g id="Page-1" stroke="none" stroke-width="1" fill="none" fill-rule="evenodd">
        <g id="filter_e-state" transform="translate(-119.000000, -180.000000)">
            <g id="Rectangle-75">
                <use fill="#FFFFFF" fill-rule="evenodd" xlink:href="#path-1"></use>
                <use fill="black" fill-opacity="1" filter="url(#filter-2)" xlink:href="#path-1"></use>
                <use stroke="#E1E1E1" mask="url(#mask-3)" stroke-width="4" xlink:href="#path-1"></use>
            </g>
            <g id="Rectangle-75">
                <use fill="#FFFFFF" fill-rule="evenodd" xlink:href="#path-4"></use>
                <use fill="black" fill-opacity="1" filter="url(#filter-5)" xlink:href="#path-4"></use>
                <use stroke="#D7D7D7" mask="url(#mask-6)" stroke-width="4" xlink:href="#path-4"></use>
            </g>
            <g id="Rectangle-75">
                <use fill="#FFFFFF" fill-rule="evenodd" xlink:href="#path-7"></use>
                <use fill="black" fill-opacity="1" filter="url(#filter-8)" xlink:href="#path-7"></use>
                <use stroke="#C2C2C2" mask="url(#mask-9)" stroke-width="4" xlink:href="#path-7"></use>
            </g>
            <g id="Rectangle-75">
                <use fill="#FFFFFF" fill-rule="evenodd" xlink:href="#path-10"></use>
                <use fill="black" fill-opacity="1" filter="url(#filter-11)" xlink:href="#path-10"></use>
                <use stroke="#A4A4A4" stroke-width="2" xlink:href="#path-10"></use>
            </g>
            <g id="?">
                <use fill="#FFFFFF" fill-rule="evenodd" xlink:href="#path-12"></use>
                <use fill="black" fill-opacity="1" filter="url(#filter-13)" xlink:href="#path-12"></use>
                <use stroke="#A4A4A4" mask="url(#mask-14)" stroke-width="4" xlink:href="#path-12"></use>
            </g>
            <g id="Rectangle-23" transform="translate(178.449275, 264.887430) scale(1, -1) translate(-178.449275, -264.887430) ">
                <use fill="#FFFFFF" fill-rule="evenodd" xlink:href="#path-15"></use>
                <use fill="black" fill-opacity="1" filter="url(#filter-16)" xlink:href="#path-15"></use>
                <use stroke="#A4A4A4" mask="url(#mask-17)" stroke-width="4" xlink:href="#path-15"></use>
            </g>
            <path d="M194.971014,258.540297 C195.349249,257.071087 196.682984,255.985507 198.270271,255.985507 C199.872141,255.985507 201.21578,257.091128 201.57971,258.580891" id="Oval-2" stroke="#A4A4A4" stroke-width="2" stroke-linecap="round" stroke-linejoin="round"></path>
            <path d="M199.376812,247.173913 L202.568566,248.029141" id="Line" stroke="#E1E1E1" stroke-width="2" stroke-linecap="round" stroke-linejoin="round"></path>
            <path d="M155.318841,258.540297 C155.697075,257.071087 157.030811,255.985507 158.618097,255.985507 C160.219967,255.985507 161.563606,257.091128 161.927536,258.580891" id="Oval-2" stroke="#A4A4A4" stroke-width="2" stroke-linecap="round" stroke-linejoin="round"></path>
            <path d="M158.510595,247.173913 L155.318841,248.029141" id="Line" stroke="#E1E1E1" stroke-width="2" stroke-linecap="round" stroke-linejoin="round"></path>
            <g id="tears-2" transform="translate(218.433335, 259.568730) rotate(22.000000) translate(-218.433335, -259.568730) translate(211.933335, 254.068730)" fill="#E6E6E6">
                <rect id="Rectangle-path" transform="translate(4.000000, 3.000000) scale(-1, 1) rotate(30.000000) translate(-4.000000, -3.000000) " x="1" y="1.49999999" width="6" height="3" rx="2"></rect>
                <rect id="Rectangle-path" transform="translate(8.854368, 8.250787) scale(-1, 1) rotate(15.000000) translate(-8.854368, -8.250787) " x="5.85436771" y="6.7507868" width="6" height="3" rx="2"></rect>
            </g>
            <g id="tears-1" transform="translate(138.433335, 259.568730) scale(-1, 1) rotate(22.000000) translate(-138.433335, -259.568730) translate(131.933335, 254.068730)" fill="#E6E6E6">
                <rect id="Rectangle-path" transform="translate(4.000000, 3.000000) scale(-1, 1) rotate(30.000000) translate(-4.000000, -3.000000) " x="1" y="1.49999999" width="6" height="3" rx="2"></rect>
                <rect id="Rectangle-path" transform="translate(8.854368, 8.250787) scale(-1, 1) rotate(15.000000) translate(-8.854368, -8.250787) " x="5.85436771" y="6.7507868" width="6" height="3" rx="2"></rect>
            </g>
        </g>
    </g>
</svg>